<?xml version="1.0" encoding="utf-8"?>
<!-- Generator: Adobe Illustrator 28.0.0, SVG Export Plug-In . SVG Version: 6.00 Build 0)  -->
<svg version="1.1" id="Layer_1" xmlns="http://www.w3.org/2000/svg" xmlns:xlink="http://www.w3.org/1999/xlink" x="0px" y="0px"
	 viewBox="0 0 595.28 841.89" style="enable-background:new 0 0 595.28 841.89;" xml:space="preserve">
<style type="text/css">
	.st0{fill:#416AB2;}
	.st1{fill:#4064AF;}
	.st2{font-family:'against-Regular';}
	.st3{font-size:122.9672px;}
	.st4{font-family:'BookAntiqua';}
	.st5{font-size:46.9656px;}
</style>
<g>
	<path class="st0" d="M-149.26,426.08c-1.36,1.35-1.25-1.01,0.15-0.59c0.89,0.14,0.93,2.81,0.18,2.95
		C-151.25,428.5-149.21,426.82-149.26,426.08z"/>
	<g>
		<path class="st0" d="M-105.96,409.64c-28,3.99-59.06,1.2-77.43-23.06c-11.66-15.39-20.91-4.65-2.41-16.44
			c-6.17,2.6-14.94,2.22-13.08,10.4c-4.65,0.62-4.03-2.24-1.22-4.54c-6.71,1.44-12.09,3.84-18.61,0.18
			c-1.46-0.36-7.32,0.26-3.47-1.42c-2.98-0.44-4-2.17-2.77-4.72c-12.04-5.37-21.15,4.86-31.43,10.31c0.87,3.28,2.04,7.58,5.81,5.25
			c-3.22,1.76-1.69,4.72,0.86,7.81c-0.36-3.92,11.8-5.35,11.69-1.04c-2.41,1.13-11.59,1.43-10.17,4.92
			c5.39-1.6,33.64-9.38,17.35-15.22c18.16-0.37,5.38,3.29,5.35,8.83c1.33,1.54,6.98,3.07,4.64,5.5
			c-28.41,7.34,23.83,7.94,30.03,7.84c-4.58,6.33-45.39-7.27-32.4,5.24c1.84,12.83,42.36-2.58,53.24,5.62
			c-15.91-2.1-34.03-1.31-49.21,1.85c-0.38,3.09,0.38,7.68-4.14,7.07c-4.54,1.25,0.24,1.69,2.39,1.55c0.52-1.56,1.22-1.98,3.25-1.45
			c1.28,0.42,7.34,2.24,3.64,2.69c8.73,5.3-3.5,8.46,4.65,9.78c1.86,0.48,3.4-6.04,3.89-1.04c0.08,0.58,0.32,1.32,1.04,0.97
			c1.3-0.89,1.99-0.03,3.16,0.61c3.6-0.29,6.15-0.09,8.73-0.74c2,0.99,1.41-1.63,2.84,0.68c2.57,0.49,5.37-2.85,7.8-0.75
			c8.84-5.69,16.33,1.58,18.86,10.05c2.98,4.64,8.34,8.91,8.26,14.62c2.71,2.44,10.39-3.65,14.45-4.74
			c-1.75-5.46-3.49-3.31-7.96-1.45c-7.36,4.15-7.63,0.82-11.46-5.06c-4.85-4.39-4.24-11.61-9.19-15.44
			c-5.8-1.72-12.42-5.02-18.95-6.03c-7.87-1.53-17.2,1.43-24.24-1.39c12.33-0.57,26.91-2.72,37.64,4.79
			c2.02-4.62,8.92-5.14,12.92-7.86c1.88-0.19,0.83-0.83,1.85-1.35c-1.77-0.95,2.61-1.67,3.42-2.32c-3.3-1.26-6.28,3.71-8.17-1.45
			c-0.06-2.16-1.79-6.97,2.27-5.67c2.63-0.01-1.11-1-2.16-0.77c-1.86-0.27-0.65-2.45-0.26-3.4c-0.82-0.66-0.45-1.91,0.19-2.38
			c5-1.94,2.21,9.87,5.02,2.24c0.21,1.25,0.31,2.76,1.91,1.89c1.38-0.92,2.27,0.38,3.63,0.39c1.45-0.08,2.79-0.14,3.86,1.25
			C-140.31,412.23-104,413.09-105.96,409.64z M-239.95,382.75c-3.48,0.93-6.49,1.64-9.76,3.42
			C-250.7,380.48-238.74,377.74-239.95,382.75z M-227.51,378.14c-8.82-1.89,9.01-0.81,12.1,1.98
			C-219.38,378.99-223.46,378.65-227.51,378.14z M-176.79,432.99c0.21,0.05,0.23,0.12,0.12,0.3
			C-176.88,433.24-176.91,433.17-176.79,432.99z M-187.32,436.13c0.2,0.27-1.12,0.07-1.16,0.13
			C-188.67,435.99-187.36,436.19-187.32,436.13z"/>
		<path class="st0" d="M-66.52,378.78c-2.77-0.27-5.4,1.84-7.31-1.01c-4.09-2.38-9.78-2.33-14.42-3.78
			c-9.76-2.53-20.61,1-29.92-1.72c-1.61,0.86-3.14-0.56-4.56-0.27c-0.39,1.03-1.19,0.74-1.76,0.7c-6.33-3.59-16.82-4.73-23.19-10.52
			c-4.14-5.85-10.66-0.76-16.43-0.75c-4.93,3.6-20.12,0.97-18.88,7.5c-3.79,2.82,6.25,3.88,9.22,6.34
			c15.22,8.57,8.63,15.2,31.49,20.93c4.05,0.06,21.62,8.36,15.34-0.1c-1.43,1.62-5.64,0.46-9.37-0.73
			c-7.92-2.92-19.48-4.11-23.79-12.07c-4-7.81-14.45-10.65-21.98-14.28c5.77-2.86,11.31,3.74,16.8,5.5
			c11.01,4.81,22.35,10.62,33.25,14.97c3.37,4.96,7.48-2.73,11.24-4.38c4.71-2.08,10.24-1.2,14.64-4.46
			c5.86-5.27,21.31,0.5,11.89,7.82c6.43,2.32,20.37-1.05,21.48,4.7C-70.37,388.99-67.3,383.59-66.52,378.78z M-124.92,380.41
			c-3.83,1.09-4.6-2.17-1.97-4.13C-131.79,376.13-123.08,370.32-124.92,380.41z M-175.43,356.48c-9.42,1.4-5.31-3.3,0.44-5.62
			c-29.46-7.57-12.22,8.25-28.5,2.74c2.57,2.14,14.98,2.72,7.28,4.7C-189.87,358.13-180.05,359.46-175.43,356.48z"/>
		<path class="st0" d="M-200.64,448.91c-6.83,0.25-13.7-4.29-20.45-1.76c-0.76,1.75-2.3,1.05-3.58,1.25
			c-4.14,1.29-7.35,5.7-11.78,5.94c-3.11,0.79,5.48,7.54,1.4,7.41c-13.59-18.43-41.67-2.92-60.35-14.05
			c-4.88-0.43-9.12-3.49-13.48-0.42c-1.6-6-2.8,5.09-2.71-6.07c-8.12,22.88,22,38.35,35.56,31.81c7.58-0.79,25.67-0.26,10.26-8.13
			c-11.48-5.04-24.66-1.38-36.35-5.45c-3.67-1.44-9.63-1.63-9.07-6.84c4.77,1.65,8.97,4.05,13.69,5.64
			c13.48,3.58,31.76-0.62,40.97,12.24c19.44-6.23,37.69-14.91,57.45-20.89C-199.6,449.34-200.15,448.85-200.64,448.91z
			 M-301.51,466.29c14.23-3.79,35.06,11.45,18.26,4.77C-287.79,465.88-297.83,470.56-301.51,466.29z"/>
		<path class="st0" d="M-195.3,447.78c-6.77,5.09-17.65-4.29-25.79-0.63c-0.76,1.75-2.3,1.05-3.58,1.25
			c-4.14,1.29-7.35,5.7-11.78,5.94c-3.11,0.79,5.48,7.54,1.4,7.41c-13.59-18.43-41.67-2.92-60.35-14.05
			c-4.88-0.43-9.12-3.5-13.48-0.42c-0.64-2.62-1.28-2.39-2.38-0.04c-0.61-1.04-0.03-3.49-0.23-5.01c1.07-3.39,2.38-12.08,5.49-12.8
			c2.9,0.56,7.87-0.9,9.35,2.14c4.61-1.03,10.5,3.73,15.82-0.37c2,1.46,4.54-1.34,6.56-0.1c3.07-0.72,6.11,0.92,8.85-0.45
			c0.95,1.56,2.66,0.38,3.92,1.07c1.31,1.73,6.36,3.17,6.07,4.58c-6.57,0.2-13.24-0.33-19.72,0.46c2.5,1.54,7.33,1.08,10.61,1.75
			c15.64,1.71,10.48-3.13,13.21,8.3c-0.15,0.34-0.74,0.98-1.26,0.18c-3.2-2.81-8.89-0.24-12.96-2.15c-2.12-1.81-6.62,1.23-6.69-2.5
			c1.05-3.12-2.42-5.99-3.87-2.36c-0.08,0.99,0.1,2.71-0.46,3.39c-3.81,0.26-8.02-1.8-11.75-1.6c-1.37,0.1-2.8,0.78-3.71-1.19
			c-17.68,9.06,77.88,14.14,60.98,2.68c-2.44-3.55-5.94-5.39-8.34-9.1c4.45,1.95,9.3,11.31,13.61,9.33
			c-8.78-9.84-20.14-21.57-28.79-29.99c6.75,1.99,11.45,11.1,17.51,15.42c3.88,5.05,13.09,9.97,14.02,15.51
			c0.59-0.29,1.57,0.58,1.59-0.75c1.98-1.89,4.28-2.02,6.73-0.97c2.11,0.14,1.13,3.85,3.89,2.52c1.67,0.13,2.09,0.26,3.16-1.05
			c-0.2,1.99,1.01,0.96,2.25,0.68C-201.78,445.17-198.78,446.7-195.3,447.78z"/>
		<path class="st0" d="M-64.77,365.62c-6.98-30.39-45.67-30.5-70.72-28.73c3.09,20.63,28.11,13.18,42.46,13.78
			c15.7,4.02-8.28,12.18-13.67,14.15c-9.01,2.84,2.27-0.47,6.44-0.54c-0.46-0.27-0.7-0.41-1.3-0.75
			C-89.85,363.84-75.18,367.75-64.77,365.62z M-88.45,348.4c-3.56,1.02-4.27-2.65-1.07-4.1C-95.52,344.93-86.07,337.88-88.45,348.4z
			"/>
		<path class="st0" d="M-164.79,569.19c-10.89-30.83-25.83-60.26-40.62-89.44c0.77,3.8,3.6,6.61,4.35,10.53
			c-3.46-1.84-2.13,2.53-4.38-2.39c-2.25-4.15-4.51-3.71-7.5-9.66c-2.18,2.97-3.34-4.55-2.04,3.76c0.82,1.88,7.97,15.1,4.35,11.71
			c-16.9-26.53,4.79,12.38,9.81,21.5c0.06-0.3,0.15-0.68,0.23-1.03C-196.32,518.64-165.63,584.76-164.79,569.19z M-209.92,483.61
			c-0.14-0.1-0.05-0.29,0.11-0.27C-209.67,483.45-209.75,483.64-209.92,483.61z M-176.42,553.12c-3.13-6.01-6.55-11.82-9.57-17.84
			c-0.09,0.33-0.15,0.55-0.25,0.9c-1.63-2.35-3.19-7.61-4.6-8.02c-2.83-6-5.69-12.07-8.69-17.82c-0.74-2.26-4.25-3.21-1.64-5.76
			c-1.53-0.79-0.82-1.74,0.18-2.36c2.87-0.82,3.98,9.53,7.08,11.95v-1.11c1.09,0.32,1.85,3.65,0,1.11
			C-190.42,513.85-168.19,561.89-176.42,553.12z"/>
		<path class="st0" d="M-187.54,436.81c6.77-1.58,18.54-5.65,21.86,4.11c1,6.22,10.37,11.78,9.25,17.02
			c-34.38,7.24-15.96-8.38-31.9-9.61C-185.6,446.78-186.46,439.53-187.54,436.81z"/>
		<path class="st0" d="M-199.04,461.63c-5.05-13.03-19.79-0.62-29.01,2.73c5.94,10.33,10.88,22.55,18.93,30.18
			c-2.07-5.79-6.09-10.56-6.46-16.85c0.96,0.67,1.46,2.3,2.64,0.53c0.94,1.6,1.81,3.08,2.68,4.56c0.92-1.4,1.96,2.55,2.77,3.34
			c-0.24-2.71,1.56,0.47,2.05,1.76c2.25,4.9,0.92,0.56,4.38,2.38c-2.89-8.26-7.5-16.68-10.66-24.3c2.81,2.03,4.67,0.99,2.21-1.91
			c-1.54-0.54-3.99-6.05-1.28-4c4.09-1.69,7.56,2.2,10.54,4.6C-201.93,462.27-197.3,464.29-199.04,461.63z M-204.27,488.02
			c0.29,0.11,0.28,0.28,0.09,0.49C-204.43,488.37-204.44,488.24-204.27,488.02z"/>
		<path class="st0" d="M-173.55,356.26c0.13,1.02-3.49,1.32-1.66,0.45c0.06-0.13-0.13-0.17-0.22-0.23
			C-174.72,356.4-174.01,356.32-173.55,356.26z"/>
		<path class="st0" d="M-66.92,376.21c-18.69-8.28-40.18-2.08-58.41-6.55c-35.11-8.8-27.33-20.53,0.45-5.75
			c4.39-5.81-13.65-5.24-16.94-8.97c2.59-2.55,4.63,0.14,7.33,1.01c2.75,2.02,15.6,3.38,9.18-0.2c-20.36-5.36-2.22-8.07-11.78-11.27
			c-0.62,0.13-1.49,0.24-0.68,0.87c2.4,1.71-1.17,3.49,0.97,5.29c-8.74,5.23-18.69,5.6-28.1,10.82c4.97,0.58,11.21-4.42,15.29-1.04
			c5.42,5.39,21.73,12.47,27.4,11.42c10.73,3.03,22.69-0.27,33.95,2.13c4.65,1.45,10.34,1.4,14.42,3.78
			c1.28,1.65,2.38,1.98,4.19,1.16c7.6-1.24-2,10.01-2.64,13.92c-1.88,2.83-6.41,6.66-2.07,8.13
			C-71.15,394.67-60.92,381.23-66.92,376.21z M-65.97,381.34c0.43-0.36,0.35,0.18,0.47,0.5C-65.65,381.68-65.81,381.51-65.97,381.34
			z"/>
		<path class="st0" d="M-64.47,377.47c-18.42-9.32-39.09-4.46-58.66-6.88c4.49,0.31,8.96-2.23,12.92-4.74
			c-0.73,1.95,6.99-2.65,9.95-1.57c-0.46-0.26-0.7-0.41-1.3-0.75c11.59,1.29,23.23,2.02,34.87,3.03
			C-62.18,365.27-64.36,374.37-64.47,377.47z"/>
		<path class="st0" d="M-315.44,349.18c-0.04-0.02-0.07-0.04-0.1-0.06c0.12,0.09,0.27,0.1,0.41,0.14
			C-315.24,349.24-315.34,349.21-315.44,349.18z M-309.31,355.75c-6.58-15.99-22.76-23.74-38.13-31.49
			c-0.26,5.6,10.49,18.11,14.31,25.68c0.29-1.05,0.67,0.29,0.99-0.02c-1.1-1.53-1.7-3.58-2.92-5.11c5.25,0.29-2.3-2.95,0.89-5.25
			c2.79-2.26,4.27,0.16,6.53,2.17c0.15-4.42,4.53,3.44,6.25,0.69c3.16,2.8,4.78,5.12,5.92,8.82c0.09,2.33-2.07,4.24-0.98,6.12
			c-6.56-1.13-3.17-0.67-5.45,1.94c3.61,0.34,6.79,4.16,9.42,4.65C-310.11,360.97-305.21,359.12-309.31,355.75z M-333.95,337.96
			c-0.11-0.02-0.09-0.06-0.06-0.14C-333.9,337.83-333.92,337.88-333.95,337.96z M-327.98,339.58c-0.21-0.13-0.69-0.1-0.49-0.42
			C-328.28,339.3-327.8,339.28-327.98,339.58z M-322.17,342.38c-0.11-0.02-0.09-0.06-0.06-0.14
			C-322.11,342.25-322.14,342.3-322.17,342.38z M-318.6,357.12c-0.02-0.02-0.03-0.04-0.03-0.07c0.03,0.03,0.06,0.06,0.09,0.09
			C-318.56,357.13-318.59,357.13-318.6,357.12z M-315.92,349.86c-0.16-0.14-0.33-0.27-0.48-0.42
			C-316.13,349.55-315.61,349.48-315.92,349.86z"/>
		<path class="st0" d="M-303.17,312.58c-0.03-0.03-0.07-0.06-0.1-0.08c0.05,0.15,0.17,0.24,0.27,0.36
			C-303.07,312.77-303.12,312.67-303.17,312.58z M-301.12,315.02c-0.04-0.04-0.09-0.08-0.13-0.12c0.05,0.06,0.1,0.11,0.14,0.16
			C-301.11,315.05-301.11,315.03-301.12,315.02z M-291.63,318c0.05-0.09,0.05-0.2,0.09-0.31C-291.57,317.79-291.6,317.9-291.63,318z
			 M-288.68,321.43c0,0,0,0.01,0.01,0.01C-288.67,321.44-288.68,321.43-288.68,321.43z"/>
		<path class="st0" d="M-130.07,450.34c-3.37,1.97-6.82,4.52-10.38,5.82c-1.66-6.4-3.97-12.76-5.52-19.47
			c-1.58-1.88-5.35,1.63-7.94,0.65c-1.64-0.02-10.24-0.12-6.06-1.73c6.93-0.43,28.59-3.1,23.43-13.52
			c-16.03-7.45,8.55-6.12,16.17-7.66c11.08-2.65,43.47,0.2,16.37,0.47c-7.5,0.11-22.06-0.49-27.02,3.68
			c-0.6,3.52,0.41,6.51-1.45,9.93c4.02,2.12,11.87,5.48,10.69,11.05c-4.52,4.92-5.92-8.31-12.68-9.15
			c-14.44,5.15-9.01,7.23-7.15,19.97c1.84,2.3,6.65-3.12,9.33-3.71C-131.45,448.13-132.36,450.18-130.07,450.34z"/>
		<path class="st0" d="M-206.43,460.4c2.77-0.14,3.84,3.14,6.18,4.27c-1.68-2.4,2.95-0.37,1.21-3.03c-0.05-0.11,0.17-0.35,0.26-0.52
			c8.8,10.55,21.04,20.96,30.57,32.51c-6.86-3.15-18.7-20.02-22.76-19.95c-4.26-4.26-9.41-5.94-13.96-9.65
			c-6.13-0.43,7.58,11.34,8.83,14.04c3.38,3.01,13.59,14.68,5.08,7.27c-6.16-7.18-15.99-11.62-20.69-19.36
			c2.83,2.03,4.66,0.99,2.21-1.91c-4.74-3.72-1.46-5.82,3.18-3.55C-206.36,460.47-206.4,460.44-206.43,460.4z"/>
		<path class="st0" d="M-295.81,413.72c4.47-8.84,12.9-7.44,21.64-7.59c-0.83-4.11-9.47-0.94-13.08-1.73
			c1.33-2.14,6.63-4.19,5.58-6.67c-5.08-5.23-10.47-10.3-15.12-15.88c10.64,7.52,18.36,18.75,27.44,27.27
			c1.02,1.9,2.92-3.39,2.59-0.51c-0.49,0.39-1.25,0.62-0.81,1.5c0.31,2.49,8.02,6.83,4.39,7.11c-3.59-6.14-8.98-6.96-15.59-5.15
			c-2.49-1.29-4.41-2.95-6.86-0.37C-287.7,415.89-291.83,413.37-295.81,413.72z"/>
		<path class="st0" d="M-176.38,352.93c0.32-0.2,0.63-0.4,0.96-0.56C-175.75,352.53-176.06,352.74-176.38,352.93z"/>
		<path class="st0" d="M-176.25,349.9c-3.83-0.96-7.83-1.14-11.73-1.7C-183.05,346.44-170.6,341.56-176.25,349.9z"/>
		<path class="st0" d="M-148.94,344.76c-20.96,6.69-8.5-4.6-15.96-1.29c-0.57,0.38,0.22,0.86,0.64,1.57
			c-2.53,1.91-0.06,3.93,2.39,2.43c-0.66,1.81-3.46,1.58-4.93,2.84c0.9-3.25-3.9-5.13-6.24-6.55c4.75-1.43,11.82-3.82,13.67,2.58
			c2.47-2.81-0.14-8.15,7.93-7.23C-153.92,340.01-149.59,343.13-148.94,344.76z"/>
		<path class="st0" d="M-161.26,499.4c8.49,8.16,59.29,63.16,21.64,34.11c-0.09-0.06-0.21-0.32-0.26-0.2
			c-1.82-2.19-12.51-9.39-9.73-9.22c-3.75-8.39,10.8,8.76,15.03,8.99c0.68-0.94-6.8-11.82-6.46-9
			C-142.53,519.52-183.82,480.05-161.26,499.4z"/>
		<path class="st0" d="M-122.96,356.43c-3.93-1.65-11.67-2.08-12.81-6.61c0.38-1.28,2.99-2.29,1.52-3.57
			c-7.42-4.91-5.55,2.88-14.5-7.65c21.78-6.89,9.34,14.5,35.25,13.08C-116.56,353.4-120.09,354.3-122.96,356.43z"/>
		<path class="st0" d="M-204.7,454.77c-29.78,13.13-40.55,11.71-3.44-2.61c6.73-1.92,26.91-8.53,26.96,1.19
			C-188.8,449.91-196.98,453.6-204.7,454.77z"/>
		<path class="st0" d="M-286.73,331.24c0,0.01,0,0.02,0.01,0.02C-286.72,331.25-286.72,331.25-286.73,331.24z"/>
		<path class="st0" d="M-148.46,522.78c0.25,0.17,0.66,0.12,0.99,0.16c-17.73-15.07-33.73-31.75-49.86-46.59
			c2.32,4.44,9.61,7.96,9.8,12.46c-4.54-4.33-9.28-10.23-14.77-12.91c17.26,15.76,33.64,33.63,52.08,47.6
			C-150.99,521.51-150.82,520.59-148.46,522.78z M-186.85,489.05c-0.02-0.01-0.02-0.05-0.02-0.08
			C-186.74,488.86-186.71,489.15-186.85,489.05z M-150.22,523.5c0,0.01,0.01,0.01,0.01,0C-150.22,523.5-150.22,523.5-150.22,523.5z"
			/>
		<path class="st0" d="M-222.67,361.97c12.8,1.86-6.1,10.99-12,5.84c6.27-1.99,18.51-13.52,22.24-6.93
			C-215.75,363.95-219.19,360.65-222.67,361.97z"/>
		<path class="st0" d="M-193,357.23c-3.66,1.16-12.78,2.14-14.14-2.13C-202.84,352.52-197.18,355.95-193,357.23z"/>
		<path class="st0" d="M-316.2,354.67c1.79-4.94-1.53-8.92-5.2-12.26c-0.72,1.39-1.75,0.31-2.36-0.49
			c-0.83,0.74-1.16-0.14-1.64-0.51c-1.4-1.13-1.97-2.02-2.25,0.31c-2.25-2-3.74-4.43-6.53-2.16c-3.18,2.29,4.35,5.54-0.89,5.25
			c1.22,1.54,1.82,3.59,2.92,5.12c-0.32,0.31-0.7-1.04-0.99,0.02c1.69,2.67,4.49,5.71,7.61,7.66c7.05,4.36,1.44-2.77,9.07-0.25
			C-317.53,356.3-316.47,355.68-316.2,354.67z M-320.67,344.37c0.58,0.13,0.46,0.51-0.07,0.2
			C-320.73,344.55-320.69,344.43-320.67,344.37z M-323.49,342.64c0.35-0.21,0.06,0.12,0,0.29
			C-323.64,342.79-323.76,342.71-323.49,342.64z M-332.1,350c-0.02-0.02-0.03-0.04-0.03-0.07c0.03,0.03,0.06,0.06,0.09,0.09
			C-332.06,350.01-332.09,350.01-332.1,350z M-331.16,349.11c-0.14-0.22-0.58-0.4-0.24-0.6
			C-331.26,348.73-330.83,348.91-331.16,349.11z M-319.17,352.72c-1.05-0.09-1.92-0.92-2.69-1.3c2,1.87,1.48,3.42,0.25,4.76
			c-1.16-1.59-2.55,0.34-4.07-0.61c-2.14-1.91-3.31-3.94-5.06-5.99c1.85,0.07-0.53-0.79,0.15-1.22c2.16,0.38-3.5-4.23,0.12-2.78
			c0.24,0.28,0.61,0.76,0.78-0.08c1.65-0.63,2.26,1.35,3.73,1.79C-328.54,342.04-319.51,351.08-319.17,352.72z M-316.62,352.17
			c0-0.08,0.02-0.13,0.11-0.13C-316.44,352.16-316.52,352.15-316.62,352.17z M-333.14,349.92c0.01,0.01,0.01,0.04,0.02,0.02
			C-333.13,349.93-333.14,349.92-333.14,349.92z"/>
		<path class="st0" d="M-179.68,457.42c7.28,3.3,16.5,2.82,24.09,0.04C-150.01,466.53-179.28,466.7-179.68,457.42z"/>
		<path class="st0" d="M-232.43,462.41c-0.01,1.1,1.15,2.38,2.47,2.72C-260.12,479.6-268.86,475.24-232.43,462.41z"/>
		<path class="st0" d="M-308.66,360.12c9.51-1.38,27.24,24.86,37.9,30.32c1.32,2.16,5.28,3.61,6.09,2.21
			c0.39,1.77,3.19,3.95,1.95,5.51c-0.39,0.82,0.89,1.54,1.22,2.19c2.32,4.84-11.19-12.13-14.46-11.88
			C-286.31,377.92-297.96,366.49-308.66,360.12z"/>
		<path class="st0" d="M-130.07,450.34c-4.76-1.57,0.07-7.17,3.64-6.33c1.15,0.55,1.35,0.46,1.44-0.75
			c0.77-4.13,7.43-5.17,10.34-8.18c6.68,4.57-10.3,11.07-14.88,14.99C-129.7,450.18-129.89,450.25-130.07,450.34z"/>
		<path class="st0" d="M-289.52,414.01c-2.11-0.12-4.24-0.24-6.34-0.27c0.08,1.71-0.19,2.04-1.86,2.5c-1.67,0.53-2.02,2.93-3,3.45
			c-0.2,2.67,6.79-0.42,4.52,4.32c-1.67,6.6-5.05,4.44-10.39,4.71c1.91,2.34,8.53-0.87,9.95,2.84c0.09-0.64,1.29-0.41,1.65-0.24
			c3.51,1.48-2.22-4.16,0.25-7.41C-295.12,420.52-284.97,415.45-289.52,414.01z M-298.12,419.77c0-0.33-0.27-0.77,0.21-0.73
			C-297.92,419.35-297.66,419.81-298.12,419.77z"/>
		<path class="st0" d="M-290.13,473.23c2.06,2.6,10.51,1.62,14.88,1.88c2.84,1.28,1.23,2.05,5.94,1.92
			c-14.53,1.59-31.99-0.9-39.66-14.92C-303.9,467.65-297.72,472.26-290.13,473.23z"/>
		<path class="st0" d="M-253.04,387.32c5.48,12.7-8.32-11.58-9.03-16.35c2.96,5.21,6.08,10.44,8.41,15.63
			C-250.62,385.37-249.54,385.77-253.04,387.32z"/>
		<path class="st0" d="M-300.72,419.69c-0.2,2.67,6.79-0.41,4.52,4.32C-300.24,433.74-311.06,428.83-300.72,419.69z"/>
		<path class="st0" d="M-269.32,477.04c-4.73,0.13-3.08-0.63-5.94-1.92c-4.16-0.33-12.93,0.84-14.71-1.88
			c9.32,1.16,20.13,2.36,28.48-0.41C-248.01,473.09-264.54,477.91-269.32,477.04z"/>
		<path class="st0" d="M-267.64,384.07c-5.66-5.85-7.62-15.24-11.78-22.41C-274.86,368.73-271.21,376.47-267.64,384.07z"/>
		<path class="st0" d="M-200.82,515.2c0.05-0.23,0.1-0.45,0.23-1.02c6.58,11.6,13.62,23.14,19.34,34.97c0.3-0.13,0.2,0.99,0.35,1.35
			c-7.27-11.4-13.85-23.25-19.92-35.33C-200.83,515.16-200.82,515.2-200.82,515.2z"/>
		<path class="st0" d="M-261.13,401.73c1.01-1.07-1.14-1.78-1.51-2.75c-0.41-1.06,1.02-1.5-0.03-2.45
			c-1.22-5.28-4.57-1.64-8.09-6.08c1.69-0.5,3.6-4.2,4.69-3.21c0.37,0.88-0.36,2.39,1.41,2.48c0.17,0.34-0.7,0.77-0.6,0.9
			c3.09,1.77,4.37,10.54,6.55,9.66c2.26-0.27-0.99,1.61-1.76,2.08c-1.13,0.55-1.68,1.32-0.99,2.57
			C-263.62,404.86-262.02,402.61-261.13,401.73z"/>
		<path class="st0" d="M-112.7,438.79c-2.18-1.31,0.58-1.18-0.5-3.06c-2.65-1.06,8.02-9.58,7.94-2.59c-1.49,0.62-6.6,6.35-6,3.3
			C-113.11,437.24-110.76,437.95-112.7,438.79z"/>
		<path class="st0" d="M-86.56,416.18c-3.09,3-6.15,7.97-10.87,5.38c2.49-2.41,9.43-9.34,11.06-5.55
			C-86.43,416.07-86.49,416.13-86.56,416.18z"/>
		<path class="st0" d="M-163.19,497.42c-9.3-8.79-24.49-22.87-29.73-30.4C-182.85,476.8-172.64,487.04-163.19,497.42z"/>
		<path class="st0" d="M-148.76,338.6c4.06,3,7.05,6.71-0.18,6.17C-151.06,341.82-154.55,338.76-148.76,338.6z"/>
		<path class="st0" d="M-287.25,404.4c3.61,0.79,12.26-2.39,13.08,1.73C-277.28,405.36-291.73,408.77-287.25,404.4z"/>
		<path class="st0" d="M-94.21,423.79c-2.2,1.92-4.39,3.85-6.59,5.77C-106.11,425.37-98.33,421.94-94.21,423.79z"/>
		<path class="st0" d="M-103.03,426.77c3.68,3,0.44,4.15-2.22,6.37C-107.61,430.17-105.9,428.44-103.03,426.77z"/>
		<path class="st0" d="M-292.89,384.56c-1.31-0.85-2.43-2.33-3.9-2.73c-1.07-2.71-8.22-6.32-7.85-9.81
			C-300.91,376.33-296.19,379.81-292.89,384.56z"/>
		<path class="st0" d="M-74.57,401.25c-1.63,3.67-4.55,3.26-4.96,6.94C-81.35,406.03-79.59,399.34-74.57,401.25z"/>
		<path class="st0" d="M-322.82,337.97c1.39,2.45,4.45,3.97,5.75,6.39c-0.63,0.84,0.32,1.23,0.58,1.23c1.94,0.16,1.98,2.34,3.7,2.84
			C-314.96,343.82-318.45,340.48-322.82,337.97z M-316.63,344.78c0.01-0.06,0.05-0.13,0.12-0.09
			C-316.45,344.81-316.53,344.8-316.63,344.78z"/>
		<path class="st0" d="M-304.64,372.02c-1.79,1.07-7.71-6.35-7.83-8.07C-309.34,365.99-307.14,369.35-304.64,372.02z"/>
		<path class="st0" d="M-82.46,411.5c-2.61,4.55-3.15-3.36-0.04-4.4C-82.49,408.57-82.47,410.04-82.46,411.5z"/>
		<path class="st0" d="M-80.78,404.67c2.06,1.73,0.64,4.85-1.16,6.35C-81.86,408.71-82.91,406.29-80.78,404.67z"/>
		<path class="st0" d="M-173.78,350.63c-4.92-0.27-10.26-1.24-15.18-2.12C-184.01,348.12-178.63,349.3-173.78,350.63z"/>
		<path class="st0" d="M-94.21,423.79c-1.44-0.26-2.89-0.52-4.33-0.79C-97.8,421.11-90.08,421.59-94.21,423.79z"/>
		<path class="st0" d="M-86.33,415.99c1.06-1.89-3.19-0.33-4.31-0.57C-89.35,413.33-82.43,413.23-86.33,415.99z"/>
		<path class="st0" d="M-84.65,414.07c-5.53,1.37-3.83-2.79-2.61-0.54c1.87,0.32,1.99-0.8,2.33-2.58
			C-84.53,412.06-83.58,413.27-84.65,414.07z"/>
		<path class="st0" d="M-309.58,434.84c-0.72,1.98-0.4,4.66-1.96,6.14C-311.15,438.85-310.91,436.68-309.58,434.84z"/>
		<path class="st0" d="M-292.82,386.25c1.3,1.38,2.61,2.76,3.91,4.13C-290.67,389.69-292.24,388.01-292.82,386.25z"/>
		<path class="st0" d="M-295.87,413.74c0.42,2.39-1.48,1.99-2.88,3.18C-297.93,415.74-296.9,414.74-295.87,413.74z"/>
		<path class="st0" d="M-266.83,386.77c-0.74,2.29-1.87-2.7-2.41-3.74C-267.36,383.65-267.58,385.33-266.83,386.77z"/>
		<path class="st0" d="M-285.42,345.94c-1.32,0.4-1.64-1.18-1.97-2.19C-286,343.05-286.02,345.04-285.42,345.94z"/>
		<path class="st0" d="M-79.02,407.55c-0.2-1.88-0.04-2.96,2.12-2.68C-77.61,405.76-78.31,406.65-79.02,407.55z"/>
		<path class="st0" d="M-180.92,529.9c-0.63-1.32-1.26-2.64-1.89-3.95C-181.39,526.31-180.8,528.56-180.92,529.9z"/>
		<path class="st0" d="M-82.2,406.37c-0.17,1.63,0.94,3.92-0.26,5.14C-82.33,409.81-82.85,407.96-82.2,406.37z"/>
		<path class="st0" d="M-148.69,525.86c0.92,0.78,1.84,1.55,2.76,2.33C-147.23,528.08-148.79,526.77-148.69,525.86z"/>
		<path class="st0" d="M-285,349.19c-0.56-1.16-1.13-2.31-1.69-3.47C-284.88,345.79-285.42,347.87-285,349.19z"/>
		<path class="st0" d="M-145.81,528.29c0.66,0.53,1.32,1.05,1.98,1.58C-145.62,529.93-146.53,530.11-145.81,528.29z"/>
		<path class="st0" d="M-152.92,522.04c0.84,0.71,2.19,1.04,2.44,2.2C-151.32,523.54-153.01,523.77-152.92,522.04z"/>
		<path class="st0" d="M-142.11,531.39c0.76,0.62,1.51,1.24,2.27,1.87C-141.25,533.18-141.95,532.6-142.11,531.39z"/>
		<path class="st0" d="M-297.66,380.81c0.89-0.36,0.79,0.31,0.86,1.02C-297.08,381.49-297.37,381.15-297.66,380.81z"/>
		<path class="st0" d="M-162.21,498.37c-1.1,0.5-0.99-0.26-0.96-0.93C-162.85,497.75-162.53,498.06-162.21,498.37z"/>
		<path class="st0" d="M-161.26,499.4c-0.81,0.13-1.12-0.19-0.89-0.99C-161.85,498.74-161.56,499.07-161.26,499.4z"/>
		<path class="st0" d="M-65.02,379.82c0.15-0.56,0.3-1.11,0.45-1.67C-64.72,378.71-64.87,379.26-65.02,379.82z"/>
		<path class="st0" d="M-300.22,418.94c-0.18,0.22,0.4,0.96-0.48,0.69C-300.54,419.4-300.38,419.17-300.22,418.94z"/>
		<path class="st0" d="M-155.61,462.31c0.16-0.06,0.33-0.12,0.49-0.19C-155.28,462.19-155.45,462.25-155.61,462.31z"/>
		<path class="st0" d="M-267.32,387.73c-0.15,0.16-0.3,0.32-0.45,0.48C-267.63,388.05-267.47,387.89-267.32,387.73z"/>
		<path class="st0" d="M-139.6,533.53c0.12,0.09,0.23,0.19,0.35,0.28C-139.37,533.72-139.48,533.62-139.6,533.53z"/>
		<path class="st0" d="M-332.45,350.92c0.23-0.18,0.2,0.01,0.16,0.2C-332.34,351.06-332.39,350.99-332.45,350.92z"/>
		<path class="st0" d="M-64.77,365.62c-0.05-0.19-0.1-0.38-0.14-0.57C-64.87,365.24-64.82,365.43-64.77,365.62z"/>
		<path class="st0" d="M-235.41,368.1c-0.16,0.07-0.32,0.14-0.48,0.22C-235.73,368.24-235.57,368.17-235.41,368.1z"/>
		<path class="st0" d="M-111.29,437.74c-0.3,0.3-0.48,0.05-0.13-0.18C-111.38,437.61-111.33,437.67-111.29,437.74z"/>
		<path class="st0" d="M-86.56,416.18c0.07-0.06,0.13-0.11,0.2-0.17C-86.43,416.07-86.49,416.13-86.56,416.18z"/>
		<path class="st0" d="M-295.56,413.06c-0.05,0.06-0.11,0.13-0.16,0.19C-295.67,413.19-295.62,413.13-295.56,413.06z"/>
		<path class="st0" d="M-112.64,438.74c0.07-0.06,0.14-0.12,0.21-0.18C-112.5,438.62-112.57,438.68-112.64,438.74z"/>
		<path class="st0" d="M-79.62,408.32c-0.02-0.08,0.02-0.11,0.09-0.12C-79.52,408.26-79.55,408.31-79.62,408.32z"/>
		<path class="st0" d="M-65.18,381.08c0.02-0.08,0.04-0.15,0.07-0.23C-65.14,380.93-65.16,381-65.18,381.08z"/>
		<path class="st0" d="M-235.15,367.94c-0.08,0.05-0.16,0.1-0.24,0.14C-235.31,368.04-235.23,367.99-235.15,367.94z"/>
		<path class="st0" d="M-139.85,533.25c0.08,0.09,0.16,0.17,0.23,0.26C-139.69,533.42-139.77,533.34-139.85,533.25z"/>
		<path class="st0" d="M-129.34,449.91c0.05-0.05,0.1-0.08,0.17-0.09C-129.23,449.85-129.29,449.88-129.34,449.91z"/>
		<path class="st0" d="M-129.54,450.09c0.02-0.05,0.03,0.05,0.04,0.05L-129.54,450.09z"/>
		<path class="st0" d="M-333.14,349.92C-333.08,350.08-333.11,350-333.14,349.92C-333.07,350-332.94,350.04-333.14,349.92z"/>
		<path class="st0" d="M-192.91,467.02c-0.09-0.09-0.17-0.17-0.26-0.26C-193.09,466.85-193,466.94-192.91,467.02z"/>
		<path class="st0" d="M-192.56,467.26c-0.12-0.08-0.24-0.17-0.36-0.25C-192.81,467.09-192.68,467.18-192.56,467.26z"/>
		<path class="st0" d="M-74.36,400.98c-0.07,0.09-0.14,0.18-0.21,0.27C-74.73,401.19-74.43,400.87-74.36,400.98z"/>
		<path class="st0" d="M-200.83,515.16c0.02,0.08,0.04,0.16,0.06,0.25C-200.79,515.33-200.81,515.24-200.83,515.16z"/>
		<path class="st0" d="M-175.61,538.61c-0.05,0.28,0.17,0.75-0.21,0.74C-175.85,539-176.13,538.52-175.61,538.61z"/>
		<path class="st0" d="M-190.63,539.52c0.05-0.21,0.12-0.24,0.29-0.11C-190.38,539.62-190.45,539.64-190.63,539.52z"/>
		<path class="st0" d="M-90.06,405.63c-1.69-1.36-2.67-2.3-4.75-1.32c0.88-2.93-5.62-2.51-3.51,0.47c-1.88-0.08-1.7-1.11-2.59-2.2
			c-7.22-3.38-14.31,3.42-21.5,0.43c-3.19-4.05-8.53-3.63-13.38-5.24c-7.77-1.53-15.14-4.64-22.3-7.94
			c-4.22-1.26-4.37-5.73-7.08-8.52c-5.34-4.57-14.62-11.09-21.1-10.08c-19.92,8.18-4.07,3.66,2.88,15.34
			c18.39,24.26,49.43,27.04,77.43,23.05c8.81,0.63-2.13-3.59,5.05-4.92c2.95,0.36,2.09,3.82,1.26,5.5c1.21,1.04,1.03,2.13,0.26,3.3
			c3.44,0.67-0.02-2.31,2.69-3.69c1.21,2.93,1.41-1.15,3.4-1.72c0.7-0.4,0.72-0.53,0.1-1.49c-0.61,0.72-1.12,1.72-2.61,0.89
			c-0.15-3.31,4.96-3.8,4.98-0.31C-91.4,413.28-89.52,415.38-90.06,405.63z M-96.25,409c-0.54,0.06-1.62,0.28-1.59-0.52
			c1.15-1.51,0.13-3.24,0.44-4.81C-96.08,401.96-96.16,408.28-96.25,409z"/>
		<path class="st0" d="M-173.15,413.65c-15.7-2.13-31.63,1.05-47.43,0.86c-2.34-0.06-1.66-3.5-2.64-5.03
			c-1.11-1.93-3.18-2.64-3.32-5.21c11.65-1.54,25.08,4.5,35.72-0.02c-6.13,0.1-58.46-0.5-30.03-7.84c2.32-2.44-3.29-3.95-4.64-5.5
			c0.12-5.63,12.74-9.19-5.35-8.83c12.16,2.8-1.41,10.39-6.91,12.37c-8.1,2.11-16.2,2.34-2.51,5.6c-0.7,2.22-2.29,3.31-4.72,3.16
			c2.34,2.09,4.05,8.91,6.2,8.74c-1.51-2.4,4.17-4.49-0.17-3.72c0.24-1.95,1.49-1.65,3-1.54c3.17-3.55,7.08,4.36,7.99,7.11
			c1.14,1.27,1.69,1.84,0.25,3.5c-0.37,2.05,0.39,4.28,0.35,6.38c-2.58,2.52-0.67,2.92,1.99,1.9c0.18-1.17,0.82-1.6,2.03-1.55
			c5.29,0.71,3.01-5.02,4.59-7.78c16.18-1.33,32.65-3.84,48.76-1.15C-170.99,414.42-172.04,413.83-173.15,413.65z M-231.51,396.83
			c-4.25-5.47,8.36-5.86,10.33-0.93C-224.06,397.08-229.3,399.22-231.51,396.83z"/>
		<path class="st0" d="M-190.83,365.66c-6.58-0.66-17.59,0.9-21.39-4.86c-3.8,2.13-19.62,10.88-9.95,13.97
			c2.99-1.93,9.03-1.74,8.54,2.93C-209.68,381.56-165.39,362.63-190.83,365.66z M-198.55,370.8c-3.85,2.39-9.39,0.24-12.55,4.09
			c-2.39-0.62,1.29-2.71-0.85-3.41c-3.33-3.42-7.17-2.38-10.79-0.38c-1.88-2.58,3.92-3.64,5.05-5.67c2.46-3.48,6.03-3.94,6.75,1.11
			c1.26,6.57,10.42-1.48,15.18-0.43C-189.94,365.57-195.99,370.49-198.55,370.8z"/>
		<path class="st0" d="M-161.28,435.79c2.5,3,10.22,1.49,13.97,0.3c3.27,1.21,2.69,8.76,4.44,12.11c3.17,6.35-7.38,6.33-11.39,8.86
			c-3.96-3.03-6.56-9.73-10.11-13.92c-0.92-3.38-1.27-6.91-4.63-8.84c-3.42-1.79,4.4-3.54,4.7-0.34
			C-163.72,435.35-162.79,436.01-161.28,435.79z"/>
		<path class="st0" d="M-136.55,422.09c-8.06-9.09-33.02-7.1-19.79-1.95c0.64,4.99-16.97,5.43-18.19,11.53
			c1.9,4.95,8.48-2.78,10.24,2.29C-160.36,439.33-129.46,431.18-136.55,422.09z M-162.76,427.26c-12.37,1.07,6.83-2.73,7.42-6.05
			c-0.78-3.51-8-4.47,2.93-5.15c8.99,0.29-1.27,2.58-1.18,6.08c0.06,1.32-2.39,2.73-1.05,4.01
			C-156.94,425.5-160.2,427.6-162.76,427.26z M-143.76,428.42c-3.1,3.26-26.6,6.86-13.28,1.22c3.16-1.03,6.16-2.5,8.19-5.2
			c0.51-0.29,1.22,0.69,1.84,0.07C-143,421.87-138.83,425.76-143.76,428.42z M-137.97,423.28c-1.4,1.24-2.15-1.28-3.08-2.12
			C-139.6,420.53-136.29,421.43-137.97,423.28z"/>
		<path class="st0" d="M-103.49,410.62c-16.65,1.19-34.59,3.54-50.42,0.38c-2.84-1.67-5.35,1.62-5.54-2.28
			c-2.81,7.63-0.01-4.19-5.02-2.24c-1.33,1.21,0.2,2.76-0.93,4.36c-1.11,2.1,6.74,1.48,3.16,2.19c-5.53-1.15-2.48,12.46,4.64,6.66
			c-2.98-0.14-2.35-2.41-3.32-3.71c4.66,1.4,9.74-3.21,17.12,1.95C-134.26,412.72-105.82,417.06-103.49,410.62z M-162.72,419.72
			c-0.8,0.56-0.21-3.45-0.38-3.58C-162.3,415.58-162.89,419.6-162.72,419.72z M-160.77,419.15c-0.29,0.72,0.07-0.2,0.04-0.56
			C-160.21,418.66-160.57,418.88-160.77,419.15z M-160.7,417.63c-0.53,0.33-0.25-0.44-0.31-0.67
			C-160.9,417.18-160.8,417.41-160.7,417.63z M-156.39,413c-2.23-0.49-1.78,4.26-2.88,2.14C-161.55,410.97-153.27,411.62-156.39,413
			z"/>
		<path class="st0" d="M-218.46,441.48c-5.24-2.56-9-8.02-13.14-12.14c0.1-3.57-11.08-9.5-12.05-16.06
			c-1.95-5.8,1.85,2.62,3.28,3.54c0.07-2.35-1.79-4.38-1.65-6.74c5.61,6.64-4.31-9.99-6.16-12.79c-6.46-2.8,7.67,9.51,2.75,10.66
			c-2.03-0.57-3.91,2.59-6.17,1.61c-3.2-1.67-6.3-4.27-8.86-7.22c-4.28,0.48,6.83,11.95,8.91,8.67c1.82-0.49,2.97,2.19,4.29,3.17
			c-0.53,1.66,0.92,2.07,1.77,2.88c8.26,8.55,17.33,17.31,24.08,26.63C-221.48,443.39-217.96,441.92-218.46,441.48z M-243.14,408.14
			c0.36,0.63,0.72,1.26,1.08,1.89C-242.38,409.43-244.07,408.61-243.14,408.14z"/>
		<path class="st0" d="M-207.64,444.19c-0.73,1.23-5.32,2.31-5.58-0.16c-0.58-2.25-4.13-1.16-5.25-2.54
			c3.03-2.31,4.85-7.14,9.05-4.88c1.02,0.34,1.14-0.76,1.77-0.98V444.19z"/>
		<path class="st0" d="M-174.53,431.67c0.17,0.33,0.33,0.65,0.5,0.98c-11.87-6.94-26.17-2.96-38.14-5.78
			C-199.84,426.31-185.27,424.16-174.53,431.67z"/>
		<path class="st0" d="M-197.02,436.66c1.68,1.23,4.76-1.22,4.78,1.97c0.47,9.37-1.98,8.21-2.36-0.08c-1.51,10.44-1.91,7.9-3.2,0.23
			c0.38,10.12-3.05,5.72-1.98-1.7C-198.62,436.41-197.42,437.96-197.02,436.66z"/>
		<path class="st0" d="M-199.78,437.08c0.69,2.43-1.81,8.7,1.83,8.31c1.18-12.22-1.21,0.32,2.76-0.09c0.33-2.21-0.74-4.95,0.59-6.74
			c1.76,1.97-1.58,7.55,2.35,6.76c-0.65-2.48,1.69-8.03-1.68-8.5c0.29-0.62,0.61-1.02,1.33-0.43c3.28,1.24-2.35,10.88,4.17,8.74
			c-0.55,2.02-3.84,0.41-2.92,2.53c-2.44,3.04-6.15-1.15-10.2-2.23C-198.16,444.55-203.32,436.49-199.78,437.08z"/>
		<path class="st0" d="M-191.17,448.36c-1.41-2.95,1.82-1.06,2.75-3.23c-4.85,2.93-4.29-10.42-1.33-8.06c0.12,1.27-0.59,7.93,1,5.5
			C-189.32,425.07-181.89,451.97-191.17,448.36z"/>
		<path class="st0" d="M-249.71,393.41c-0.35-3.91,11.79-5.35,11.69-1.04C-241.58,391.98-248.73,398.16-249.71,393.41z"/>
		<path class="st0" d="M-200.61,439.97c0.13-8.19-10.19,2.09-1.85-1.28c-2.01,2.51-5.71,6.59,0,6.65
			C-199.32,446.25-200.87,441.75-200.61,439.97z M-202.5,442.96c-0.33,0.82-0.96,0.57-0.95-0.24
			C-203.02,441.34-202.14,441.49-202.5,442.96z"/>
		<path class="st0" d="M-98.76,408.35c0.73-3.25-3.48-5.23-4.75-1.85c0.27,3.17,2.94,0.13,0.03,4.12c-1.9,4.58,7.75,3.49,3.84-0.4
			C-99.83,409.76-98.95,408.8-98.76,408.35z M-100.42,411.23c-1.44,1.51-1.08-1.31-0.47-2.13
			C-99.96,409.16-100.49,410.56-100.42,411.23z M-101.01,406.86c0.22,0.32,0.44,0.63,0.81,1.16
			C-101.59,408.2-101.41,407.6-101.01,406.86z"/>
		<path class="st0" d="M-249.71,386.17c-1-5.69,10.96-8.44,9.76-3.42C-243.43,383.68-246.44,384.39-249.71,386.17z"/>
		<path class="st0" d="M-211.87,429.23c-1.72-5.8-21.29-3.56-11.07-1.87c-0.36,0.11-0.78,0.24-1.18,0.36
			c4.44-0.11,9.07-0.39,12.55,3.01C-211.68,430.24-211.78,429.73-211.87,429.23z M-220.48,427.39h-1.42
			C-221.91,427.28-220.36,427.2-220.48,427.39z"/>
		<path class="st0" d="M-222.18,374.76c2.99-1.93,9.03-1.74,8.54,2.93C-215.64,376.12-226.22,376.57-222.18,374.76z"/>
		<path class="st0" d="M-207.64,444.19c0-2.86,0-5.72,0-8.58C-203.93,431.15-205.54,450.1-207.64,444.19z"/>
		<path class="st0" d="M-202.3,376.16c4.17-6.85,5.73,9.56-0.05,3.29C-203.11,377.19-197.34,375.64-202.3,376.16z"/>
		<path class="st0" d="M-215.41,380.12c-4.99-1.85-11.13-0.85-15.7-3.03C-225.67,377.1-220.34,377.59-215.41,380.12z"/>
		<path class="st0" d="M-214.06,426.81c-11.7-1.79-4.55-5.04,1.49-0.29C-213.07,426.61-213.56,426.71-214.06,426.81z"/>
		<path class="st0" d="M-156.33,420.14c1.35,2.21-3.05,3.97-4.17,2.64C-160.15,421.79-158.52,420.86-156.33,420.14z"/>
		<path class="st0" d="M-205.72,444.91c0.11-3.11-0.29-6.29,0.2-9.36c0.24,1.2,0.43,1.27,1.6,0.75c0.52-0.23,1.17-0.61,1.41,0.37
			c-1.76,0.32-3.11,0.46-2.84,2.71c1.54,1.02,3.94-2.55,2.12,0.71C-205.83,440.97-205.04,443.51-205.72,444.91z"/>
		<path class="st0" d="M-188.75,437.07c-0.23,2.1,0.62,4.56-0.49,6.41C-189.89,442.06-190.65,436.97-188.75,437.07z"/>
		<path class="st0" d="M-187.78,370.71c1.93-1.09,3.74-2.33,4.86-4.34C-183.24,371.54-183.42,369.32-187.78,370.71z"/>
		<path class="st0" d="M-142.05,452.06c1.12-1.23,1.25,3.12,1.6,4.1C-141.26,454.88-141.87,453.57-142.05,452.06z"/>
		<path class="st0" d="M-211.37,432.64c0.19-1.43-1.48-3.7,0.71-3.68C-210.71,430.3-210.19,431.6-211.37,432.64z"/>
		<path class="st0" d="M-249.32,395.04c2.59,0.89-2.14,2.94-2.31,1.57C-250.86,396.09-250.09,395.57-249.32,395.04z"/>
		<path class="st0" d="M-205.54,434.96c-0.61-0.09-2.52,0.62-1.91-0.36C-206.53,433.82-205.69,433.24-205.54,434.96z"/>
		<path class="st0" d="M-249.71,393.41c0.61,2.93-0.93,0.07-1.2-1.22C-250.5,392.24-250.12,393.08-249.71,393.41z"/>
		<path class="st0" d="M-190.24,436.66c-1.14,0.17-0.94-0.19-0.49-1.03C-190.57,435.97-190.4,436.32-190.24,436.66z"/>
		<path class="st0" d="M-197.02,436.66c-0.26,0.63-0.57,1.03-1.08,0.18C-197.74,436.78-197.38,436.72-197.02,436.66z"/>
		<path class="st0" d="M-188.48,436.13c0.34,0.08,1.07-0.18,1.17,0.13C-187.66,436.18-188.38,436.44-188.48,436.13z"/>
		<path class="st0" d="M-201.32,437.11c-0.26-0.15-0.52-0.3-0.79-0.46C-201.84,436.81-201.58,436.96-201.32,437.11z"/>
		<path class="st0" d="M-176.58,433.08c-0.03,0.18-0.17,0.25-0.29,0.11C-176.88,433.01-176.73,432.97-176.58,433.08z"/>
		<path class="st0" d="M-188.01,436.81c-0.24,0.02-0.48,0.05-0.72,0.07C-188.49,436.86-188.25,436.83-188.01,436.81z"/>
		<path class="st0" d="M-212.58,426.52c0.03,0.02,0.07,0.03,0.1,0.05C-212.51,426.56-212.54,426.52-212.58,426.52z"/>
		<path class="st0" d="M-92.23,381.37c-7.68-8.03-16.58,3.41-25.26,2.56c-4.01,0.79-8.22,4.3-10.62,7.48
			c-1.12,3.42,2.58,5.36,2.84,8.6c4.23,7,13.8,3.09,19.25-0.28c3.35-2.74,3.65-7.98,8.15-9.65
			C-94.15,389.02-89.12,385.43-92.23,381.37z M-107.63,397.79c-1.59,1.97-3.6,1.29-5.62,1.53c-1.67-0.62-2.43,1.18-3.83,1.38
			c-1.7-0.29-3.64-0.08-4.71-1.98c-1.83-1.24-3.63-2.65-1.03-4.36c-6.22-1.94-4.06-4.79,0.69-7.4c3.46-1.71,7.63-0.72,10.98,0.88
			c-0.74,2.64-1.09,5.93-1.4,8.89C-113.49,401.72-102.85,389.47-107.63,397.79z M-93.71,383.78c-1.59-1.4-3.11-2.74-4.77-4.2
			C-95.75,378.58-92.33,380.66-93.71,383.78z"/>
		<path class="st0" d="M-136.81,350.65c-2.13-1.8,1.43-3.59-0.97-5.29c-6.57-2.86-14.69,0.66-21.67,1.52
			c2.67,2.49-6.85,15.68,2.2,11.16C-148.87,356.04-143.93,354.23-136.81,350.65z M-146.55,346.82c-3.44,0.92-6.84,1.89-10.35,2.55
			c4.01-3.34,10.99-5.45,16.2-4.02C-142.67,345.79-144.61,346.3-146.55,346.82z M-161.75,347.32c-1.23,2.17-23.58,11.4-16.69,5.57
			c-11.49,7.53,20.94,3.23,19-6.01C-160.21,347.03-160.98,347.17-161.75,347.32z"/>
		<path class="st0" d="M-128.11,391.42c5.09,13.24-25.55-1.98-30.65-5.61c-2.16-9.77-19.32-13.33-22.21-17.19
			c7.92-1.16,15.35,7.74,23.49,8.98c6.56,3.7,14.47,7.96,22.21,10.36C-131.34,388.14-132.42,391.19-128.11,391.42z"/>
		<path class="st0" d="M-103.5,396.34c3.24-8.28,11.74-8.29,19.21-6.68c2.82,1.08,12.84-0.95,10.91,2.72
			C-85.1,392.6-94.28,387.45-103.5,396.34z"/>
		<path class="st0" d="M-126.82,376.33c-2.52,0.59-1.78-1.8,0.17-2.01c2.77,0.21,1.43,4.27,1.73,6.09
			C-128.5,381.51-129.81,378.31-126.82,376.33z"/>
		<path class="st0" d="M-73.6,392.4c2.18,2.09-7.62,13.38-10.06,12.29C-80.1,401.81-76.08,397.6-73.6,392.4z"/>
		<path class="st0" d="M-175.42,352.38c-0.33,0.15-0.64,0.36-0.96,0.56C-176.06,352.74-175.75,352.53-175.42,352.38z"/>
		<path class="st0" d="M-177.95,352.5c-0.16,0.12-0.32,0.24-0.48,0.37C-178.27,352.74-178.11,352.62-177.95,352.5z"/>
		<path class="st0" d="M-127.48,390.19c-0.13,0.21-0.25,0.41-0.38,0.62C-127.73,390.6-127.61,390.39-127.48,390.19z"/>
		<path class="st0" d="M-258.72,470.95c-11.53-16.99-40.72-2.06-52.33-16.93c4.47-2.01,16.77,7.54,25.07,5.88
			C-279.56,459.26-252.89,464.67-258.72,470.95z"/>
		<path class="st0" d="M-258.72,470.95c8.58-1.39,16.52-7.67,24.99-8.07c-12.67,5.53-29.38,13.5-42.3,10.13
			c2.93-0.43,5.72,0.02,8.77-0.57c0.77-0.09,1.76,0.4,2.12-0.81C-263.12,471.2-260.83,471.22-258.72,470.95z"/>
		<path class="st0" d="M-276.68,472.76c-2.77,0.42-4.75,0.07-6.57-1.69c-4.66-4.04-11.42-2.41-17.04-3.36
			C-302.29,463.83-279.19,466.54-276.68,472.76z"/>
		<path class="st0" d="M-291.39,473.23c-0.18-0.14-0.37-0.29-0.55-0.43C-291.75,472.94-291.57,473.08-291.39,473.23z"/>
		<path class="st0" d="M-290.13,473.23c-0.1,0-0.19,0.01-0.29,0.01C-290.33,473.24-290.23,473.24-290.13,473.23z"/>
		<path class="st0" d="M-266.32,413.86c-2.91-5.18-8.82-1.28-13.22-2.01c-4.72-4.74-8.62,2.77-10.32,6.6
			c3.71-1.52,4.75-10.96,7.43-3.15c-2.13,3.08-11.55,12.38-7.48,3.35c-12.71,9.35,0.44,19.28,10.87,11.54
			c0.22-0.87,0.82-1.05,1.61-0.93c0.43-1.12,1.21-1.36,2.28-1.55c0.61-2.2,3.95-2.55,4.38-4.43c-0.12-1.09,0.95-0.72,1.54-1.13
			C-268.75,420.09-264.76,416.87-266.32,413.86z M-287.58,422.65c1.94-3.7,5.49-5,7.18-8.73
			C-277.89,418.69-283.74,421.88-287.58,422.65z M-277.68,424.59c-0.01,3.11-3.36,2.87-5.95,3.99
			C-289.79,428.57-277.34,420.45-277.68,424.59z M-272.25,419.66c-1.95,6.1-9.71,4.91-1.04-2.71
			C-272.9,408.5-270.31,414.89-272.25,419.66z"/>
		<path class="st0" d="M-233.27,444.36c-5.55-6.02-32.43-30.09-11.01-13.64c-4.31-3.46-12.23-14.24-14.84-14.18
			c1.6,3.62-2.29,0.78-3.05-0.8c-0.26,2.95-0.82,4.21-2.94,6.86c-0.98,0.9-2.52,1.06-3.63,1.38c-0.33,1.1-2.22,0.16-1.91,0.87
			c-2.72,1.81-15.06,8.59-5.86,6.12c5.24-0.06,10.18-0.09,15.03,0.75c12.45,7.49,1.26,3.6-5.78,4.69c-2.59,0.03-5.36-0.12-7.87,0.35
			c2.51,1.53,7.33,1.09,10.61,1.75c6.7-0.02,14.05,3.09,17.36-4.07c-2.7,0.45-4.47-1.33-6.51-2.58c-1.9-1.55-5.02-0.96-6.27-3.32
			c0.8-0.28,1.8-0.35,1.03-1.42c-0.38-8.6,8.77,1.68,11.19,4.2C-244.59,434.99-226.74,453.02-233.27,444.36z M-256.4,423.28
			c0.13-0.17,0.22,0.16,0.33,0.26C-256.18,423.45-256.29,423.36-256.4,423.28z"/>
		<path class="st0" d="M-245.9,449.11c-2.66-0.39-4.58-2.09-6.68-2.11c-0.62-0.84-1.34-1.46-2.51-1.34
			c-5.1,1.17-9.77-1.48-14.65-1.48c-4.61,1.68-0.43-6.16-4.38-5.88c-2.94,0.26-1.45,3.57-2.43,5.09c-3.81,0.26-8.02-1.8-11.75-1.6
			c-1.37,0.1-2.8,0.78-3.71-1.19c-0.22,2.38-3.2,0.63-3.56,2.36c16.92,8.16,36.66,7.11,54.75,6.42
			C-242.5,449.3-244.21,449.28-245.9,449.11z M-249.38,449.05c-0.14-0.02-0.05-0.07,0.02-0.13
			C-249.29,448.98-249.3,449.01-249.38,449.05z M-248.55,449.33c-0.04,0.02-0.12-0.07-0.24-0.14
			C-248.53,449.16-248.32,449.1-248.55,449.33z"/>
		<path class="st0" d="M-258.57,407.41c0.02,0.18,0.19,0.42-0.01,0.54c1.4,1.13,6.83,4.02,3.58,5.76c6,3.88,10.07,10.16,15.38,14.94
			c1.25,1.07,17.31,17.43,12.81,15.05l0,0c-8.08-3.1-14.28-12.92-21.55-18.84c-4-4.31-9.82-6.15-8.1-11.77
			c-6.61-8.72-16.8-13.77-22.71-23.11c6.76,3.13,12.92,10.18,17.71,14.93c0,0,0.03,0.02,0.03,0.02
			C-260.02,405.43-259.73,407.26-258.57,407.41z"/>
		<path class="st0" d="M-244.18,435.16c-3.16,3.05-7.23,5.93-7.47,10.73c-3.14-4.24,2.37-8.4,4.48-11.44
			c-2.7,0.45-4.47-1.33-6.51-2.58c-3.24-2.2-7.07-0.9-5.23-4.73C-258.39,417.31-247.2,432.44-244.18,435.16z"/>
		<path class="st0" d="M-254.54,413.5c0.55-1.22,1.77-2.2,3.05-2.34c1.23-1.15,3.09,2.21,4.21,3.01c2.25,5.53,9.61,9.16,13.01,14.62
			c1.12,2.93,17.16,15.23,11.26,15.63c-0.93-5.54-10.14-10.45-14.01-15.51C-243.08,424.6-247.78,415.51-254.54,413.5z"/>
		<path class="st0" d="M-230.49,447.41c-6.38-8.17-17.89-15.62-22.53-23.45c8.18,5.77,14.33,13.51,22,19.32
			c-0.12,1.14,0.37,1.67,1.52,1.66c0.24,0.25,0.48,0.5,0.73,0.74C-227.1,446.7-229.63,446.83-230.49,447.41z"/>
		<path class="st0" d="M-231.71,447.88c-6.31,3.96-6.81-5.94-9.86-9.77C-238.11,440.75-234.5,444.43-231.71,447.88z"/>
		<path class="st0" d="M-234.97,439.56c-3.38-1.92-6.42-5.68-9.06-8.59C-240.7,433.6-237.13,435.8-234.97,439.56z"/>
		<path class="st0" d="M-231.05,443.25c-1.51-0.92-3.43-1.85-3.9-3.67C-233.07,439.74-232.29,442.01-231.05,443.25z"/>
		<path class="st0" d="M-229.52,444.92c-1.15,0.04-1.62-0.54-1.51-1.65C-229.99,443.34-229.83,444.2-229.52,444.92z"/>
		<path class="st0" d="M-228.78,445.67c-0.24-0.24-0.48-0.49-0.72-0.73C-229.26,445.18-229.02,445.42-228.78,445.67z"/>
		<path class="st0" d="M-228.02,446.37c-0.25-0.23-0.5-0.46-0.76-0.7C-228.52,445.91-228.27,446.14-228.02,446.37z"/>
		<path class="st0" d="M-226.81,443.7c-0.08,0.49-0.39,0.33-0.48-0.01C-227.13,443.7-226.97,443.7-226.81,443.7L-226.81,443.7z"/>
		<path class="st0" d="M-202.45,445.34c0.15,0.02,0.29,0.04,0.44,0.06C-202.16,445.38-202.3,445.36-202.45,445.34z"/>
		<path class="st0" d="M-251.53,446.55c0.07,0.09,0.14,0.18,0.21,0.27C-251.38,446.73-251.46,446.64-251.53,446.55z"/>
		<path class="st0" d="M-122.96,356.43c4.13-5.7,46.46-10.82,31.02,2.12c-5.01,2.54-10.97,2.24-15.66,5.36
			c-4.18,3.08-9.76,7.34-15.35,6.37c0,0,0.01,0.01,0.01,0.01c-2.91-1.52-3.28-3.54-1.94-6.38
			C-122.55,361.73-126.44,358.61-122.96,356.43z"/>
		<path class="st0" d="M-89.52,344.3c-5.17,0.94,1.42-4.7,1.22,0.09C-86.18,351.61-95.66,347.98-89.52,344.3z"/>
		<path class="st0" d="M-108.26,364.78c2.43-3.12,6.96-3.24,10.58-4.11C-100.63,363.11-104.4,364.83-108.26,364.78z"/>
		<path class="st0" d="M-88.53,355.56c-0.39-1.37,0.57-3.98,0.91-1.3C-87.66,354.89-87.45,355.67-88.53,355.56z"/>
		<path class="st0" d="M-175.11,549.89c-6.46-17.07-14.61-30.65-23.44-43.81c-3.61,5.09,5.34,14.35,7.72,22.08
			c1.42,0.42,2.96,5.66,4.6,8.02c0.1-0.35,0.16-0.57,0.25-0.9C-183.1,539.82-172.21,564.63-175.11,549.89z M-192.57,516.95
			c0.01-0.06,0.02-0.11,0.02-0.17C-192.5,516.85-192.5,516.9-192.57,516.95z"/>
		<path class="st0" d="M-198.55,506.08c0.66,3.93-6.11,1.56-2.61-1.5c-0.36-0.31-1.08-0.82-1.03-0.92
			C-200.35,500.02-198.12,503.37-198.55,506.08z"/>
		<path class="st0" d="M-193.91,514.17c-0.34-2.68,1.52,0.47,1.06,1.11C-193.21,514.91-193.58,514.52-193.91,514.17z"/>
		<path class="st0" d="M-209.72,483.54c-0.18,0.11-0.25,0.08-0.29-0.13C-209.82,483.3-209.76,483.34-209.72,483.54z"/>
		<path class="st0" d="M-203.98,488.19c-0.13,0.28-0.27,0.38-0.42,0.11C-204.37,488.02-204.21,487.99-203.98,488.19z"/>
		<path class="st0" d="M-124.89,363.91c-1.34,2.84-0.97,4.86,1.94,6.38C-156.28,363.31-157.26,347.74-124.89,363.91z"/>
		<path class="st0" d="M-124.72,358.64c0.08,0.77,0.16,1.55,0.24,2.32c-4.67-2.58-12.17-2.71-17.35-6.02
			C-136.77,352.32-130.59,358.78-124.72,358.64z"/>
		<path class="st0" d="M-77.67,400.94c0.6-1.36,2.55-1.26,3.25-0.01C-75.26,401.48-76.63,400.85-77.67,400.94z"/>
		<path class="st0" d="M-65.49,381.85c-0.22-0.27-0.69-0.52-0.18-0.67C-65.6,381.41-65.57,381.65-65.49,381.85z"/>
		<path class="st0" d="M-279.17,389.98c4.35,6.62,11.17,12.08,17.16,16.78c10.64,10.2,3.6,11.76-3.55,1.81
			c-12.27-16.11-36.57-30.75-44.04-47.6C-300.39,371.04-289.59,381.07-279.17,389.98z"/>
		<path class="st0" d="M-270.89,403.27c6.76,6.63,1.78,5.63-2.85,0.93c-8.82-9.6-20.91-21.42-30.9-32.18c0,0-0.01,0-0.01,0
			C-325.03,346.88-278.84,396.13-270.89,403.27z"/>
		<path class="st0" d="M-292.85,377.16c-5.7-5.39-12.09-10.17-16.48-16.45c7.71,4.6,17.54,14.45,24.64,22.15
			c-1.61-0.71-2.55-2.37-4.31-2.22c-0.82-0.99-1.29-2.33-2.89-2.5C-292.21,377.81-292.53,377.48-292.85,377.16z"/>
		<path class="st0" d="M-309.33,360.71c0.54,1.86,2.92,2.48,3.21,4.18C-307.29,364.74-310.23,362.04-309.33,360.71z"/>
		<path class="st0" d="M-328.48,339.16c0.2,0.13,0.67,0.12,0.5,0.41C-328.19,339.45-328.67,339.47-328.48,339.16z"/>
		<path class="st0" d="M-316.43,349.43c0.28,0.11,0.82,0.06,0.51,0.43C-316.1,349.72-316.25,349.55-316.43,349.43z"/>
		<path class="st0" d="M-333.95,337.96c-0.11-0.02-0.09-0.06-0.05-0.14C-333.9,337.83-333.92,337.88-333.95,337.96z"/>
		<path class="st0" d="M-315.45,349.18c0.1,0.03,0.21,0.06,0.31,0.08C-315.24,349.24-315.34,349.2-315.45,349.18z"/>
		<path class="st0" d="M-320.84,358.51c0.11,0.06,0.41,0.04,0.26,0.19C-320.66,358.63-320.77,358.58-320.84,358.51z"/>
		<path class="st0" d="M-322.17,342.38c-0.11-0.02-0.09-0.06-0.05-0.14C-322.11,342.25-322.13,342.3-322.17,342.38z"/>
		<path class="st0" d="M-318.64,357.04c0.03,0.03,0.07,0.07,0.1,0.1C-318.61,357.15-318.61,357.05-318.64,357.04z"/>
		<path class="st0" d="M-315.44,349.18c-0.03-0.02-0.07-0.04-0.1-0.06C-315.51,349.14-315.48,349.18-315.44,349.18z"/>
		<path class="st0" d="M-268.21,372c-0.05-0.06-0.09-0.12-0.13-0.19C-268.29,371.88-268.26,371.94-268.21,372z"/>
		<path class="st0" d="M-267.86,372.47c-0.04-0.05-0.09-0.1-0.12-0.16C-267.94,372.37-267.9,372.42-267.86,372.47z"/>
		<path class="st0" d="M-267.13,373.34c-0.03-0.03-0.05-0.05-0.07-0.08C-267.17,373.29-267.15,373.32-267.13,373.34z"/>
		<path class="st0" d="M-250.36,409.12c-7.63-9.39-12.62-23.4-18.64-34.12c2.24-4.51,5.59,6.76,7.48,9.66
			C-256.91,393.12-251.59,399.78-250.36,409.12z"/>
		<path class="st0" d="M-249.32,395.05c-1,0.45-1.93,1.97-3.04,1.27c-0.2-0.44,0.51-1.37-0.69-1.26
			c-1.96-6.2-10.97-16.91-9.41-20.87C-257.14,377.86-253.63,391.3-249.32,395.05z"/>
		<path class="st0" d="M-246.29,407.43c-2.33,2.86-2.01-1.46-3.09-2.97c-0.66-2.35-4.1-4.92-3.09-7.01
			c-5.88-6.7-8.1-15.68-12.79-23.24C-256.75,382.49-253.27,397.39-246.29,407.43z"/>
		<path class="st0" d="M-258.71,400.26c-2.71,0.64-2.33-5.8-4.51-7.38c-1.32-0.4-0.01-2.2-1.41-2.96
			c-2.54-6.22-6.64-12.28-9.31-19.06c2.91,2.87,6.06,3.79,5.75,8.45C-265.57,386.5-261.95,393.33-258.71,400.26z"/>
		<path class="st0" d="M-288.67,321.44c0,0.01-0.01,0.01-0.01,0C-288.68,321.43-288.68,321.44-288.67,321.44z"/>
		<path class="st0" d="M-301.44,319.71c-0.11-0.22-0.18-0.47-0.28-0.71C-301.31,318.81-301.52,319.43-301.44,319.71z"/>
		<path class="st0" d="M-291.54,317.69c-0.03,0.11-0.06,0.21-0.09,0.31C-291.61,317.9-291.56,317.79-291.54,317.69z"/>
		<path class="st0" d="M-300.95,318.24c-0.07-0.07-0.12-0.17-0.19-0.26C-301.08,318.08-301.02,318.16-300.95,318.24z"/>
		<path class="st0" d="M-287.02,334.95c-0.09,0.03-0.17,0.04-0.11-0.07C-287.08,334.83-287.04,334.89-287.02,334.95z"/>
		<path class="st0" d="M-103.03,426.77c-6.2,4.3-12.13,9.17-18.75,12.79c1.18-5.57-6.67-8.93-10.69-11.05
			c1.86-3.42,0.85-6.41,1.45-9.93c9.93-6.01,26.98-2.54,39.33-4.01c-2.91,1.24-5.44,6.93-7.98,6.2c-6.16-1.3-20.47,0.93-8.35,6.9
			c7.86-2.66,0.1-2.99-3.44-5.56c3.92-1.49,7.53-1.12,11.15,0.06C-101.61,423.67-103.57,424.4-103.03,426.77z"/>
		<path class="st0" d="M-128.32,443.97c-17.06,11.65-11.73,6.91-16.81-8.55c5.48-1.07,10.08-8.14,14.75-2.34
			c6.51,5.18,1.79,3.81,2.43,7.63C-127.91,441.79-129.2,442.85-128.32,443.97z"/>
		<path class="st0" d="M-79.56,402.14c-1.96,0.96-2.18,3.57-4.54,2.58c-1.27,1.53-2.55-0.79-4.16,0.37
			c-3.62-0.61-0.71,8.74-2.45,7.95c0.92-17.73-9.62-1.12-2.47-6.42c1.27,1.93-2.62,2.44-2.63,4.63c-1.06-2.79-3.06,0.39-1.59,2.3
			c4.4,0.44,9.93-1.7,2.67,3.54C-116.01,437.16-82.04,410.81-79.56,402.14z M-92.77,411.16c-0.24,0.6-0.91,0.22-0.92-0.2
			C-93.15,408.72-92.18,408.89-92.77,411.16z M-87.82,410.65c-0.93-1.34-0.04-2.64-0.12-3.91C-87.02,407.73-87,409.58-87.82,410.65z
			"/>
		<path class="st0" d="M-128.32,443.97c-0.88-1.12,0.41-2.18,0.36-3.27c-0.68-1.67-0.33-2.3,1.54-2.61c4.02,3.4-0.48,4.02-0.5,5.83
			C-127.38,443.94-127.85,443.96-128.32,443.97z"/>
		<path class="st0" d="M-147.72,433.66c1.22-0.75,1.45-0.14,1.76,1.04C-146.67,435.41-147.14,434.06-147.72,433.66z"/>
		<path class="st0" d="M-124.96,440.05c-0.15-0.34-0.3-0.68-0.45-1.02C-125.26,439.37-125.11,439.71-124.96,440.05z"/>
		<path class="st0" d="M-142.36,526.19c0.01,0.01,0.01,0.01,0.01,0.01C-142.35,526.19-142.35,526.19-142.36,526.19z M-142.45,525.93
			c0.85-4.51-65.12-72.36-57.88-52.97c0.27,0.87,9.43,9.38,7.18,5.84c-12.14-15.33,19.64,14.11,22.42,16.11
			c0.77,2.7,15.07,14.05,12.23,16.1c-8.08-5.05-14.32-14.08-22.43-19.4c11.81,12.6,24.88,24.55,38.57,34.57
			C-142.39,526.1-142.42,526.01-142.45,525.93z M-200.67,470.31c-0.06-0.07-0.06-0.13,0.02-0.18
			C-200.6,470.19-200.6,470.25-200.67,470.31z M-161,509.64l-0.17-0.22C-160.96,509.23-160.73,509.52-161,509.64z"/>
		<path class="st0" d="M-142.36,526.2c-11.5-20.14-33.59-34.56-48.62-52.54c0,0,0,0.01,0,0.01c14.06,10.52,36.09,33.7,49.93,50.41
			c1.02-1.73,3.08,4,4.5,4.91c1.35,1.04,1.78,2.41,1.96,4.08C-138.63,533.21-150.86,518.88-142.36,526.2z"/>
		<path class="st0" d="M-194.78,470.47c-2.94-2.99-7.29-3.13-10.15-6.45c-2.57,0.17-2.27,1.06-0.48,3c2.2,0.84,2.29,4.99,5.08,5.94
			c-0.11-0.29-0.09-0.66-0.31-0.88c0.02,0.01,0.05,0.01,0.06,0.02C-204.78,463.39-188.27,477.71-194.78,470.47z M-202.2,469.62
			c-0.13-0.16-0.26-0.33-0.4-0.48C-202.52,469.26-202.02,469.48-202.2,469.62z"/>
		<path class="st0" d="M-198.84,474.66c0.26,0.31,0.52,0.62,0.77,0.93C-198.33,475.28-198.59,474.97-198.84,474.66z"/>
		<path class="st0" d="M-199.6,473.95c0.59-0.12,0.84,0.12,0.75,0.71C-199.1,474.42-199.35,474.18-199.6,473.95z"/>
		<path class="st0" d="M-198.06,475.6c0.24,0.25,0.48,0.49,0.72,0.74C-197.58,476.1-197.82,475.85-198.06,475.6z"/>
		<path class="st0" d="M-206.43,460.4c0.03,0.04,0.07,0.08,0.1,0.12C-206.4,460.52-206.44,460.45-206.43,460.4z"/>
		<path class="st0" d="M-262.46,417.73c0.55,0.95,0.47,1.22-0.66,1c-0.56,1.37-0.62,3.06-2,3.87c-3.91,2.06-8.16,3.55-3.14-1.72
			C-266.86,418.27-265.47,415.16-262.46,417.73z"/>
		<path class="st0" d="M-259.41,415.7c2.7,6.99-5.32-2.27-6.03-4.31C-265.04,408.79-260.66,414.71-259.41,415.7z"/>
		<path class="st0" d="M-263.48,414.04c-6-6.5,3.97,0.25-2.09-5.46c-4.96-0.68,0.79,6.25,3.2,7.09
			C-262.74,415.12-263.04,414.52-263.48,414.04z M-265.92,410.18c-0.36-0.11-0.81-0.22-0.49-0.63
			C-266.04,409.7-265.48,409.8-265.92,410.18z"/>
		<path class="st0" d="M-272.99,404.96c2.07,0.29,3.12,3.01,4.92,4.11C-269.52,410.3-271.96,406.12-272.99,404.96z"/>
		<path class="st0" d="M-263.18,417.21c-1.12-0.1-2.56-1.36-3.15,0.43C-266.39,413.48-265.14,414.38-263.18,417.21z"/>
		<path class="st0" d="M-280.33,397.81c1.58,0.26,2.92,1.55,3.24,3.11C-278.2,399.91-279.36,398.96-280.33,397.81z"/>
		<path class="st0" d="M-276.91,401c0.66,0.79,2.72,1.26,2.22,2.41C-275.84,403.23-276.72,402.27-276.91,401z"/>
		<path class="st0" d="M-274.66,403.44c0.55-0.04,1.06-0.03,0.92,0.76C-274.25,404.19-274.77,404.2-274.66,403.44z"/>
		<path class="st0" d="M-161.88,347.48c-5.79,2.03-1.78-1.96-3.24-3.75C-162.39,340.4-161.34,345.29-161.88,347.48z"/>
		<path class="st0" d="M-149.72,523.99c-0.17-0.16-0.32-0.34-0.5-0.49C-150.04,523.66-149.89,523.84-149.72,523.99z"/>
		<path class="st0" d="M-149.72,523.99c0.04,0.03,0.07,0.07,0.11,0.1C-149.69,524.1-149.69,524.02-149.72,523.99z"/>
		<path class="st0" d="M-295.31,331.75c-0.25-0.39-0.5-0.82-0.74-1.23C-295.44,330.66-295.45,331.23-295.31,331.75z"/>
		<path class="st0" d="M-297.01,320.69c-0.43,0.3-0.42-0.47-0.63-0.78C-297.23,319.65-297.22,320.41-297.01,320.69z"/>
		<path class="st0" d="M-300.1,325.98c-0.38,0.11-0.23-0.4-0.33-0.67C-299.98,325.22-300.14,325.66-300.1,325.98z"/>
		<path class="st0" d="M-288.67,321.44c0,0.01-0.01,0.01-0.01,0C-288.68,321.43-288.68,321.44-288.67,321.44z"/>
		<path class="st0" d="M-286.51,327.25c-0.14,0.25-0.29,0.26-0.4,0.02C-286.87,326.95-286.71,327.04-286.51,327.25z"/>
		<path class="st0" d="M-299.6,326.53c-0.03,0.17-0.16,0.24-0.27,0.1C-299.87,326.46-299.74,326.42-299.6,326.53z"/>
		<path class="st0" d="M-294.57,320.7c-0.08,0-0.17-0.01-0.25,0.01C-294.95,319.89-294.61,319.93-294.57,320.7z"/>
		<path class="st0" d="M-300.52,314.28c0,0.06-0.03,0.14-0.1,0.11C-300.71,314.3-300.59,314.29-300.52,314.28z"/>
		<path class="st0" d="M-294.63,316.31c-0.14,0.15-0.13-0.15-0.19-0.27C-294.75,316.1-294.69,316.22-294.63,316.31z"/>
		<path class="st0" d="M-299.48,324.13c-0.07-0.03-0.12-0.18-0.18-0.25C-299.53,323.73-299.53,324.03-299.48,324.13z"/>
		<path class="st0" d="M-299.3,327.34c-0.05,0.08-0.1,0.09-0.11-0.02C-299.38,327.22-299.33,327.25-299.3,327.34z"/>
		<path class="st0" d="M-286.73,331.24c-0.06-0.12-0.27-0.24-0.08-0.31C-286.78,331.03-286.76,331.14-286.73,331.24z"/>
		<path class="st0" d="M-286.72,331.25c0,0.02-0.01-0.01-0.01-0.02C-286.72,331.24-286.72,331.25-286.72,331.25z"/>
		<path class="st0" d="M-295.14,332.01c-0.05-0.09-0.13-0.17-0.17-0.26C-295.25,331.84-295.19,331.92-295.14,332.01z"/>
		<path class="st0" d="M-158.11,509.35c-1.31-4.15-49.2-48.86-35.05-30.55c0.67,3.01,4.71,2.6,4.4,5.17
			c0.97-0.49,0.67,0.3,0.74,0.73c1.39,0.41,2.95,1.96,2.94,2.96c2.71,0.77,2.96,3.89,5.54,4.44
			C-176.93,494.08-157.05,515.38-158.11,509.35z M-194.55,475.45c-0.06-0.15-0.07-0.32-0.2-0.43
			C-194.67,475.08-194.36,475.39-194.55,475.45z M-193.86,475.99c-0.19,0.02-0.23-0.13-0.11-0.28
			C-193.79,475.74-193.73,475.87-193.86,475.99z"/>
		<path class="st0" d="M-192.18,480.77c1.21,0.65,3.96,1.54,3.43,3.2C-190.17,483.6-191.02,481.72-192.18,480.77z"/>
		<path class="st0" d="M-185.08,487.65c1.34,0.69,3.34,1.83,3.43,3.44C-183.19,490.34-184.33,489.2-185.08,487.65z"/>
		<path class="st0" d="M-188.01,484.7c1.39,0.41,2.94,1.96,2.93,2.95C-186.27,486.89-187.59,486.24-188.01,484.7z"/>
		<path class="st0" d="M-188.76,483.97c0.96-0.49,0.67,0.3,0.74,0.73C-188.8,485.16-188.81,484.74-188.76,483.97z"/>
		<path class="st0" d="M-186.87,488.97c0.1-0.07,0.1,0.02,0.11,0.1C-186.82,489.07-186.87,489.05-186.87,488.97z"/>
		<path class="st0" d="M-216,362.68c-1.74,1.63-4.26-0.5-6.67-0.7C-220.63,360.89-218.14,362.06-216,362.68z"/>
		<path class="st0" d="M-320.54,352.27c4.87,2.24-9.01-11.39-5.41-4.98c-1.31-0.36-1.79-1.9-3.1-1.9c-0.19,0-0.4,0.03-0.63,0.11
			c-0.45,1.42-1.46-1.59-2.08,0.28c0.34,0.79,2.84,2.67,1.18,2.58c-0.69,0.58,1.35,0.74,0.16,1.31c0.32,1.28,2.63,3.11,2.45,3.69
			c3.6,4.33,3.67,1.02,6.36,2.82c1.32-1.39,1.66-2.94-0.34-4.91C-321.45,351.56-321.05,352.01-320.54,352.27z M-325.2,347.14
			c-0.14,0.11-0.13-0.21,0.01-0.08C-325.19,347.08-325.19,347.13-325.2,347.14z M-322.49,351.04c-0.18-0.52-1.42-0.59-0.79-1.09
			C-323.14,350.37-322.45,350.77-322.49,351.04z"/>
		<path class="st0" d="M-331.4,348.52c0.15,0.21,0.57,0.4,0.24,0.59C-331.31,348.9-331.73,348.71-331.4,348.52z"/>
		<path class="st0" d="M-320.3,344.74c-0.15-0.05-0.29-0.11-0.44-0.17C-320.78,344.25-320.08,344.48-320.3,344.74z"/>
		<path class="st0" d="M-323.3,342.55c-0.1,0.23-0.19,0.5-0.39,0.18C-323.56,342.67-323.42,342.62-323.3,342.55z"/>
		<path class="st0" d="M-330.43,349.68c-0.1-0.03-0.21-0.06-0.31-0.1C-330.64,349.62-330.51,349.62-330.43,349.68z"/>
		<path class="st0" d="M-316.51,352.04c0.08,0.11-0.02,0.12-0.11,0.13C-316.62,352.09-316.6,352.04-316.51,352.04z"/>
		<path class="st0" d="M-317.65,357.04c0.08-0.07,0.17-0.14,0.01-0.01C-317.41,356.99-317.59,357-317.65,357.04z"/>
		<path class="st0" d="M-327.97,353.36c-0.05-0.1-0.15-0.18,0-0.25C-327.98,353.19-327.97,353.28-327.97,353.36z"/>
		<path class="st0" d="M-332.14,349.92c0.03,0.03,0.07,0.07,0.1,0.1C-332.12,350.03-332.11,349.94-332.14,349.92z"/>
		<path class="st0" d="M-329.69,345.5c-0.03-0.02-0.06-0.04-0.1-0.06C-329.75,345.46-329.7,345.47-329.69,345.5z"/>
		<path class="st0" d="M-259.3,472.37c1.6-0.47,3.2-0.94,4.8-1.4C-256.1,471.5-257.57,472.62-259.3,472.37z"/>
		<path class="st0" d="M-284.69,382.86c-4.72-7.61-16.45-12.8-19.3-20.45c13.6,11.59,25.95,23.83,39.31,35.44
			C-253.66,413.96-281.39,384.78-284.69,382.86z"/>
		<path class="st0" d="M-126.92,443.93c-0.99-0.94,1.33-1.29,1.87-1.76C-124.83,443.93-125.03,444.76-126.92,443.93z"/>
		<path class="st0" d="M-288.93,416.48c-1.11,3.03-3.85,4.94-5.82,7.43C-293.97,421.11-291.13,418.43-288.93,416.48z"/>
		<path class="st0" d="M-298.12,419.77c-0.01-0.32-0.26-0.77,0.21-0.73C-297.92,419.35-297.67,419.82-298.12,419.77z"/>
		<path class="st0" d="M-273.25,474.32c2.75-0.83,6.07-1.08,8.88-1.03C-266.61,474.6-270.59,474.63-273.25,474.32z"/>
		<path class="st0" d="M-263.51,473.31c0.68-0.16,1.35-0.32,2.03-0.49C-261.93,473.93-262.81,473.25-263.51,473.31z"/>
		<path class="st0" d="M-181.14,549.04c-0.04,0.03-0.08,0.07-0.12,0.1C-181.22,549.11-181.18,549-181.14,549.04z"/>
		<path class="st0" d="M-259.24,394.74c-2.27-3.27-8.21-19.74-8.97-15.42C-267.1,384.81-254.27,408.77-259.24,394.74z
			 M-267.5,379.68v-0.39C-267.33,379.2-267.33,379.78-267.5,379.68z M-257.75,400.24c-0.01,0.01-0.01,0.01-0.01,0.02
			C-257.75,400.26-257.73,400.24-257.75,400.24z"/>
		<path class="st0" d="M-253.57,408.08c-2.6-0.78-4.93-3.73-6.9-5.74C-258.28,400.46-254.58,406.17-253.57,408.08z"/>
		<path class="st0" d="M-253.55,407.35c-1.64-1.88-5.4-4.86-4.21-7.09c2.89,0.25,3.02,5.04,4.68,7.1
			C-253.23,407.36-253.39,407.35-253.55,407.35z"/>
		<path class="st0" d="M-258.34,400.95c0.36,0.95,1.45,1.57,1.28,2.77C-257.53,402.81-259.85,401.61-258.34,400.95z"/>
		<path class="st0" d="M-264.64,389.93c1.01,0.67,0.74,1.71,0.79,2.66C-264.29,391.66-265.98,390.79-264.64,389.93z"/>
		<path class="st0" d="M-266.07,387.23c0.92,0.27,0.91,1.71,1.41,2.48C-266.43,389.62-265.69,388.11-266.07,387.23z"/>
		<path class="st0" d="M-266.98,385.47c0.95,0.13,0.88,0.84,0.85,1.52C-267.05,386.9-267.19,386.27-266.98,385.47z"/>
		<path class="st0" d="M-111.43,437.56c-0.9,0.51-0.96-0.86,0.17-1.13C-111.34,436.98-111.39,437.27-111.43,437.56z"/>
		<path class="st0" d="M-316.59,344.69c0.03,0,0.07,0,0.08,0.01C-316.4,344.84-316.7,344.82-316.59,344.69z"/>
		<path class="st0" d="M-305.11,371.76c0.16,0.09,0.31,0.17,0.47,0.26C-304.8,371.93-304.96,371.84-305.11,371.76z"/>
		<path class="st0" d="M-85.44,410.54c0.26-0.5,0.52-1.01,0.78-1.51c0.07,0.99,0.15,1.98,0.22,2.97c-0.13-0.28-0.26-0.56-0.48-1.06
			c-0.18,0.74-0.31,1.27-0.44,1.81C-85.4,412.02-85.42,411.28-85.44,410.54z"/>
		<path class="st0" d="M-174.03,350.69c-0.24,0.06-0.49,0.12-0.73,0.17C-174.52,350.81-174.27,350.75-174.03,350.69z"/>
		<path class="st0" d="M-85.44,410.54c0.15,1.73,0.34,3.41-1.82,2.98C-87.75,411.96-86.38,411.49-85.44,410.54z"/>
		<path class="st0" d="M-266.98,385.47c-0.03,0.33-0.07,0.66-0.11,0.99c-0.15-0.64-0.3-1.28-0.46-1.92
			C-267.36,384.86-267.17,385.17-266.98,385.47z"/>
		<path class="st0" d="M-83.66,404.69c-1.68,0.03-3.45,0.28-5.04-0.39c-2.26,1.31-1.12,1.55-3.91-0.54
			c-1.67,0.55-2.52,0.84-2.46-1.34c-1.57,0.11-5-0.32-3.25,2.38c-1.08-0.34-2-0.2-2.07-1.5c-1.57-3.09-12.23,0.5-5.62-3.55
			c5.96-6.93,10.37-10.52,20.01-8.11C-68.66,390.54-75.29,397.29-83.66,404.69z"/>
		<path class="st0" d="M-96.61,405.76c0.69,1.53,0.78,4.89-1.23,2.71c1.16-1.51,0.13-3.24,0.45-4.81
			C-96.37,402.24-96.1,405.46-96.61,405.76z"/>
		<path class="st0" d="M-235.95,406.68c4.68-3.96,6.57,6.64,9.52,8.65c-3.21,2.52,0.63,6.96-1.8,9.43
			c-4.82,6.72-8.04-8.67-11.33-12.25C-235.06,412.16-235.13,411.34-235.95,406.68z"/>
		<path class="st0" d="M-242.03,410.07v0.02C-242.03,410.07-242.04,410.07-242.03,410.07z"/>
		<path class="st0" d="M-222.95,427.36c-10.43,4.93-18.01-7.79-21.61-16.32c4.09,4.58,4.77,8.61,2.52-0.96
			c4.09,4.2,6.75,10.56,10.06,16.38c1.47,0.59,3.42-0.82,5.13-0.4C-226.09,428.1-224.35,426.61-222.95,427.36z"/>
		<path class="st0" d="M-221.18,395.9c-4.22,1.9-9.76,3.67-11.97-1.32C-229.28,391.22-224.18,391.68-221.18,395.9z"/>
		<path class="st0" d="M-244.98,403.2c-0.38-2.15-2.16-3.57-2.78-5.63c2,2.35,5.04,0.59,7.5,2.47
			C-240.96,402.26-242.55,403.35-244.98,403.2z"/>
		<path class="st0" d="M-235.95,406.68c3.21,7.52-6.82,6.8-1.04,1.39C-240.3,408.66-238.48,405.88-235.95,406.68z"/>
		<path class="st0" d="M-212.8,362.95c2.82,6.8,4.23,7.39,11.44,4.08c6.71-2.56,12,0.37,2.8,3.78c-3.12,2.09-6.8,0.55-10.01,2.43
			c-7.78,3.98,2.18-1.97-7.86-3.96c-2.59-1.21-3.87,1.49-6.33,1.83C-225.55,368.5-214.16,365.18-212.8,362.95z"/>
		<path class="st0" d="M-212.8,362.95c-1.43,0.6-3.64,4.3-4.85,2.4c0.08-0.09,0.19-0.16,0.23-0.28
			C-216.2,364.18-214.53,361.53-212.8,362.95z"/>
		<path class="st0" d="M-217.52,365.21c-0.04,0.04-0.09,0.09-0.13,0.13C-217.65,365.26-217.61,365.21-217.52,365.21z"/>
		<path class="st0" d="M-217.33,364.93c0.01,0.08-0.02,0.13-0.1,0.14C-217.43,365-217.4,364.95-217.33,364.93z"/>
		<path class="st0" d="M-141.3,424.95c0.41,7.12-30.06,10.44-15.73,4.68c2.66-1.01,5.05-1.83,7.13-3.96
			c0.6-0.56,0.79-1.91,2.11-0.98C-145.82,423.99-142.79,422.74-141.3,424.95z"/>
		<path class="st0" d="M-152.41,416.06c1.46-0.23,2.86-0.3,3.92,1.32c-2,1.21-4.65,2.07-5.09,4.76c0.32,1.12-2.21,2.33-1.27,3.63
			c-6.12,1.95-18.42,3.08-5.94-1.4c4.18-0.36,8.07-3.25,3-6.13C-155.76,418.33-148.36,420.04-152.41,416.06z"/>
		<path class="st0" d="M-152.41,416.06c4.05,3.98-3.34,2.27-5.4,2.18C-159.83,416.3-153.83,415.75-152.41,416.06z"/>
		<path class="st0" d="M-139.05,423.72c-0.67-0.85-1.34-1.7-2.01-2.56C-138.82,420.05-135.61,422.83-139.05,423.72z"/>
		<path class="st0" d="M-154.86,425.77c0.51,0.24,0.21,0.53-0.02,0.02C-154.89,425.79-154.86,425.77-154.86,425.77z"/>
		<path class="st0" d="M-155.34,412.5c-2.24,0.76-2.8,1.09-3.44,3.42C-161.17,412.98-157.46,410.73-155.34,412.5z"/>
		<path class="st0" d="M-163.1,419.73c0.26-1-0.55-3.3,0.38-3.59C-162.98,417.14-162.17,419.44-163.1,419.73z"/>
		<path class="st0" d="M-161.01,416.7c-0.09-1.21,0.86-0.39,1.07,0.25C-160.3,416.86-160.66,416.78-161.01,416.7
			C-161.02,416.7-161.01,416.7-161.01,416.7z"/>
		<path class="st0" d="M-161.02,416.95c0.11,0.33,0.54,0.75,0.01,0.76C-161.02,417.45-161,417.19-161.02,416.95z"/>
		<path class="st0" d="M-160.77,419.15c0.02-0.34-0.04-0.68,0.37-0.45C-160.53,418.85-160.64,419.01-160.77,419.15z"/>
		<path class="st0" d="M-160.77,419.15c-0.06,0.11-0.04,0.42-0.19,0.26C-160.89,419.33-160.84,419.24-160.77,419.15z"/>
		<path class="st0" d="M-161.01,416.94c0-0.08,0.01-0.17-0.01-0.25C-161.01,416.78-161.03,416.86-161.01,416.94z"/>
		<path class="st0" d="M-256.59,391.94c1.71,2.4,13.54,19.38,4.98,17.63C-247.56,407.13-256.03,396.82-256.59,391.94z"/>
		<path class="st0" d="M-246.3,407.8c-0.54-3-6.58-8.78-3.6-11.02C-250.16,399.95-240.04,407.72-246.3,407.8z"/>
		<path class="st0" d="M-218.46,441.22c-4.7-1.25-9.02-8.1-13.04-11.72C-226.74,432.03-222.87,437.62-218.46,441.22z"/>
		<path class="st0" d="M-251.53,408.84c-2.42,3.08-1.95-8.15-6.22-8.59C-255.72,396.53-253.03,406.7-251.53,408.84z"/>
		<path class="st0" d="M-242.03,410.07c-0.32-0.61-2.04-1.44-1.11-1.92C-242.77,408.78-242.41,409.45-242.03,410.07z"/>
		<path class="st0" d="M-260.18,405.86c-0.45-0.48-1.69-0.75-0.87-1.39C-260.76,404.92-260.47,405.39-260.18,405.86z"/>
		<path class="st0" d="M-258.57,407.41c-0.52-0.02-1.04-0.04-0.84-0.81C-259.13,406.87-258.85,407.14-258.57,407.41z"/>
		<path class="st0" d="M-259.43,406.58c-0.24-0.24-0.49-0.48-0.73-0.71C-259.92,406.11-259.68,406.34-259.43,406.58z"/>
		<path class="st0" d="M-254.05,411.75c-0.19-0.21-0.38-0.42-0.58-0.63C-254.43,411.34-254.24,411.54-254.05,411.75z"/>
		<path class="st0" d="M-230.49,428.97c-0.1,0.04-0.2,0.07-0.3,0.1C-230.84,428.88-230.61,428.99-230.49,428.97z"/>
		<path class="st0" d="M-231.5,429.49c-0.03-0.05-0.06-0.1-0.1-0.15C-231.55,429.39-231.39,429.42-231.5,429.49z"/>
		<path class="st0" d="M-202.47,441.68c0.06,0.78,0.13,1.48-0.64,1.94C-203.7,442.97-203.3,441.61-202.47,441.68z"/>
		<path class="st0" d="M-100.39,409.23c-0.09,0.92,0.4,2.05-0.63,2.56C-101.96,411.29-101.29,408.9-100.39,409.23z"/>
		<path class="st0" d="M-100.21,408.01c-1.38,0.19-1.2-0.41-0.81-1.15C-100.79,407.17-100.57,407.49-100.21,408.01z"/>
		<path class="st0" d="M-221.79,427.29c1.62-0.04,1.32,0.15-0.11,0.09C-221.86,427.36-221.83,427.33-221.79,427.29z"/>
		<path class="st0" d="M-224.11,427.01c0.09-0.06,0.17-0.12,0.26-0.18C-223.94,426.89-224.03,426.95-224.11,427.01z"/>
		<path class="st0" d="M-250.85,397.07c-0.01,0.33-0.03,0.67-0.04,1C-252,398.17-251.78,396.78-250.85,397.07z"/>
		<path class="st0" d="M-120.02,386.25c11.41-0.19,8.29,1.55,7.46,10.49c-0.92,4.94,9.74-7.17,4.94,1.05
			c-2.22,2.96-5.93,0.11-8.26,2.36c-2.45,1.67-5.12-0.54-7.05-2.19c-3.18-1.99,1.34-3.08-1.02-4.51c1.66-0.93,3.34-1.46,2.75-3.61
			C-122.08,388.02-119.49,388.06-120.02,386.25z"/>
		<path class="st0" d="M-120.02,386.25c0.53,1.81-2.06,1.77-1.18,3.59C-123.1,398.44-133.15,390.07-120.02,386.25z"/>
		<path class="st0" d="M-93.72,383.78c-1.59-1.4-3.11-2.75-4.76-4.21C-95.75,378.58-92.32,380.66-93.72,383.78z"/>
		<path class="st0" d="M-156.9,349.38c4.02-3.34,10.99-5.45,16.19-4.03C-146.11,346.55-151.33,348.32-156.9,349.38z"/>
		<path class="st0" d="M-164.51,355.24c0.47-0.11,0.94-0.2,1.41-0.28C-163.57,355.04-164.04,355.13-164.51,355.24z"/>
		<path class="st0" d="M-256.97,470.49c-0.51,0.15-1.01,0.31-1.52,0.46C-257.99,470.8-257.48,470.64-256.97,470.49z"/>
		<path class="st0" d="M-289.91,418.65c3.47-1.74,4.93-11.05,7.48-3.35C-284.56,418.37-293.97,427.68-289.91,418.65z"/>
		<path class="st0" d="M-271.22,412.94c-0.88,3.77-0.06,10.63-5.26,10.38c-3.57-1.32,2.64-4.43,3.19-6.38
			C-273,415.22-274.26,412.6-271.22,412.94z"/>
		<path class="st0" d="M-285.64,428.03c0.68-1.94,7.44-6.92,7.96-3.44C-277.67,427.63-282.9,428.98-285.64,428.03z"/>
		<path class="st0" d="M-287.59,422.65c1.94-3.7,5.49-5,7.18-8.73C-277.89,418.69-283.74,421.88-287.59,422.65z"/>
		<path class="st0" d="M-270.8,423.87c0.02,0.23,0.03,0.46,0.05,0.69c0,0-0.01,0.01-0.01,0.01c-1.46,1.05-2.68,2.51-4.39,3.15
			C-274.32,425.82-272.32,425.07-270.8,423.87z"/>
		<path class="st0" d="M-266.33,417.01c-0.03,1.44-1.35,2.58-1.93,3.88C-267.61,419.59-266.97,418.3-266.33,417.01z"/>
		<path class="st0" d="M-275.22,427.76c-0.7,0.48-1.39,0.96-2.09,1.44C-277.08,428.04-276.14,427.92-275.22,427.76z"/>
		<path class="st0" d="M-269.33,422.36c-0.46,0.47-0.93,0.94-1.39,1.41C-270.95,422.61-270.41,422.22-269.33,422.36z"/>
		<path class="st0" d="M-277.43,429.26c-0.54,0.31-1.08,0.62-1.62,0.93C-278.83,429.33-278.22,429.14-277.43,429.26z"/>
		<path class="st0" d="M-268.3,420.92c-0.31,0.42-0.62,0.83-0.93,1.25C-269.32,421.45-269.45,420.71-268.3,420.92z"/>
		<path class="st0" d="M-239.62,433.41c-6.16-5.69-12.42-12.85-18.85-17.43C-253.23,421.08-244.56,432.71-239.62,433.41z
			 M-245.22,428.66c-0.05-0.07-0.09-0.15,0.03-0.12C-245.13,428.58-245.15,428.64-245.22,428.66z"/>
		<path class="st0" d="M-259.41,415.7c-0.07-0.23-0.17-0.6,0.02-0.78C-259.15,415.33-258.68,415.77-259.41,415.7z"/>
		<path class="st0" d="M-256.02,423.57c-0.09-0.12-0.47-0.23-0.3-0.37C-256.22,423.31-256.14,423.47-256.02,423.57z"/>
		<path class="st0" d="M-271.06,424.79c0.16-0.11,0.33-0.36,0.3,0C-270.86,424.8-270.96,424.79-271.06,424.79z"/>
		<path class="st0" d="M-270.76,424.8c0.03,0.02,0.06,0.04,0.1,0.06C-270.69,424.83-270.73,424.82-270.76,424.8z"/>
		<path class="st0" d="M-248.8,449.19c0.16-0.02,0.27-0.03,0.37-0.04C-248.53,449.37-248.56,449.36-248.8,449.19z"/>
		<path class="st0" d="M-249.38,449.05C-249.33,449.01-249.35,449.03-249.38,449.05C-249.55,449.04-249.36,448.84-249.38,449.05z"/>
		<path class="st0" d="M-284.54,383.38c3.97,1.52,7.17,6.12,10.11,9.27C-277.69,391.37-283.4,386.63-284.54,383.38z"/>
		<path class="st0" d="M-226.81,443.71C-227.01,443.45-226.91,443.58-226.81,443.71C-227.19,443.75-227.37,443.67-226.81,443.71z"/>
		<path class="st0" d="M-258.46,407.84c-0.04,0.03-0.08,0.07-0.11,0.1C-258.54,407.92-258.51,407.86-258.46,407.84z"/>
		<path class="st0" d="M-251.56,411.01c0.02,0.05,0.05,0.1,0.07,0.16C-251.58,411.12-251.7,411.1-251.56,411.01z"/>
		<path class="st0" d="M-192.55,516.78c0.05,0.07,0.05,0.12-0.02,0.18C-192.56,516.9-192.56,516.84-192.55,516.78z"/>
		<path class="st0" d="M-270.89,403.27c-4.21-3.86-8.72-7.74-12.12-12.29C-278.8,394.71-273.84,398.53-270.89,403.27z"/>
		<path class="st0" d="M-284.54,383.38c-0.17,2.35,4.34,3.94,5.21,6.55C-283.3,388.56-294.28,375.29-284.54,383.38z"/>
		<path class="st0" d="M-263.18,411.78c-0.3-1.42,3.5,2.35,1.54,1.74C-262.16,412.94-262.67,412.36-263.18,411.78z"/>
		<path class="st0" d="M-291.86,378.16c1.45,0.21,2.15,1.24,2.71,2.44C-290.52,380.3-291.15,379.19-291.86,378.16z"/>
		<path class="st0" d="M-260.14,414.96c-0.07-0.39-0.52-0.5-0.78-0.77C-261.55,412.3-258.29,415.6-260.14,414.96z"/>
		<path class="st0" d="M-292.85,377.16c0.32,0.33,0.64,0.66,0.97,0.99C-292.21,377.81-292.53,377.48-292.85,377.16z"/>
		<path class="st0" d="M-283.06,390.85c-0.43-0.15-0.48-1.03,0-0.66C-283.06,390.41-283.06,390.63-283.06,390.85z"/>
		<path class="st0" d="M-265.57,408.57c-0.18-0.14-0.35-0.28-0.53-0.42C-265.92,408.3-265.75,408.43-265.57,408.57z"/>
		<path class="st0" d="M-265.38,408.84c-0.07-0.09-0.14-0.18-0.21-0.27C-265.52,408.66-265.45,408.75-265.38,408.84z"/>
		<path class="st0" d="M-304.38,363.67c1.45,1.01,2.72,2.17,3.68,3.66C-302.53,366.92-303.65,365.18-304.38,363.67z"/>
		<path class="st0" d="M-268.21,372c-0.05-0.06-0.09-0.12-0.13-0.19C-268.29,371.88-268.26,371.94-268.21,372z"/>
		<path class="st0" d="M-267.86,372.47c-0.04-0.05-0.09-0.1-0.12-0.16C-267.94,372.37-267.9,372.42-267.86,372.47z"/>
		<path class="st0" d="M-267.17,373.3c0.02,0.02,0.03,0.03,0.04,0.05c-0.03-0.03-0.05-0.05-0.07-0.08
			C-267.19,373.28-267.18,373.29-267.17,373.3z"/>
		<path class="st0" d="M-257.28,390.96c-4.66-4.47-6.3-11.23-9.12-16.73C-261.8,377.19-259.83,385.62-257.28,390.96z"/>
		<path class="st0" d="M-267.85,377.34c-0.78,0.19-1.49-1.72-1.16-2.34C-268.4,375.67-267.6,376.25-267.85,377.34z"/>
		<path class="st0" d="M-266.92,379.33c-0.28-0.61-0.56-1.22-0.84-1.83C-266.94,377.86-266.82,378.54-266.92,379.33z"/>
		<path class="st0" d="M-265.14,382.83c-0.08-0.17-0.16-0.34-0.24-0.51C-265.3,382.49-265.22,382.66-265.14,382.83z"/>
		<path class="st0" d="M-252.36,396.32c-0.11-0.48-1.27-0.4-0.69-1.26C-251.84,394.94-252.55,395.88-252.36,396.32z"/>
		<path class="st0" d="M-246.45,406.87c0.05,0.18,0.1,0.37,0.16,0.56C-246.35,407.24-246.4,407.06-246.45,406.87z"/>
		<path class="st0" d="M-98.89,421.38c-3.8,1.5-8.13-1.73-12.57,0.74c3.55,2.57,11.29,2.9,3.43,5.56
			C-120.68,421.85-104.31,418.53-98.89,421.38z"/>
		<path class="st0" d="M-87.94,406.74c0.92,0.99,0.94,2.85,0.12,3.91C-88.75,409.31-87.86,408.01-87.94,406.74z"/>
		<path class="st0" d="M-92.53,409.22c-0.2,0.7,0.15,2.08-0.73,2.28C-94.1,411.16-93.26,408.89-92.53,409.22z"/>
		<path class="st0" d="M-89.58,404.91c-0.06-1.42,1.54-0.25,2.29-0.19C-88.02,405.19-88.77,405.11-89.58,404.91z"/>
		<path class="st0" d="M-86.21,404.74c0.7-0.01,1.41-0.01,2.11-0.01C-84.8,405.34-85.5,405.79-86.21,404.74z"/>
		<path class="st0" d="M-160.85,509.52c-0.14,0.18-0.23,0.05-0.32-0.09C-161.01,509.32-160.95,509.33-160.85,509.52z"/>
		<path class="st0" d="M-200.61,470.23c-0.05,0.08-0.1,0.09-0.11-0.01C-200.69,470.11-200.64,470.14-200.61,470.23z"/>
		<path class="st0" d="M-190.98,473.66c0,0.09,0,0.18-0.01,0.27C-190.98,473.84-190.98,473.75-190.98,473.66z"/>
		<path class="st0" d="M-170.83,495.02c0.03-0.03,0.07-0.07,0.1-0.1C-170.73,494.99-170.79,495-170.83,495.02z"/>
		<path class="st0" d="M-142.36,526.2c0.16,0.12,0.53,0.21,0.24,0.39C-142.2,526.46-142.27,526.32-142.36,526.2z"/>
		<path class="st0" d="M-202.5,469.24c0.09,0.13,0.48,0.24,0.3,0.38C-202.3,469.49-202.42,469.37-202.5,469.24z"/>
		<path class="st0" d="M-202.51,469.24c-0.03-0.04-0.06-0.07-0.1-0.11C-202.54,469.13-202.51,469.19-202.51,469.24z"/>
		<path class="st0" d="M-200.54,472.18c-0.03-0.03-0.07-0.07-0.1-0.1C-200.57,472.08-200.56,472.14-200.54,472.18z"/>
		<path class="st0" d="M-260.95,413.52c0.01,0.22,0.02,0.44,0.04,0.67c-0.24-0.22-0.49-0.44-0.73-0.66
			C-261.41,413.52-261.18,413.52-260.95,413.52z"/>
		<path class="st0" d="M-260.14,414.96c0.43-0.01,0.78-0.01,0.65,0.51C-259.71,415.29-259.92,415.12-260.14,414.96z"/>
		<path class="st0" d="M-260.88,414.22c0.22,0.17,0.45,0.33,0.67,0.5C-260.44,414.55-260.66,414.39-260.88,414.22z"/>
		<path class="st0" d="M-266.42,409.55c0.38,0.14,0.94,0.26,0.49,0.63C-266.28,410.07-266.73,409.96-266.42,409.55z"/>
		<path class="st0" d="M-294.42,321.55c-0.51,0.19-0.29-0.5-0.4-0.85C-294.39,320.61-294.55,321.25-294.42,321.55z"/>
		<path class="st0" d="M-293.33,325.6c-0.18,0-0.3-0.36-0.47-0.51C-293.4,324.76-293.46,325.31-293.33,325.6z"/>
		<path class="st0" d="M-295.56,330.77c-0.44-0.17-0.56-0.28-0.18-0.63C-295.68,330.34-295.62,330.56-295.56,330.77z"/>
		<path class="st0" d="M-297.8,324.23c-0.13,0.44-0.6-0.02-0.2-0.32C-297.91,324.05-297.81,324.14-297.8,324.23z"/>
		<path class="st0" d="M-296.82,322.19c-0.26,0.16-0.23-0.36-0.2-0.51C-296.95,321.85-296.88,322.02-296.82,322.19z"/>
		<path class="st0" d="M-291.37,331c-0.05,0.07-0.08-0.06-0.12-0.1C-291.45,330.93-291.41,330.96-291.37,331z"/>
		<path class="st0" d="M-293.23,325.73c-0.04-0.03-0.09-0.06-0.13-0.1C-293.31,325.55-293.28,325.68-293.23,325.73z"/>
		<path class="st0" d="M-193.77,475.8c-0.03,0.19-0.16,0.26-0.28,0.11C-194.06,475.73-193.92,475.69-193.77,475.8z"/>
		<path class="st0" d="M-194.65,475.13c0.05,0.11,0.27,0.25,0.1,0.32C-194.58,475.34-194.63,475.24-194.65,475.13z"/>
		<path class="st0" d="M-194.65,475.13c-0.03-0.04-0.07-0.07-0.1-0.11C-194.69,475.02-194.66,475.08-194.65,475.13z"/>
		<path class="st0" d="M-322.82,350.66c-0.35-0.22-0.95-0.33-0.46-0.71C-323.13,350.2-322.91,350.41-322.82,350.66z"/>
		<path class="st0" d="M-322.8,350.65c0.1,0.13,0.5,0.25,0.31,0.39C-322.58,350.91-322.75,350.79-322.8,350.65z"/>
		<path class="st0" d="M-325.19,347.05c0,0.03,0.01,0.07-0.01,0.08C-325.34,347.24-325.33,346.94-325.19,347.05z"/>
		<path class="st0" d="M-327.96,353.35c-0.09-0.34,0.13-0.18,0.31-0.08C-327.76,353.3-327.86,353.33-327.96,353.35z"/>
		<path class="st0" d="M-321.86,351.42c-0.03-0.05-0.06-0.1-0.09-0.15C-321.89,351.32-321.74,351.34-321.86,351.42z"/>
		<path class="st0" d="M-267.49,379.68c0.03-0.13-0.09-0.42,0.11-0.39C-267.42,379.43-267.3,379.72-267.49,379.68z"/>
		<path class="st0" d="M-253.09,407.37c0.15,0.13,0.57,0.24,0.25,0.4C-252.93,407.65-252.98,407.46-253.09,407.37z"/>
		<path class="st0" d="M-245.14,428.61c-0.07,0.08-0.1,0.01-0.13-0.06C-245.21,428.53-245.17,428.53-245.14,428.61z"/>
	</g>
	<path class="st0" d="M-261.9,334.03c-1.13,0.61-2.29,1.29-3.33,2.01C-264.6,335.45-261.78,332.55-261.9,334.03z"/>
	<path class="st0" d="M-303.17,312.58c-0.03-0.03-0.07-0.06-0.1-0.08c0.05,0.15,0.17,0.24,0.27,0.36
		C-303.07,312.77-303.12,312.67-303.17,312.58z M-291.63,318c0.05-0.09,0.05-0.2,0.09-0.31C-291.57,317.79-291.6,317.9-291.63,318z
		 M-287.06,334.86c-0.08,0-0.09,0.05-0.09,0.11C-287.07,334.97-286.99,334.96-287.06,334.86z M-268.28,371.9
		c-0.02-0.03-0.04-0.05-0.06-0.08c0.04,0.06,0.08,0.12,0.13,0.19C-268.24,371.97-268.26,371.93-268.28,371.9z M-287.06,334.86
		c-0.08,0-0.09,0.05-0.09,0.11C-287.07,334.97-286.99,334.96-287.06,334.86z M-291.63,318c0.05-0.09,0.05-0.2,0.09-0.31
		C-291.57,317.79-291.6,317.9-291.63,318z M-301.12,315.02c-0.04-0.04-0.09-0.08-0.13-0.12c0.05,0.06,0.1,0.11,0.14,0.16
		C-301.11,315.05-301.11,315.03-301.12,315.02z M-303.17,312.58c-0.03-0.03-0.07-0.06-0.1-0.08c0.05,0.15,0.17,0.24,0.27,0.36
		C-303.07,312.77-303.12,312.67-303.17,312.58z M-303.17,312.58c-0.03-0.03-0.07-0.06-0.1-0.08c0.05,0.15,0.17,0.24,0.27,0.36
		C-303.07,312.77-303.12,312.67-303.17,312.58z M-301.49,318.94c-0.44,0.04,0,0.49,0.04,0.78
		C-301.44,319.46-301.48,319.2-301.49,318.94z M-301.14,317.99c0.06,0.09,0.11,0.18,0.19,0.26
		C-301.02,318.16-301.08,318.08-301.14,317.99z M-300.66,314.31c0.01,0.07,0.04,0.11,0.12,0.07
		C-300.48,314.25-300.57,314.29-300.66,314.31z M-300.13,325.32c-0.46-0.24-0.31,0.81,0.03,0.65
		C-300.11,325.75-300.12,325.54-300.13,325.32z M-301.12,315.02c-0.04-0.04-0.09-0.08-0.13-0.12c0.05,0.06,0.1,0.11,0.14,0.16
		C-301.11,315.05-301.11,315.03-301.12,315.02z M-299.79,326.44c-0.11,0.16-0.08,0.24,0.11,0.28
		C-299.58,326.56-299.61,326.49-299.79,326.44z M-299.58,323.82c-0.18,0.08,0.05,0.21,0.09,0.32
		C-299.48,324.04-299.55,323.93-299.58,323.82z M-299.35,327.24c-0.08,0.06-0.07,0.11-0.02,0.18
		C-299.3,327.36-299.3,327.31-299.35,327.24z M-298,323.9c-0.24,0.27-0.21,0.36,0.04,0.56C-297.72,324.25-297.8,324.16-298,323.9z
		 M-297.4,319.81c-0.48,0.12,0.08,0.64,0.13,1C-296.76,320.68-297.33,320.17-297.4,319.81z M-297.02,321.68
		c-0.03,0.15-0.06,0.67,0.2,0.51C-296.88,322.02-296.95,321.85-297.02,321.68z M-295.31,331.75c-0.42-2.28-1.07-1.16,0.17,0.26
		C-295.19,331.92-295.25,331.84-295.31,331.75z M-294.82,316.03c0.01,0.11,0.07,0.22,0.1,0.34
		C-294.53,316.29-294.77,316.15-294.82,316.03z M-294.58,320.7c-0.28-1.51-0.31,0.27-0.14,0.89
		C-294.19,321.62-294.58,321.06-294.58,320.7z M-293.33,325.6c-0.23-1.12-0.68-0.34,0.09,0.13
		C-293.26,325.68-293.3,325.64-293.33,325.6z M-291.63,318c0.05-0.09,0.05-0.2,0.09-0.31C-291.57,317.79-291.6,317.9-291.63,318z
		 M-291.49,330.9c0.04,0.03,0.07,0.17,0.12,0.1C-291.41,330.96-291.45,330.93-291.49,330.9z M-288.68,321.43c0,0,0,0.01,0.01,0.01
		C-288.67,321.44-288.68,321.43-288.68,321.43z M-287.06,334.86c-0.08,0-0.09,0.05-0.09,0.11
		C-287.07,334.97-286.99,334.96-287.06,334.86z M-286.81,330.93c-0.19,0.07,0.02,0.19,0.08,0.31
		C-286.76,331.14-286.78,331.03-286.81,330.93z M-286.73,331.24c0,0.01,0,0.02,0.01,0.02
		C-286.72,331.25-286.72,331.25-286.73,331.24z M-286.79,327.01c-0.17,0.2-0.13,0.33,0.08,0.47
		C-286.45,327.29-286.57,327.15-286.79,327.01z M-268.28,371.9c-0.02-0.03-0.04-0.05-0.06-0.08c0.04,0.06,0.08,0.12,0.13,0.19
		C-268.24,371.97-268.26,371.93-268.28,371.9z M-286.79,327.01c-0.17,0.2-0.13,0.33,0.08,0.47
		C-286.45,327.29-286.57,327.15-286.79,327.01z M-286.73,331.24c0,0.01,0,0.02,0.01,0.02
		C-286.72,331.25-286.72,331.25-286.73,331.24z M-286.81,330.93c-0.19,0.07,0.02,0.19,0.08,0.31
		C-286.76,331.14-286.78,331.03-286.81,330.93z M-287.06,334.86c-0.08,0-0.09,0.05-0.09,0.11
		C-287.07,334.97-286.99,334.96-287.06,334.86z M-288.68,321.43c0,0,0,0.01,0.01,0.01C-288.67,321.44-288.68,321.43-288.68,321.43z
		 M-291.49,330.9c0.04,0.03,0.07,0.17,0.12,0.1C-291.41,330.96-291.45,330.93-291.49,330.9z M-291.63,318
		c0.05-0.09,0.05-0.2,0.09-0.31C-291.57,317.79-291.6,317.9-291.63,318z M-293.33,325.6c-0.23-1.12-0.68-0.34,0.09,0.13
		C-293.26,325.68-293.3,325.64-293.33,325.6z M-294.58,320.7c-0.28-1.51-0.31,0.27-0.14,0.89
		C-294.19,321.62-294.58,321.06-294.58,320.7z M-294.82,316.03c0.01,0.11,0.07,0.22,0.1,0.34
		C-294.53,316.29-294.77,316.15-294.82,316.03z M-295.31,331.75c-0.42-2.28-1.07-1.16,0.17,0.26
		C-295.19,331.92-295.25,331.84-295.31,331.75z M-297.02,321.68c-0.03,0.15-0.06,0.67,0.2,0.51
		C-296.88,322.02-296.95,321.85-297.02,321.68z M-297.4,319.81c-0.48,0.12,0.08,0.64,0.13,1
		C-296.76,320.68-297.33,320.17-297.4,319.81z M-298,323.9c-0.24,0.27-0.21,0.36,0.04,0.56C-297.72,324.25-297.8,324.16-298,323.9z
		 M-299.35,327.24c-0.08,0.06-0.07,0.11-0.02,0.18C-299.3,327.36-299.3,327.31-299.35,327.24z M-299.58,323.82
		c-0.18,0.08,0.05,0.21,0.09,0.32C-299.48,324.04-299.55,323.93-299.58,323.82z M-299.79,326.44c-0.11,0.16-0.08,0.24,0.11,0.28
		C-299.58,326.56-299.61,326.49-299.79,326.44z M-300.13,325.32c-0.46-0.24-0.31,0.81,0.03,0.65
		C-300.11,325.75-300.12,325.54-300.13,325.32z M-300.66,314.31c0.01,0.07,0.04,0.11,0.12,0.07
		C-300.48,314.25-300.57,314.29-300.66,314.31z M-301.14,317.99c0.06,0.09,0.11,0.18,0.19,0.26
		C-301.02,318.16-301.08,318.08-301.14,317.99z M-301.12,315.02c-0.04-0.04-0.09-0.08-0.13-0.12c0.05,0.06,0.1,0.11,0.14,0.16
		C-301.11,315.05-301.11,315.03-301.12,315.02z M-301.49,318.94c-0.44,0.04,0,0.49,0.04,0.78
		C-301.44,319.46-301.48,319.2-301.49,318.94z M-303.17,312.58c-0.03-0.03-0.07-0.06-0.1-0.08c0.05,0.15,0.17,0.24,0.27,0.36
		C-303.07,312.77-303.12,312.67-303.17,312.58z M-303.17,312.58c-0.03-0.03-0.07-0.06-0.1-0.08c0.05,0.15,0.17,0.24,0.27,0.36
		C-303.07,312.77-303.12,312.67-303.17,312.58z M-301.49,318.94c-0.44,0.04,0,0.49,0.04,0.78
		C-301.44,319.46-301.48,319.2-301.49,318.94z M-301.14,317.99c0.06,0.09,0.11,0.18,0.19,0.26
		C-301.02,318.16-301.08,318.08-301.14,317.99z M-300.66,314.31c0.01,0.07,0.04,0.11,0.12,0.07
		C-300.48,314.25-300.57,314.29-300.66,314.31z M-300.13,325.32c-0.46-0.24-0.31,0.81,0.03,0.65
		C-300.11,325.75-300.12,325.54-300.13,325.32z M-301.12,315.02c-0.04-0.04-0.09-0.08-0.13-0.12c0.05,0.06,0.1,0.11,0.14,0.16
		C-301.11,315.05-301.11,315.03-301.12,315.02z M-299.79,326.44c-0.11,0.16-0.08,0.24,0.11,0.28
		C-299.58,326.56-299.61,326.49-299.79,326.44z M-299.58,323.82c-0.18,0.08,0.05,0.21,0.09,0.32
		C-299.48,324.04-299.55,323.93-299.58,323.82z M-299.35,327.24c-0.08,0.06-0.07,0.11-0.02,0.18
		C-299.3,327.36-299.3,327.31-299.35,327.24z M-298,323.9c-0.24,0.27-0.21,0.36,0.04,0.56C-297.72,324.25-297.8,324.16-298,323.9z
		 M-297.4,319.81c-0.48,0.12,0.08,0.64,0.13,1C-296.76,320.68-297.33,320.17-297.4,319.81z M-297.02,321.68
		c-0.03,0.15-0.06,0.67,0.2,0.51C-296.88,322.02-296.95,321.85-297.02,321.68z M-295.31,331.75c-0.42-2.28-1.07-1.16,0.17,0.26
		C-295.19,331.92-295.25,331.84-295.31,331.75z M-294.82,316.03c0.01,0.11,0.07,0.22,0.1,0.34
		C-294.53,316.29-294.77,316.15-294.82,316.03z M-294.58,320.7c-0.28-1.51-0.31,0.27-0.14,0.89
		C-294.19,321.62-294.58,321.06-294.58,320.7z M-293.33,325.6c-0.23-1.12-0.68-0.34,0.09,0.13
		C-293.26,325.68-293.3,325.64-293.33,325.6z M-291.63,318c0.05-0.09,0.05-0.2,0.09-0.31C-291.57,317.79-291.6,317.9-291.63,318z
		 M-291.49,330.9c0.04,0.03,0.07,0.17,0.12,0.1C-291.41,330.96-291.45,330.93-291.49,330.9z M-288.68,321.43c0,0,0,0.01,0.01,0.01
		C-288.67,321.44-288.68,321.43-288.68,321.43z M-287.06,334.86c-0.08,0-0.09,0.05-0.09,0.11
		C-287.07,334.97-286.99,334.96-287.06,334.86z M-286.81,330.93c-0.19,0.07,0.02,0.19,0.08,0.31
		C-286.76,331.14-286.78,331.03-286.81,330.93z M-286.73,331.24c0,0.01,0,0.02,0.01,0.02
		C-286.72,331.25-286.72,331.25-286.73,331.24z M-286.79,327.01c-0.17,0.2-0.13,0.33,0.08,0.47
		C-286.45,327.29-286.57,327.15-286.79,327.01z M-268.28,371.9c-0.02-0.03-0.04-0.05-0.06-0.08c0.04,0.06,0.08,0.12,0.13,0.19
		C-268.24,371.97-268.26,371.93-268.28,371.9z M-267.98,372.32c0.04,0.06,0.08,0.11,0.12,0.16
		C-267.9,372.42-267.94,372.37-267.98,372.32z M-252.78,378.13c-5.1,5.14-6.61-3.54-9.29-7.16c2.21,4.16-1.5,3.11-4.54,3.26
		c-7.57,0.71-9.15-7.87-12.8-12.58c6.82,12.37,5.5,23.91,23.1,18.94C-254.54,379.94-251.4,381.22-252.78,378.13z M-303.17,312.58
		c-0.03-0.03-0.07-0.06-0.1-0.08c0.05,0.15,0.17,0.24,0.27,0.36C-303.07,312.77-303.12,312.67-303.17,312.58z M-301.49,318.94
		c-0.44,0.04,0,0.49,0.04,0.78C-301.44,319.46-301.48,319.2-301.49,318.94z M-301.14,317.99c0.06,0.09,0.11,0.18,0.19,0.26
		C-301.02,318.16-301.08,318.08-301.14,317.99z M-300.66,314.31c0.01,0.07,0.04,0.11,0.12,0.07
		C-300.48,314.25-300.57,314.29-300.66,314.31z M-300.13,325.32c-0.46-0.24-0.31,0.81,0.03,0.65
		C-300.11,325.75-300.12,325.54-300.13,325.32z M-301.12,315.02c-0.04-0.04-0.09-0.08-0.13-0.12c0.05,0.06,0.1,0.11,0.14,0.16
		C-301.11,315.05-301.11,315.03-301.12,315.02z M-299.79,326.44c-0.11,0.16-0.08,0.24,0.11,0.28
		C-299.58,326.56-299.61,326.49-299.79,326.44z M-299.58,323.82c-0.18,0.08,0.05,0.21,0.09,0.32
		C-299.48,324.04-299.55,323.93-299.58,323.82z M-299.35,327.24c-0.08,0.06-0.07,0.11-0.02,0.18
		C-299.3,327.36-299.3,327.31-299.35,327.24z M-298,323.9c-0.24,0.27-0.21,0.36,0.04,0.56C-297.72,324.25-297.8,324.16-298,323.9z
		 M-297.4,319.81c-0.48,0.12,0.08,0.64,0.13,1C-296.76,320.68-297.33,320.17-297.4,319.81z M-297.02,321.68
		c-0.03,0.15-0.06,0.67,0.2,0.51C-296.88,322.02-296.95,321.85-297.02,321.68z M-295.31,331.75c-0.42-2.28-1.07-1.16,0.17,0.26
		C-295.19,331.92-295.25,331.84-295.31,331.75z M-294.82,316.03c0.01,0.11,0.07,0.22,0.1,0.34
		C-294.53,316.29-294.77,316.15-294.82,316.03z M-294.58,320.7c-0.28-1.51-0.31,0.27-0.14,0.89
		C-294.19,321.62-294.58,321.06-294.58,320.7z M-293.33,325.6c-0.23-1.12-0.68-0.34,0.09,0.13
		C-293.26,325.68-293.3,325.64-293.33,325.6z M-291.63,318c0.05-0.09,0.05-0.2,0.09-0.31C-291.57,317.79-291.6,317.9-291.63,318z
		 M-291.49,330.9c0.04,0.03,0.07,0.17,0.12,0.1C-291.41,330.96-291.45,330.93-291.49,330.9z M-288.68,321.43c0,0,0,0.01,0.01,0.01
		C-288.67,321.44-288.68,321.43-288.68,321.43z M-287.06,334.86c-0.08,0-0.09,0.05-0.09,0.11
		C-287.07,334.97-286.99,334.96-287.06,334.86z M-286.81,330.93c-0.19,0.07,0.02,0.19,0.08,0.31
		C-286.76,331.14-286.78,331.03-286.81,330.93z M-286.73,331.24c0,0.01,0,0.02,0.01,0.02
		C-286.72,331.25-286.72,331.25-286.73,331.24z M-286.79,327.01c-0.17,0.2-0.13,0.33,0.08,0.47
		C-286.45,327.29-286.57,327.15-286.79,327.01z M-268.28,371.9c-0.02-0.03-0.04-0.05-0.06-0.08c0.04,0.06,0.08,0.12,0.13,0.19
		C-268.24,371.97-268.26,371.93-268.28,371.9z M-267.98,372.32c0.04,0.06,0.08,0.11,0.12,0.16
		C-267.9,372.42-267.94,372.37-267.98,372.32z M-257.85,380.55c-1.67-1.8-2.11-6.71-4.6-6.37c-1.73,0.55-7.87-1.09-6.55,0.82
		C-264.99,381.88-267.02,382.74-257.85,380.55z M-98.29,268.87c-11.66-11.96,2.05-20.23-5.36-30.21
		c-12.96-6.78-3.49-19.67-12.21-26.97c-15.34-3.37-8.21-20.79-21.32-23.8c-11.75,0.64-11.56-12.52-19.95-16.41
		c-20.86,2.92-16.95-11.78-31.01-10.71c-9.86,5.79-16.73-1.89-25.76-4.08c-21.82,13.86-21.8-2.57-34.26,7.03
		c-5.73,12.24-20.61,2.47-26.79,12.33c-2.32,13.53-19.17,8.13-22.83,19.1c0.96,14.1-16.3,12.74-17.2,24.32
		c1.38,8.09-1.55,14.5-8.13,19.25c-7.17,9.45,6.04,19.09-5.1,29.67c-4.15,11.43,10.76,16.52,2.7,30.46
		c-2.03,9.54,12.91,12.11,10.63,22.17c-4.1,13.47,12.64,13.18,15.61,23.12c0.06,13.89,11.51,11.72,19.85,17.54
		c-3.61-5.14-4.5-14.62-7.98-17.91c-3.52-6.99-12.24-9.71-13.83-18.02c-1.83-8.93-13.95-43.05,0.42-23.7
		c12.07,10.32,19.07,22.2,20.76,37.85c6.64,9.96,12.23,20.59,17.98,31.09c-45.2-117.99,115.35-140.61,104.68-33.42
		c-0.37,3.07-0.82,6.12-1.38,9.16c-2.44-3.57-7.32-8.4-7.18-0.78c-4.72,11.91,3.37,9.7,6.37,1.47c2.13,17.26-11.6,10.42-13.35,24.78
		c-0.57,2.07-1.84,6.69-2.42,8.8c39.57,4.36,19.76-12.58,42.64-17.35c10.76-1.74,9.19-14.62,14.47-20.44
		c11.7-5.36,9.74-7.51-2.22-6.94c16.06-6.31,1.76-20.67,17.83-30.82c5.32-6.84-4.92-15.39,0.47-22.42
		C-99.64,278.73-95.38,273.98-98.29,268.87z M-259.95,376.8c-0.94-4.75-6.08-1.59-9.57-2.86c0.45,1.37,1.9,1.97,1.75,3.56
		c1.42,3.73,3.29,4.7,7.58,3.63C-256.19,381.28-258.95,379.01-259.95,376.8z M-267.98,372.32c0.04,0.06,0.08,0.11,0.12,0.16
		C-267.9,372.42-267.94,372.37-267.98,372.32z M-268.34,371.82c0.04,0.06,0.08,0.12,0.13,0.19
		C-268.26,371.94-268.29,371.88-268.34,371.82z M-286.51,327.25c-0.2-0.21-0.37-0.29-0.4,0.02
		C-286.8,327.5-286.65,327.49-286.51,327.25z M-286.72,331.26c0-0.01-0.01-0.01-0.01-0.02
		C-286.72,331.24-286.72,331.26-286.72,331.26z M-286.91,330.99c0.06,0.08,0.12,0.16,0.18,0.25
		C-286.79,331.12-286.75,330.84-286.91,330.99z M-287.15,334.98c0.09-0.01,0.16-0.01,0.09-0.11
		C-287.14,334.86-287.15,334.91-287.15,334.98z M-288.68,321.44c0.01,0,0-0.01-0.01-0.01
		C-288.69,321.43-288.68,321.44-288.68,321.44z M-291.37,331c-0.04-0.04-0.08-0.07-0.12-0.1
		C-291.45,330.93-291.42,331.07-291.37,331z M-291.54,317.69c-0.03,0.1-0.07,0.21-0.09,0.31
		C-291.59,317.9-291.57,317.8-291.54,317.69z M-293.79,325.08c0.19,0.22,0.32,0.49,0.56,0.65
		C-293.49,325.49-293.33,324.71-293.79,325.08z M-294.82,320.7c0.12,0.33-0.11,1.04,0.4,0.85
		C-294.47,320.95-294.87,319.21-294.82,320.7z M-294.82,316.03c0.01,0.11,0.07,0.22,0.1,0.34
		C-294.53,316.29-294.77,316.15-294.82,316.03z M-295.74,330.13c-0.65,0.54,0.35,1.28,0.61,1.88
		C-295.5,331.46-295.5,330.75-295.74,330.13z M-296.82,322.19c-0.09-0.15-0.11-0.44-0.23-0.49
		C-296.99,321.89-297.1,322.34-296.82,322.19z M-297.4,319.81c-0.48,0.12,0.08,0.64,0.13,1
		C-296.76,320.68-297.33,320.17-297.4,319.81z M-297.97,324.46c0.24-0.21,0.17-0.3-0.04-0.56
		C-298.25,324.18-298.21,324.26-297.97,324.46z M-299.37,327.42c0.07-0.06,0.07-0.11,0.02-0.18
		C-299.43,327.3-299.42,327.35-299.37,327.42z M-299.48,324.13c-0.05-0.1-0.05-0.4-0.18-0.25
		C-299.6,323.95-299.55,324.1-299.48,324.13z M-299.86,326.63c0.11,0.14,0.24,0.07,0.27-0.1
		C-299.74,326.42-299.87,326.46-299.86,326.63z M-300.32,326c0.38,0.04,0.15-0.41,0.19-0.67
		C-300.62,325.19-300.32,325.68-300.32,326z M-300.54,314.38c0.1-0.17-0.2-0.09-0.08,0.01C-300.6,314.4-300.56,314.38-300.54,314.38
		z M-300.95,318.24c-0.06-0.09-0.12-0.17-0.19-0.26C-301.08,318.07-301.02,318.17-300.95,318.24z M-301.25,314.89
		c0.05,0.06,0.1,0.11,0.14,0.16C-301.12,314.99-301.2,314.95-301.25,314.89z M-301.45,319.72c0.02-0.26-0.03-0.52-0.04-0.78
		C-301.93,318.98-301.49,319.43-301.45,319.72z M-303.27,312.5c0.05,0.15,0.17,0.24,0.27,0.36
		C-303.1,312.73-303.14,312.58-303.27,312.5z M-257.85,380.55c-1.67-1.8-2.11-6.71-4.6-6.37c-1.73,0.55-7.87-1.09-6.55,0.82
		C-264.99,381.88-267.02,382.74-257.85,380.55z M-267.98,372.32c0.04,0.06,0.08,0.11,0.12,0.16
		C-267.9,372.42-267.94,372.37-267.98,372.32z M-268.28,371.9c-0.02-0.03-0.04-0.05-0.06-0.08c0.04,0.06,0.08,0.12,0.13,0.19
		C-268.24,371.97-268.26,371.93-268.28,371.9z M-286.79,327.01c-0.17,0.2-0.13,0.33,0.08,0.47
		C-286.45,327.29-286.57,327.15-286.79,327.01z M-286.73,331.24c0,0.01,0,0.02,0.01,0.02
		C-286.72,331.25-286.72,331.25-286.73,331.24z M-286.81,330.93c-0.19,0.07,0.02,0.19,0.08,0.31
		C-286.76,331.14-286.78,331.03-286.81,330.93z M-287.06,334.86c-0.08,0-0.09,0.05-0.09,0.11
		C-287.07,334.97-286.99,334.96-287.06,334.86z M-288.68,321.43c0,0,0,0.01,0.01,0.01C-288.67,321.44-288.68,321.43-288.68,321.43z
		 M-291.49,330.9c0.04,0.03,0.07,0.17,0.12,0.1C-291.41,330.96-291.45,330.93-291.49,330.9z M-291.63,318
		c0.05-0.09,0.05-0.2,0.09-0.31C-291.57,317.79-291.6,317.9-291.63,318z M-293.33,325.6c-0.23-1.12-0.68-0.34,0.09,0.13
		C-293.26,325.68-293.3,325.64-293.33,325.6z M-294.58,320.7c-0.28-1.51-0.31,0.27-0.14,0.89
		C-294.19,321.62-294.58,321.06-294.58,320.7z M-294.82,316.03c0.01,0.11,0.07,0.22,0.1,0.34
		C-294.53,316.29-294.77,316.15-294.82,316.03z M-295.31,331.75c-0.42-2.28-1.07-1.16,0.17,0.26
		C-295.19,331.92-295.25,331.84-295.31,331.75z M-297.02,321.68c-0.03,0.15-0.06,0.67,0.2,0.51
		C-296.88,322.02-296.95,321.85-297.02,321.68z M-297.4,319.81c-0.48,0.12,0.08,0.64,0.13,1
		C-296.76,320.68-297.33,320.17-297.4,319.81z M-298,323.9c-0.24,0.27-0.21,0.36,0.04,0.56C-297.72,324.25-297.8,324.16-298,323.9z
		 M-299.35,327.24c-0.08,0.06-0.07,0.11-0.02,0.18C-299.3,327.36-299.3,327.31-299.35,327.24z M-299.58,323.82
		c-0.18,0.08,0.05,0.21,0.09,0.32C-299.48,324.04-299.55,323.93-299.58,323.82z M-299.79,326.44c-0.11,0.16-0.08,0.24,0.11,0.28
		C-299.58,326.56-299.61,326.49-299.79,326.44z M-301.12,315.02c-0.04-0.04-0.09-0.08-0.13-0.12c0.05,0.06,0.1,0.11,0.14,0.16
		C-301.11,315.05-301.11,315.03-301.12,315.02z M-300.13,325.32c-0.46-0.24-0.31,0.81,0.03,0.65
		C-300.11,325.75-300.12,325.54-300.13,325.32z M-300.66,314.31c0.01,0.07,0.04,0.11,0.12,0.07
		C-300.48,314.25-300.57,314.29-300.66,314.31z M-301.14,317.99c0.06,0.09,0.11,0.18,0.19,0.26
		C-301.02,318.16-301.08,318.08-301.14,317.99z M-301.49,318.94c-0.44,0.04,0,0.49,0.04,0.78
		C-301.44,319.46-301.48,319.2-301.49,318.94z M-303.17,312.58c-0.03-0.03-0.07-0.06-0.1-0.08c0.05,0.15,0.17,0.24,0.27,0.36
		C-303.07,312.77-303.12,312.67-303.17,312.58z M-303.17,312.58c-0.03-0.03-0.07-0.06-0.1-0.08c0.05,0.15,0.17,0.24,0.27,0.36
		C-303.07,312.77-303.12,312.67-303.17,312.58z M-301.49,318.94c-0.44,0.04,0,0.49,0.04,0.78
		C-301.44,319.46-301.48,319.2-301.49,318.94z M-301.12,315.02c-0.04-0.04-0.09-0.08-0.13-0.12c0.05,0.06,0.1,0.11,0.14,0.16
		C-301.11,315.05-301.11,315.03-301.12,315.02z M-301.14,317.99c0.06,0.09,0.11,0.18,0.19,0.26
		C-301.02,318.16-301.08,318.08-301.14,317.99z M-300.66,314.31c0.01,0.07,0.04,0.11,0.12,0.07
		C-300.48,314.25-300.57,314.29-300.66,314.31z M-300.13,325.32c-0.46-0.24-0.31,0.81,0.03,0.65
		C-300.11,325.75-300.12,325.54-300.13,325.32z M-299.79,326.44c-0.11,0.16-0.08,0.24,0.11,0.28
		C-299.58,326.56-299.61,326.49-299.79,326.44z M-299.58,323.82c-0.18,0.08,0.05,0.21,0.09,0.32
		C-299.48,324.04-299.55,323.93-299.58,323.82z M-299.35,327.24c-0.08,0.06-0.07,0.11-0.02,0.18
		C-299.3,327.36-299.3,327.31-299.35,327.24z M-298,323.9c-0.24,0.27-0.21,0.36,0.04,0.56C-297.72,324.25-297.8,324.16-298,323.9z
		 M-297.4,319.81c-0.48,0.12,0.08,0.64,0.13,1C-296.76,320.68-297.33,320.17-297.4,319.81z M-297.02,321.68
		c-0.03,0.15-0.06,0.67,0.2,0.51C-296.88,322.02-296.95,321.85-297.02,321.68z M-295.31,331.75c-0.42-2.28-1.07-1.16,0.17,0.26
		C-295.19,331.92-295.25,331.84-295.31,331.75z M-294.82,316.03c0.01,0.11,0.07,0.22,0.1,0.34
		C-294.53,316.29-294.77,316.15-294.82,316.03z M-294.58,320.7c-0.28-1.51-0.31,0.27-0.14,0.89
		C-294.19,321.62-294.58,321.06-294.58,320.7z M-293.33,325.6c-0.23-1.12-0.68-0.34,0.09,0.13
		C-293.26,325.68-293.3,325.64-293.33,325.6z M-291.63,318c0.05-0.09,0.05-0.2,0.09-0.31C-291.57,317.79-291.6,317.9-291.63,318z
		 M-291.49,330.9c0.04,0.03,0.07,0.17,0.12,0.1C-291.41,330.96-291.45,330.93-291.49,330.9z M-288.68,321.43c0,0,0,0.01,0.01,0.01
		C-288.67,321.44-288.68,321.43-288.68,321.43z M-287.06,334.86c-0.08,0-0.09,0.05-0.09,0.11
		C-287.07,334.97-286.99,334.96-287.06,334.86z M-286.81,330.93c-0.19,0.07,0.02,0.19,0.08,0.31
		C-286.76,331.14-286.78,331.03-286.81,330.93z M-286.73,331.24c0,0.01,0,0.02,0.01,0.02
		C-286.72,331.25-286.72,331.25-286.73,331.24z M-286.79,327.01c-0.17,0.2-0.13,0.33,0.08,0.47
		C-286.45,327.29-286.57,327.15-286.79,327.01z M-268.28,371.9c-0.02-0.03-0.04-0.05-0.06-0.08c0.04,0.06,0.08,0.12,0.13,0.19
		C-268.24,371.97-268.26,371.93-268.28,371.9z M-286.79,327.01c-0.17,0.2-0.13,0.33,0.08,0.47
		C-286.45,327.29-286.57,327.15-286.79,327.01z M-286.73,331.24c0,0.01,0,0.02,0.01,0.02
		C-286.72,331.25-286.72,331.25-286.73,331.24z M-286.81,330.93c-0.19,0.07,0.02,0.19,0.08,0.31
		C-286.76,331.14-286.78,331.03-286.81,330.93z M-287.06,334.86c-0.08,0-0.09,0.05-0.09,0.11
		C-287.07,334.97-286.99,334.96-287.06,334.86z M-288.68,321.43c0,0,0,0.01,0.01,0.01C-288.67,321.44-288.68,321.43-288.68,321.43z
		 M-291.49,330.9c0.04,0.03,0.07,0.17,0.12,0.1C-291.41,330.96-291.45,330.93-291.49,330.9z M-291.63,318
		c0.05-0.09,0.05-0.2,0.09-0.31C-291.57,317.79-291.6,317.9-291.63,318z M-293.33,325.6c-0.23-1.12-0.68-0.34,0.09,0.13
		C-293.26,325.68-293.3,325.64-293.33,325.6z M-294.58,320.7c-0.28-1.51-0.31,0.27-0.14,0.89
		C-294.19,321.62-294.58,321.06-294.58,320.7z M-294.82,316.03c0.01,0.11,0.07,0.22,0.1,0.34
		C-294.53,316.29-294.77,316.15-294.82,316.03z M-295.31,331.75c-0.42-2.28-1.07-1.16,0.17,0.26
		C-295.19,331.92-295.25,331.84-295.31,331.75z M-297.02,321.68c-0.03,0.15-0.06,0.67,0.2,0.51
		C-296.88,322.02-296.95,321.85-297.02,321.68z M-297.4,319.81c-0.48,0.12,0.08,0.64,0.13,1
		C-296.76,320.68-297.33,320.17-297.4,319.81z M-298,323.9c-0.24,0.27-0.21,0.36,0.04,0.56C-297.72,324.25-297.8,324.16-298,323.9z
		 M-299.35,327.24c-0.08,0.06-0.07,0.11-0.02,0.18C-299.3,327.36-299.3,327.31-299.35,327.24z M-299.58,323.82
		c-0.18,0.08,0.05,0.21,0.09,0.32C-299.48,324.04-299.55,323.93-299.58,323.82z M-299.79,326.44c-0.11,0.16-0.08,0.24,0.11,0.28
		C-299.58,326.56-299.61,326.49-299.79,326.44z M-301.12,315.02c-0.04-0.04-0.09-0.08-0.13-0.12c0.05,0.06,0.1,0.11,0.14,0.16
		C-301.11,315.05-301.11,315.03-301.12,315.02z M-300.13,325.32c-0.46-0.24-0.31,0.81,0.03,0.65
		C-300.11,325.75-300.12,325.54-300.13,325.32z M-300.66,314.31c0.01,0.07,0.04,0.11,0.12,0.07
		C-300.48,314.25-300.57,314.29-300.66,314.31z M-301.14,317.99c0.06,0.09,0.11,0.18,0.19,0.26
		C-301.02,318.16-301.08,318.08-301.14,317.99z M-301.49,318.94c-0.44,0.04,0,0.49,0.04,0.78
		C-301.44,319.46-301.48,319.2-301.49,318.94z M-303.17,312.58c-0.03-0.03-0.07-0.06-0.1-0.08c0.05,0.15,0.17,0.24,0.27,0.36
		C-303.07,312.77-303.12,312.67-303.17,312.58z M-303.17,312.58c-0.03-0.03-0.07-0.06-0.1-0.08c0.05,0.15,0.17,0.24,0.27,0.36
		C-303.07,312.77-303.12,312.67-303.17,312.58z M-301.49,318.94c-0.44,0.04,0,0.49,0.04,0.78
		C-301.44,319.46-301.48,319.2-301.49,318.94z M-301.12,315.02c-0.04-0.04-0.09-0.08-0.13-0.12c0.05,0.06,0.1,0.11,0.14,0.16
		C-301.11,315.05-301.11,315.03-301.12,315.02z M-301.14,317.99c0.06,0.09,0.11,0.18,0.19,0.26
		C-301.02,318.16-301.08,318.08-301.14,317.99z M-300.66,314.31c0.01,0.07,0.04,0.11,0.12,0.07
		C-300.48,314.25-300.57,314.29-300.66,314.31z M-300.13,325.32c-0.46-0.24-0.31,0.81,0.03,0.65
		C-300.11,325.75-300.12,325.54-300.13,325.32z M-299.79,326.44c-0.11,0.16-0.08,0.24,0.11,0.28
		C-299.58,326.56-299.61,326.49-299.79,326.44z M-299.58,323.82c-0.18,0.08,0.05,0.21,0.09,0.32
		C-299.48,324.04-299.55,323.93-299.58,323.82z M-299.35,327.24c-0.08,0.06-0.07,0.11-0.02,0.18
		C-299.3,327.36-299.3,327.31-299.35,327.24z M-298,323.9c-0.24,0.27-0.21,0.36,0.04,0.56C-297.72,324.25-297.8,324.16-298,323.9z
		 M-297.4,319.81c-0.48,0.12,0.08,0.64,0.13,1C-296.76,320.68-297.33,320.17-297.4,319.81z M-297.02,321.68
		c-0.03,0.15-0.06,0.67,0.2,0.51C-296.88,322.02-296.95,321.85-297.02,321.68z M-295.31,331.75c-0.42-2.28-1.07-1.16,0.17,0.26
		C-295.19,331.92-295.25,331.84-295.31,331.75z M-294.82,316.03c0.01,0.11,0.07,0.22,0.1,0.34
		C-294.53,316.29-294.77,316.15-294.82,316.03z M-294.58,320.7c-0.28-1.51-0.31,0.27-0.14,0.89
		C-294.19,321.62-294.58,321.06-294.58,320.7z M-293.33,325.6c-0.23-1.12-0.68-0.34,0.09,0.13
		C-293.26,325.68-293.3,325.64-293.33,325.6z M-291.63,318c0.05-0.09,0.05-0.2,0.09-0.31C-291.57,317.79-291.6,317.9-291.63,318z
		 M-291.49,330.9c0.04,0.03,0.07,0.17,0.12,0.1C-291.41,330.96-291.45,330.93-291.49,330.9z M-288.68,321.43c0,0,0,0.01,0.01,0.01
		C-288.67,321.44-288.68,321.43-288.68,321.43z M-287.06,334.86c-0.08,0-0.09,0.05-0.09,0.11
		C-287.07,334.97-286.99,334.96-287.06,334.86z M-286.81,330.93c-0.19,0.07,0.02,0.19,0.08,0.31
		C-286.76,331.14-286.78,331.03-286.81,330.93z M-286.73,331.24c0,0.01,0,0.02,0.01,0.02
		C-286.72,331.25-286.72,331.25-286.73,331.24z M-286.79,327.01c-0.17,0.2-0.13,0.33,0.08,0.47
		C-286.45,327.29-286.57,327.15-286.79,327.01z M-268.28,371.9c-0.02-0.03-0.04-0.05-0.06-0.08c0.04,0.06,0.08,0.12,0.13,0.19
		C-268.24,371.97-268.26,371.93-268.28,371.9z M-286.79,327.01c-0.17,0.2-0.13,0.33,0.08,0.47
		C-286.45,327.29-286.57,327.15-286.79,327.01z M-286.73,331.24c0,0.01,0,0.02,0.01,0.02
		C-286.72,331.25-286.72,331.25-286.73,331.24z M-286.81,330.93c-0.19,0.07,0.02,0.19,0.08,0.31
		C-286.76,331.14-286.78,331.03-286.81,330.93z M-287.06,334.86c-0.08,0-0.09,0.05-0.09,0.11
		C-287.07,334.97-286.99,334.96-287.06,334.86z M-288.68,321.43c0,0,0,0.01,0.01,0.01C-288.67,321.44-288.68,321.43-288.68,321.43z
		 M-299.58,323.82c-0.18,0.08,0.05,0.21,0.09,0.32C-299.48,324.04-299.55,323.93-299.58,323.82z M-298,323.9
		c-0.24,0.27-0.21,0.36,0.04,0.56C-297.72,324.25-297.8,324.16-298,323.9z M-297.02,321.68c-0.03,0.15-0.06,0.67,0.2,0.51
		C-296.88,322.02-296.95,321.85-297.02,321.68z M-295.31,331.75c-0.42-2.28-1.07-1.16,0.17,0.26
		C-295.19,331.92-295.25,331.84-295.31,331.75z M-294.58,320.7c-0.28-1.51-0.31,0.27-0.14,0.89
		C-294.19,321.62-294.58,321.06-294.58,320.7z M-293.33,325.6c-0.23-1.12-0.68-0.34,0.09,0.13
		C-293.26,325.68-293.3,325.64-293.33,325.6z M-291.49,330.9c0.04,0.03,0.07,0.17,0.12,0.1
		C-291.41,330.96-291.45,330.93-291.49,330.9z M-291.63,318c0.05-0.09,0.05-0.2,0.09-0.31C-291.57,317.79-291.6,317.9-291.63,318z
		 M-294.82,316.03c0.01,0.11,0.07,0.22,0.1,0.34C-294.53,316.29-294.77,316.15-294.82,316.03z M-297.4,319.81
		c-0.48,0.12,0.08,0.64,0.13,1C-296.76,320.68-297.33,320.17-297.4,319.81z M-299.35,327.24c-0.08,0.06-0.07,0.11-0.02,0.18
		C-299.3,327.36-299.3,327.31-299.35,327.24z M-299.79,326.44c-0.11,0.16-0.08,0.24,0.11,0.28
		C-299.58,326.56-299.61,326.49-299.79,326.44z M-301.12,315.02c-0.04-0.04-0.09-0.08-0.13-0.12c0.05,0.06,0.1,0.11,0.14,0.16
		C-301.11,315.05-301.11,315.03-301.12,315.02z M-300.13,325.32c-0.46-0.24-0.31,0.81,0.03,0.65
		C-300.11,325.75-300.12,325.54-300.13,325.32z M-300.66,314.31c0.01,0.07,0.04,0.11,0.12,0.07
		C-300.48,314.25-300.57,314.29-300.66,314.31z M-301.14,317.99c0.06,0.09,0.11,0.18,0.19,0.26
		C-301.02,318.16-301.08,318.08-301.14,317.99z M-301.49,318.94c-0.44,0.04,0,0.49,0.04,0.78
		C-301.44,319.46-301.48,319.2-301.49,318.94z M-303.17,312.58c-0.03-0.03-0.07-0.06-0.1-0.08c0.05,0.15,0.17,0.24,0.27,0.36
		C-303.07,312.77-303.12,312.67-303.17,312.58z"/>
	<path class="st0" d="M-212.23,360.8c-0.07,0.09-0.12,0.24-0.2,0.09C-212.36,360.85-212.3,360.82-212.23,360.8z"/>
	<path class="st0" d="M-197.01,325.37c-4.68,0-8.68,0.63-12.39,2.36c4.92-0.27,10.38-2.17,15.58-2.29
		C-194.88,325.39-195.94,325.37-197.01,325.37z M-164.62,333.19c-3.07-1.62-6.24-2.99-9.51-4.11
		C-171.67,329.24-163.48,335.96-164.62,333.19z M-152.23,345.51c0.32-2.8-5.57-11.2-5.49-5.43c-0.99,3.05,0.22,9.57-2.98,3.99
		c-13.33-9.75-30.39-14.09-46.47-9.18c-1.2,6.47-0.12,13.53,0.03,20.21c5.65,6.99,45.98,4.08,47.56-7.7
		c1.99-0.42-1.86,9.63-2.19,12.63C-154.9,357.27-151.81,351.29-152.23,345.51z M-168.56,351.19c-3.97,1.2-7.76,3.24-11.77,4.06
		c0.71-2.25,4.15-4.03,6.54-4.63C-182.02,337.29-161,347.57-168.56,351.19z M-204.22,344.22c-0.38-5.65,5.51-5.99,9.74-5.19
		c0.73,2.13-4.34,7.97-1.32,11.87C-190.33,357.97-207.25,356.47-204.22,344.22z"/>
	<path class="st0" d="M-216.2,354.57c-1.23-6.56,1.76-16.74-2.19-21.56c-15.58-2.83-34.14,1.35-45.62,12.33
		C-264.51,358.86-221.79,361.58-216.2,354.57z M-248.67,353.18c-13.73-0.61-7.95-7.96,1.33-11.13
		C-250.84,346.48-242.87,354.83-248.67,353.18z M-243.06,348.31c-1.48-0.14-0.99-1.25-0.13-2.07
		C-242.22,346.95-241.62,347.96-243.06,348.31z M-241.1,345.53c-2.14,0.16-1.95-3.25-0.05-3.26
		C-239.07,342.25-238.84,345.54-241.1,345.53z M-219.94,351.5c-1.05,3.36-4.78,2.64-7.54,2.66c-3.64-0.27,4.9-9.7-2.18-15.5
		C-220.2,335.5-216.73,343.61-219.94,351.5z"/>
	<path class="st0" d="M-267.49,348.2l-1.86,0.52c-0.11-0.32-2.57-6.53-2.58-6.67c-1.25-5.26-1.09-8.84,2.62-12.14
		C-269.12,336.05-268.49,342.15-267.49,348.2z"/>
	<path class="st0" d="M-215.2,322.63c-0.35,5.79,1.36,6.91-3.73,3.81c-15.4-3.03-32.34,0.77-46.3,9.6
		C-253.29,324.5-229.82,313.93-215.2,322.63z"/>
	<path class="st0" d="M-159.39,346.36c-6.05-2.9-10.82-8.22-17.21-10.52C-170.95,338.41-162.3,340.59-159.39,346.36z"/>
	<path class="st0" d="M-151.03,336.26c0.47,4.15-3.2,8.43-5.26,11.86c-4.12-1.18-1.41-4.87-1.42-8.04
		C-157.9,329.02-154.15,320.68-151.03,336.26z"/>
	<path class="st0" d="M-210.09,323.97c0.35,5.79-1.36,6.91,3.73,3.81c15.4-3.03,32.34,0.77,46.3,9.6
		C-171.99,325.84-195.47,315.27-210.09,323.97z"/>
</g>
<text transform="matrix(0.8912 0 0 1 -46.8711 355.5352)" class="st1 st2 st3">Habesha Art Store</text>
<text transform="matrix(1 0 0 1 -1.4014 424.624)" class="st1 st4 st5">Where Every strock tells a story.</text>
</svg>
