<?xml version="1.0" encoding="UTF-8"?>
<svg id="Layer_1" data-name="Layer 1" xmlns="http://www.w3.org/2000/svg" viewBox="0 0 283.6 414.87">
  <defs>
    <style>
      .cls-1 {
        fill: #416ab2;
        stroke-width: 0px;
      }
    </style>
  </defs>
  <path class="cls-1" d="m198.18,269.39c-1.36,1.35-1.25-1.01.15-.59.89.14.93,2.81.18,2.95-2.32.06-.28-1.62-.33-2.36Z"/>
  <g>
    <path class="cls-1" d="m241.48,252.95c-28,3.99-59.06,1.2-77.43-23.06-11.66-15.39-20.91-4.65-2.41-16.44-6.17,2.6-14.94,2.22-13.08,10.4-4.65.62-4.03-2.24-1.22-4.54-6.71,1.44-12.09,3.84-18.61.18-1.46-.36-7.32.26-3.47-1.42-2.98-.44-4-2.17-2.77-4.72-12.04-5.37-21.15,4.86-31.43,10.31.87,3.28,2.04,7.58,5.81,5.25-3.22,1.76-1.69,4.72.86,7.81-.36-3.92,11.8-5.35,11.69-1.04-2.41,1.13-11.59,1.43-10.17,4.92,5.39-1.6,33.64-9.38,17.35-15.22,18.16-.37,5.38,3.29,5.35,8.83,1.33,1.54,6.98,3.07,4.64,5.5-28.41,7.34,23.83,7.94,30.03,7.84-4.58,6.33-45.39-7.27-32.4,5.24,1.84,12.83,42.36-2.58,53.24,5.62-15.91-2.1-34.03-1.31-49.21,1.85-.38,3.09.38,7.68-4.14,7.07-4.54,1.25.24,1.69,2.39,1.55.52-1.56,1.22-1.98,3.25-1.45,1.28.42,7.34,2.24,3.64,2.69,8.73,5.3-3.5,8.46,4.65,9.78,1.86.48,3.4-6.04,3.89-1.04.08.58.32,1.32,1.04.97,1.3-.89,1.99-.03,3.16.61,3.6-.29,6.15-.09,8.73-.74,2,.99,1.41-1.63,2.84.68,2.57.49,5.37-2.85,7.8-.75,8.84-5.69,16.33,1.58,18.86,10.05,2.98,4.64,8.34,8.91,8.26,14.62,2.71,2.44,10.39-3.65,14.45-4.74-1.75-5.46-3.49-3.31-7.96-1.45-7.36,4.15-7.63.82-11.46-5.06-4.85-4.39-4.24-11.61-9.19-15.44-5.8-1.72-12.42-5.02-18.95-6.03-7.87-1.53-17.2,1.43-24.24-1.39,12.33-.57,26.91-2.72,37.64,4.79,2.02-4.62,8.92-5.14,12.92-7.86,1.88-.19.83-.83,1.85-1.35-1.77-.95,2.61-1.67,3.42-2.32-3.3-1.26-6.28,3.71-8.17-1.45-.06-2.16-1.79-6.97,2.27-5.67,2.63-.01-1.11-1-2.16-.77-1.86-.27-.65-2.45-.26-3.4-.82-.66-.45-1.91.19-2.38,5-1.94,2.21,9.87,5.02,2.24.21,1.25.31,2.76,1.91,1.89,1.38-.92,2.27.38,3.63.39,1.45-.08,2.79-.14,3.86,1.25,9.74,0,46.05.85,44.09-2.6Zm-133.99-26.89c-3.48.93-6.49,1.64-9.76,3.42-.99-5.69,10.97-8.43,9.76-3.42Zm12.44-4.61c-8.82-1.89,9.01-.81,12.1,1.98-3.97-1.13-8.05-1.47-12.1-1.98Zm50.72,54.85c.21.05.23.12.12.3-.21-.05-.24-.12-.12-.3Zm-10.53,3.14c.2.27-1.12.07-1.16.13-.19-.27,1.12-.07,1.16-.13Z"/>
    <path class="cls-1" d="m280.92,222.09c-2.77-.27-5.4,1.84-7.31-1.01-4.09-2.38-9.78-2.33-14.42-3.78-9.76-2.53-20.61,1-29.92-1.72-1.61.86-3.14-.56-4.56-.27-.39,1.03-1.19.74-1.76.7-6.33-3.59-16.82-4.73-23.19-10.52-4.14-5.85-10.66-.76-16.43-.75-4.93,3.6-20.12.97-18.88,7.5-3.79,2.82,6.25,3.88,9.22,6.34,15.22,8.57,8.63,15.2,31.49,20.93,4.05.06,21.62,8.36,15.34-.1-1.43,1.62-5.64.46-9.37-.73-7.92-2.92-19.48-4.11-23.79-12.07-4-7.81-14.45-10.65-21.98-14.28,5.77-2.86,11.31,3.74,16.8,5.5,11.01,4.81,22.35,10.62,33.25,14.97,3.37,4.96,7.48-2.73,11.24-4.38,4.71-2.08,10.24-1.2,14.64-4.46,5.86-5.27,21.31.5,11.89,7.82,6.43,2.32,20.37-1.05,21.48,4.7,2.41-4.18,5.48-9.58,6.26-14.39Zm-58.4,1.63c-3.83,1.09-4.6-2.17-1.97-4.13-4.9-.15,3.81-5.96,1.97,4.13Zm-50.51-23.93c-9.42,1.4-5.31-3.3.44-5.62-29.46-7.57-12.22,8.25-28.5,2.74,2.57,2.14,14.98,2.72,7.28,4.7,6.34-.17,16.16,1.16,20.78-1.82Z"/>
    <path class="cls-1" d="m146.8,292.22c-6.83.25-13.7-4.29-20.45-1.76-.76,1.75-2.3,1.05-3.58,1.25-4.14,1.29-7.35,5.7-11.78,5.94-3.11.79,5.48,7.54,1.4,7.41-13.59-18.43-41.67-2.92-60.35-14.05-4.88-.43-9.12-3.49-13.48-.42-1.6-6-2.8,5.09-2.71-6.07-8.12,22.88,22,38.35,35.56,31.81,7.58-.79,25.67-.26,10.26-8.13-11.48-5.04-24.66-1.38-36.35-5.45-3.67-1.44-9.63-1.63-9.07-6.84,4.77,1.65,8.97,4.05,13.69,5.64,13.48,3.58,31.76-.62,40.97,12.24,19.44-6.23,37.69-14.91,57.45-20.89-.52-.25-1.07-.74-1.56-.68Zm-100.87,17.38c14.23-3.79,35.06,11.45,18.26,4.77-4.54-5.18-14.58-.5-18.26-4.77Z"/>
    <path class="cls-1" d="m152.14,291.09c-6.77,5.09-17.65-4.29-25.79-.63-.76,1.75-2.3,1.05-3.58,1.25-4.14,1.29-7.35,5.7-11.78,5.94-3.11.79,5.48,7.54,1.4,7.41-13.59-18.43-41.67-2.92-60.35-14.05-4.88-.43-9.12-3.5-13.48-.42-.64-2.62-1.28-2.39-2.38-.04-.61-1.04-.03-3.49-.23-5.01,1.07-3.39,2.38-12.08,5.49-12.8,2.9.56,7.87-.9,9.35,2.14,4.61-1.03,10.5,3.73,15.82-.37,2,1.46,4.54-1.34,6.56-.1,3.07-.72,6.11.92,8.85-.45.95,1.56,2.66.38,3.92,1.07,1.31,1.73,6.36,3.17,6.07,4.58-6.57.2-13.24-.33-19.72.46,2.5,1.54,7.33,1.08,10.61,1.75,15.64,1.71,10.48-3.13,13.21,8.3-.15.34-.74.98-1.26.18-3.2-2.81-8.89-.24-12.96-2.15-2.12-1.81-6.62,1.23-6.69-2.5,1.05-3.12-2.42-5.99-3.87-2.36-.08.99.1,2.71-.46,3.39-3.81.26-8.02-1.8-11.75-1.6-1.37.1-2.8.78-3.71-1.19-17.68,9.06,77.88,14.14,60.98,2.68-2.44-3.55-5.94-5.39-8.34-9.1,4.45,1.95,9.3,11.31,13.61,9.33-8.78-9.84-20.14-21.57-28.79-29.99,6.75,1.99,11.45,11.1,17.51,15.42,3.88,5.05,13.09,9.97,14.02,15.51.59-.29,1.57.58,1.59-.75,1.98-1.89,4.28-2.02,6.73-.97,2.11.14,1.13,3.85,3.89,2.52,1.67.13,2.09.26,3.16-1.05-.2,1.99,1.01.96,2.25.68,3.64.31,6.64,1.84,10.12,2.92Z"/>
    <path class="cls-1" d="m282.67,208.93c-6.98-30.39-45.67-30.5-70.72-28.73,3.09,20.63,28.11,13.18,42.46,13.78,15.7,4.02-8.28,12.18-13.67,14.15-9.01,2.84,2.27-.47,6.44-.54-.46-.27-.7-.41-1.3-.75,11.71.31,26.38,4.22,36.79,2.09Zm-23.68-17.22c-3.56,1.02-4.27-2.65-1.07-4.1-6,.63,3.45-6.42,1.07,4.1Z"/>
    <path class="cls-1" d="m182.65,412.5c-10.89-30.83-25.83-60.26-40.62-89.44.77,3.8,3.6,6.61,4.35,10.53-3.46-1.84-2.13,2.53-4.38-2.39-2.25-4.15-4.51-3.71-7.5-9.66-2.18,2.97-3.34-4.55-2.04,3.76.82,1.88,7.97,15.1,4.35,11.71-16.9-26.53,4.79,12.38,9.81,21.5.06-.3.15-.68.23-1.03,4.27,4.47,34.96,70.59,35.8,55.02Zm-45.13-85.58c-.14-.1-.05-.29.11-.27.14.11.06.3-.11.27Zm33.5,69.51c-3.13-6.01-6.55-11.82-9.57-17.84-.09.33-.15.55-.25.9-1.63-2.35-3.19-7.61-4.6-8.02-2.83-6-5.69-12.07-8.69-17.82-.74-2.26-4.25-3.21-1.64-5.76-1.53-.79-.82-1.74.18-2.36,2.87-.82,3.98,9.53,7.08,11.95v-1.11c1.09.32,1.85,3.65,0,1.11,3.49-.32,25.72,47.72,17.49,38.95Z"/>
    <path class="cls-1" d="m159.9,280.12c6.77-1.58,18.54-5.65,21.86,4.11,1,6.22,10.37,11.78,9.25,17.02-34.38,7.24-15.96-8.38-31.9-9.61,2.73-1.55,1.87-8.8.79-11.52Z"/>
    <path class="cls-1" d="m148.4,304.94c-5.05-13.03-19.79-.62-29.01,2.73,5.94,10.33,10.88,22.55,18.93,30.18-2.07-5.79-6.09-10.56-6.46-16.85.96.67,1.46,2.3,2.64.53.94,1.6,1.81,3.08,2.68,4.56.92-1.4,1.96,2.55,2.77,3.34-.24-2.71,1.56.47,2.05,1.76,2.25,4.9.92.56,4.38,2.38-2.89-8.26-7.5-16.68-10.66-24.3,2.81,2.03,4.67.99,2.21-1.91-1.54-.54-3.99-6.05-1.28-4,4.09-1.69,7.56,2.2,10.54,4.6-1.68-2.38,2.95-.36,1.21-3.02Zm-5.23,26.39c.29.11.28.28.09.49-.25-.14-.26-.27-.09-.49Z"/>
    <path class="cls-1" d="m173.89,199.57c.13,1.02-3.49,1.32-1.66.45.06-.13-.13-.17-.22-.23.71-.08,1.42-.16,1.88-.22Z"/>
    <path class="cls-1" d="m280.52,219.52c-18.69-8.28-40.18-2.08-58.41-6.55-35.11-8.8-27.33-20.53.45-5.75,4.39-5.81-13.65-5.24-16.94-8.97,2.59-2.55,4.63.14,7.33,1.01,2.75,2.02,15.6,3.38,9.18-.2-20.36-5.36-2.22-8.07-11.78-11.27-.62.13-1.49.24-.68.87,2.4,1.71-1.17,3.49.97,5.29-8.74,5.23-18.69,5.6-28.1,10.82,4.97.58,11.21-4.42,15.29-1.04,5.42,5.39,21.73,12.47,27.4,11.42,10.73,3.03,22.69-.27,33.95,2.13,4.65,1.45,10.34,1.4,14.42,3.78,1.28,1.65,2.38,1.98,4.19,1.16,7.6-1.24-2,10.01-2.64,13.92-1.88,2.83-6.41,6.66-2.07,8.13,3.21-6.29,13.44-19.73,7.44-24.75Zm.95,5.13c.43-.36.35.18.47.5-.15-.16-.31-.33-.47-.5Z"/>
    <path class="cls-1" d="m282.97,220.78c-18.42-9.32-39.09-4.46-58.66-6.88,4.49.31,8.96-2.23,12.92-4.74-.73,1.95,6.99-2.65,9.95-1.57-.46-.26-.7-.41-1.3-.75,11.59,1.29,23.23,2.02,34.87,3.03,4.51-1.29,2.33,7.81,2.22,10.91Z"/>
    <path class="cls-1" d="m32,192.49s-.07-.04-.1-.06c.12.09.27.1.41.14-.11-.02-.21-.05-.31-.08Zm6.13,6.57C31.55,183.07,15.37,175.32,0,167.57c-.26,5.6,10.49,18.11,14.31,25.68.29-1.05.67.29.99-.02-1.1-1.53-1.7-3.58-2.92-5.11,5.25.29-2.3-2.95.89-5.25,2.79-2.26,4.27.16,6.53,2.17.15-4.42,4.53,3.44,6.25.69,3.16,2.8,4.78,5.12,5.92,8.82.09,2.33-2.07,4.24-.98,6.12-6.56-1.13-3.17-.67-5.45,1.94,3.61.34,6.79,4.16,9.42,4.65,2.37-2.98,7.27-4.83,3.17-8.2Zm-24.64-17.79c-.11-.02-.09-.06-.06-.14.11.01.09.06.06.14Zm5.97,1.62c-.21-.13-.69-.1-.49-.42.19.14.67.12.49.42Zm5.81,2.8c-.11-.02-.09-.06-.06-.14.12.01.09.06.06.14Zm3.57,14.74s-.03-.04-.03-.07l.09.09s-.05,0-.06-.02Zm2.68-7.26c-.16-.14-.33-.27-.48-.42.27.11.79.04.48.42Z"/>
    <path class="cls-1" d="m44.27,155.89s-.07-.06-.1-.08c.05.15.17.24.27.36-.07-.09-.12-.19-.17-.28Zm2.05,2.44s-.09-.08-.13-.12c.05.06.1.11.14.16,0-.01,0-.03-.01-.04Zm9.49,2.98c.05-.09.05-.2.09-.31-.03.1-.06.21-.09.31Zm2.95,3.43s0,.01.01.01c0,0-.01-.01-.01-.01Z"/>
    <path class="cls-1" d="m217.37,293.65c-3.37,1.97-6.82,4.52-10.38,5.82-1.66-6.4-3.97-12.76-5.52-19.47-1.58-1.88-5.35,1.63-7.94.65-1.64-.02-10.24-.12-6.06-1.73,6.93-.43,28.59-3.1,23.43-13.52-16.03-7.45,8.55-6.12,16.17-7.66,11.08-2.65,43.47.2,16.37.47-7.5.11-22.06-.49-27.02,3.68-.6,3.52.41,6.51-1.45,9.93,4.02,2.12,11.87,5.48,10.69,11.05-4.52,4.92-5.92-8.31-12.68-9.15-14.44,5.15-9.01,7.23-7.15,19.97,1.84,2.3,6.65-3.12,9.33-3.71.83,1.46-.08,3.51,2.21,3.67Z"/>
    <path class="cls-1" d="m141.01,303.71c2.77-.14,3.84,3.14,6.18,4.27-1.68-2.4,2.95-.37,1.21-3.03-.05-.11.17-.35.26-.52,8.8,10.55,21.04,20.96,30.57,32.51-6.86-3.15-18.7-20.02-22.76-19.95-4.26-4.26-9.41-5.94-13.96-9.65-6.13-.43,7.58,11.34,8.83,14.04,3.38,3.01,13.59,14.68,5.08,7.27-6.16-7.18-15.99-11.62-20.69-19.36,2.83,2.03,4.66.99,2.21-1.91-4.74-3.72-1.46-5.82,3.18-3.55-.04-.05-.08-.08-.11-.12Z"/>
    <path class="cls-1" d="m51.63,257.03c4.47-8.84,12.9-7.44,21.64-7.59-.83-4.11-9.47-.94-13.08-1.73,1.33-2.14,6.63-4.19,5.58-6.67-5.08-5.23-10.47-10.3-15.12-15.88,10.64,7.52,18.36,18.75,27.44,27.27,1.02,1.9,2.92-3.39,2.59-.51-.49.39-1.25.62-.81,1.5.31,2.49,8.02,6.83,4.39,7.11-3.59-6.14-8.98-6.96-15.59-5.15-2.49-1.29-4.41-2.95-6.86-.37-2.07,4.19-6.2,1.67-10.18,2.02Z"/>
    <path class="cls-1" d="m171.06,196.24c.32-.2.63-.4.96-.56-.33.16-.64.37-.96.56Z"/>
    <path class="cls-1" d="m171.19,193.21c-3.83-.96-7.83-1.14-11.73-1.7,4.93-1.76,17.38-6.64,11.73,1.7Z"/>
    <path class="cls-1" d="m198.5,188.07c-20.96,6.69-8.5-4.6-15.96-1.29-.57.38.22.86.64,1.57-2.53,1.91-.06,3.93,2.39,2.43-.66,1.81-3.46,1.58-4.93,2.84.9-3.25-3.9-5.13-6.24-6.55,4.75-1.43,11.82-3.82,13.67,2.58,2.47-2.81-.14-8.15,7.93-7.23-2.48.9,1.85,4.02,2.5,5.65Z"/>
    <path class="cls-1" d="m186.18,342.71c8.49,8.16,59.29,63.16,21.64,34.11-.09-.06-.21-.32-.26-.2-1.82-2.19-12.51-9.39-9.73-9.22-3.75-8.39,10.8,8.76,15.03,8.99.68-.94-6.8-11.82-6.46-9-1.49-4.56-42.78-44.03-20.22-24.68Z"/>
    <path class="cls-1" d="m224.48,199.74c-3.93-1.65-11.67-2.08-12.81-6.61.38-1.28,2.99-2.29,1.52-3.57-7.42-4.91-5.55,2.88-14.5-7.65,21.78-6.89,9.34,14.5,35.25,13.08-3.06,1.72-6.59,2.62-9.46,4.75Z"/>
    <path class="cls-1" d="m142.74,298.08c-29.78,13.13-40.55,11.71-3.44-2.61,6.73-1.92,26.91-8.53,26.96,1.19-7.62-3.44-15.8.25-23.52,1.42Z"/>
    <path class="cls-1" d="m60.71,174.55s0,.02.01.02t-.01-.02Z"/>
    <path class="cls-1" d="m198.98,366.09c.25.17.66.12.99.16-17.73-15.07-33.73-31.75-49.86-46.59,2.32,4.44,9.61,7.96,9.8,12.46-4.54-4.33-9.28-10.23-14.77-12.91,17.26,15.76,33.64,33.63,52.08,47.6-.77-1.99-.6-2.91,1.76-.72Zm-38.39-33.73s-.02-.05-.02-.08c.13-.11.16.18.02.08Zm36.63,34.45s0,.01,0,0h0Z"/>
    <path class="cls-1" d="m124.77,205.28c12.8,1.86-6.1,10.99-12,5.84,6.27-1.99,18.51-13.52,22.24-6.93-3.32,3.07-6.76-.23-10.24,1.09Z"/>
    <path class="cls-1" d="m154.44,200.54c-3.66,1.16-12.78,2.14-14.14-2.13,4.3-2.58,9.96.85,14.14,2.13Z"/>
    <path class="cls-1" d="m31.24,197.98c1.79-4.94-1.53-8.92-5.2-12.26-.72,1.39-1.75.31-2.36-.49-.83.74-1.16-.14-1.64-.51-1.4-1.13-1.97-2.02-2.25.31-2.25-2-3.74-4.43-6.53-2.16-3.18,2.29,4.35,5.54-.89,5.25,1.22,1.54,1.82,3.59,2.92,5.12-.32.31-.7-1.04-.99.02,1.69,2.67,4.49,5.71,7.61,7.66,7.05,4.36,1.44-2.77,9.07-.25-1.07-1.06,0-1.68.26-2.69Zm-4.47-10.3c.58.13.46.51-.07.2.01-.02.05-.14.07-.2Zm-2.82-1.73c.35-.21.06.12,0,.29-.15-.14-.27-.22,0-.29Zm-8.61,7.36s-.03-.04-.03-.07l.09.09s-.05,0-.06-.02Zm.94-.89c-.14-.22-.58-.4-.24-.6.14.22.57.4.24.6Zm11.99,3.61c-1.05-.09-1.92-.92-2.69-1.3,2,1.87,1.48,3.42.25,4.76-1.16-1.59-2.55.34-4.07-.61-2.14-1.91-3.31-3.94-5.06-5.99,1.85.07-.53-.79.15-1.22,2.16.38-3.5-4.23.12-2.78.24.28.61.76.78-.08,1.65-.63,2.26,1.35,3.73,1.79-2.58-5.25,6.45,3.79,6.79,5.43Zm2.55-.55c0-.08.02-.13.11-.13.07.12,0,.11-.11.13Zm-16.52-2.25s.01.04.02.02c0-.01-.02-.02-.02-.02Z"/>
    <path class="cls-1" d="m167.76,300.73c7.28,3.3,16.5,2.82,24.09.04,5.58,9.07-23.69,9.24-24.09-.04Z"/>
    <path class="cls-1" d="m115.01,305.72c0,1.1,1.15,2.38,2.47,2.72-30.16,14.47-38.9,10.11-2.47-2.72Z"/>
    <path class="cls-1" d="m38.78,203.43c9.51-1.38,27.24,24.86,37.9,30.32,1.32,2.16,5.28,3.61,6.09,2.21.39,1.77,3.19,3.95,1.95,5.51-.39.82.89,1.54,1.22,2.19,2.32,4.84-11.19-12.13-14.46-11.88-10.35-10.55-22-21.98-32.7-28.35Z"/>
    <path class="cls-1" d="m217.37,293.65c-4.76-1.57.07-7.17,3.64-6.33,1.15.55,1.35.46,1.44-.75.77-4.13,7.43-5.17,10.34-8.18,6.68,4.57-10.3,11.07-14.88,14.99-.17.11-.36.18-.54.27Z"/>
    <path class="cls-1" d="m57.92,257.32c-2.11-.12-4.24-.24-6.34-.27.08,1.71-.19,2.04-1.86,2.5-1.67.53-2.02,2.93-3,3.45-.2,2.67,6.79-.42,4.52,4.32-1.67,6.6-5.05,4.44-10.39,4.71,1.91,2.34,8.53-.87,9.95,2.84.09-.64,1.29-.41,1.65-.24,3.51,1.48-2.22-4.16.25-7.41-.38-3.39,9.77-8.46,5.22-9.9Zm-8.6,5.76c0-.33-.27-.77.21-.73-.01.31.25.77-.21.73Z"/>
    <path class="cls-1" d="m57.31,316.54c2.06,2.6,10.51,1.62,14.88,1.88,2.84,1.28,1.23,2.05,5.94,1.92-14.53,1.59-31.99-.9-39.66-14.92,5.07,5.54,11.25,10.15,18.84,11.12Z"/>
    <path class="cls-1" d="m94.4,230.63c5.48,12.7-8.32-11.58-9.03-16.35,2.96,5.21,6.08,10.44,8.41,15.63,3.04-1.23,4.12-.83.62.72Z"/>
    <path class="cls-1" d="m46.72,263c-.2,2.67,6.79-.41,4.52,4.32-4.04,9.73-14.86,4.82-4.52-4.32Z"/>
    <path class="cls-1" d="m78.12,320.35c-4.73.13-3.08-.63-5.94-1.92-4.16-.33-12.93.84-14.71-1.88,9.32,1.16,20.13,2.36,28.48-.41,13.48.26-3.05,5.08-7.83,4.21Z"/>
    <path class="cls-1" d="m79.8,227.38c-5.66-5.85-7.62-15.24-11.78-22.41,4.56,7.07,8.21,14.81,11.78,22.41Z"/>
    <path class="cls-1" d="m146.62,358.51c.05-.23.1-.45.23-1.02,6.58,11.6,13.62,23.14,19.34,34.97.3-.13.2.99.35,1.35-7.27-11.4-13.85-23.25-19.92-35.33,0-.01,0,.03,0,.03Z"/>
    <path class="cls-1" d="m86.31,245.04c1.01-1.07-1.14-1.78-1.51-2.75-.41-1.06,1.02-1.5-.03-2.45-1.22-5.28-4.57-1.64-8.09-6.08,1.69-.5,3.6-4.2,4.69-3.21.37.88-.36,2.39,1.41,2.48.17.34-.7.77-.6.9,3.09,1.77,4.37,10.54,6.55,9.66,2.26-.27-.99,1.61-1.76,2.08-1.13.55-1.68,1.32-.99,2.57-2.16-.07-.56-2.32.33-3.2Z"/>
    <path class="cls-1" d="m234.74,282.1c-2.18-1.31.58-1.18-.5-3.06-2.65-1.06,8.02-9.58,7.94-2.59-1.49.62-6.6,6.35-6,3.3-1.85.8.5,1.51-1.44,2.35Z"/>
    <path class="cls-1" d="m260.88,259.49c-3.09,3-6.15,7.97-10.87,5.38,2.49-2.41,9.43-9.34,11.06-5.55-.06.06-.12.12-.19.17Z"/>
    <path class="cls-1" d="m184.25,340.73c-9.3-8.79-24.49-22.87-29.73-30.4,10.07,9.78,20.28,20.02,29.73,30.4Z"/>
    <path class="cls-1" d="m198.68,181.91c4.06,3,7.05,6.71-.18,6.17-2.12-2.95-5.61-6.01.18-6.17Z"/>
    <path class="cls-1" d="m60.19,247.71c3.61.79,12.26-2.39,13.08,1.73-3.11-.77-17.56,2.64-13.08-1.73Z"/>
    <path class="cls-1" d="m253.23,267.1c-2.2,1.92-4.39,3.85-6.59,5.77-5.31-4.19,2.47-7.62,6.59-5.77Z"/>
    <path class="cls-1" d="m244.41,270.08c3.68,3,.44,4.15-2.22,6.37-2.36-2.97-.65-4.7,2.22-6.37Z"/>
    <path class="cls-1" d="m54.55,227.87c-1.31-.85-2.43-2.33-3.9-2.73-1.07-2.71-8.22-6.32-7.85-9.81,3.73,4.31,8.45,7.79,11.75,12.54Z"/>
    <path class="cls-1" d="m272.87,244.56c-1.63,3.67-4.55,3.26-4.96,6.94-1.82-2.16-.06-8.85,4.96-6.94Z"/>
    <path class="cls-1" d="m24.62,181.28c1.39,2.45,4.45,3.97,5.75,6.39-.63.84.32,1.23.58,1.23,1.94.16,1.98,2.34,3.7,2.84-2.17-4.61-5.66-7.95-10.03-10.46Zm6.19,6.81c.01-.06.05-.13.12-.09.06.12-.02.11-.12.09Z"/>
    <path class="cls-1" d="m42.8,215.33c-1.79,1.07-7.71-6.35-7.83-8.07,3.13,2.04,5.33,5.4,7.83,8.07Z"/>
    <path class="cls-1" d="m264.98,254.81c-2.61,4.55-3.15-3.36-.04-4.4.01,1.47.03,2.94.04,4.4Z"/>
    <path class="cls-1" d="m266.66,247.98c2.06,1.73.64,4.85-1.16,6.35.08-2.31-.97-4.73,1.16-6.35Z"/>
    <path class="cls-1" d="m173.66,193.94c-4.92-.27-10.26-1.24-15.18-2.12,4.95-.39,10.33.79,15.18,2.12Z"/>
    <path class="cls-1" d="m253.23,267.1c-1.44-.26-2.89-.52-4.33-.79.74-1.89,8.46-1.41,4.33.79Z"/>
    <path class="cls-1" d="m261.11,259.3c1.06-1.89-3.19-.33-4.31-.57,1.29-2.09,8.21-2.19,4.31.57Z"/>
    <path class="cls-1" d="m262.79,257.38c-5.53,1.37-3.83-2.79-2.61-.54,1.87.32,1.99-.8,2.33-2.58.4,1.11,1.35,2.32.28,3.12Z"/>
    <path class="cls-1" d="m37.86,278.15c-.72,1.98-.4,4.66-1.96,6.14.39-2.13.63-4.3,1.96-6.14Z"/>
    <path class="cls-1" d="m54.62,229.56c1.3,1.38,2.61,2.76,3.91,4.13-1.76-.69-3.33-2.37-3.91-4.13Z"/>
    <path class="cls-1" d="m51.57,257.05c.42,2.39-1.48,1.99-2.88,3.18.82-1.18,1.85-2.18,2.88-3.18Z"/>
    <path class="cls-1" d="m80.61,230.08c-.74,2.29-1.87-2.7-2.41-3.74,1.88.62,1.66,2.3,2.41,3.74Z"/>
    <path class="cls-1" d="m62.02,189.25c-1.32.4-1.64-1.18-1.97-2.19,1.39-.7,1.37,1.29,1.97,2.19Z"/>
    <path class="cls-1" d="m268.42,250.86c-.2-1.88-.04-2.96,2.12-2.68-.71.89-1.41,1.78-2.12,2.68Z"/>
    <path class="cls-1" d="m166.52,373.21c-.63-1.32-1.26-2.64-1.89-3.95,1.42.36,2.01,2.61,1.89,3.95Z"/>
    <path class="cls-1" d="m265.24,249.68c-.17,1.63.94,3.92-.26,5.14.13-1.7-.39-3.55.26-5.14Z"/>
    <path class="cls-1" d="m198.75,369.17c.92.78,1.84,1.55,2.76,2.33-1.3-.11-2.86-1.42-2.76-2.33Z"/>
    <path class="cls-1" d="m62.44,192.5c-.56-1.16-1.13-2.31-1.69-3.47,1.81.07,1.27,2.15,1.69,3.47Z"/>
    <path class="cls-1" d="m201.63,371.6c.66.53,1.32,1.05,1.98,1.58-1.79.06-2.7.24-1.98-1.58Z"/>
    <path class="cls-1" d="m194.52,365.35c.84.71,2.19,1.04,2.44,2.2-.84-.7-2.53-.47-2.44-2.2Z"/>
    <path class="cls-1" d="m205.33,374.7c.76.62,1.51,1.24,2.27,1.87-1.41-.08-2.11-.66-2.27-1.87Z"/>
    <path class="cls-1" d="m49.78,224.12c.89-.36.79.31.86,1.02-.28-.34-.57-.68-.86-1.02Z"/>
    <path class="cls-1" d="m185.23,341.68c-1.1.5-.99-.26-.96-.93.32.31.64.62.96.93Z"/>
    <path class="cls-1" d="m186.18,342.71c-.81.13-1.12-.19-.89-.99.3.33.59.66.89.99Z"/>
    <path class="cls-1" d="m282.42,223.13c.15-.56.3-1.11.45-1.67-.15.56-.3,1.11-.45,1.67Z"/>
    <path class="cls-1" d="m47.22,262.25c-.18.22.4.96-.48.69.16-.23.32-.46.48-.69Z"/>
    <path class="cls-1" d="m191.83,305.62c.16-.06.33-.12.49-.19-.16.07-.33.13-.49.19Z"/>
    <path class="cls-1" d="m80.12,231.04c-.15.16-.3.32-.45.48.14-.16.3-.32.45-.48Z"/>
    <path class="cls-1" d="m207.84,376.84c.12.09.23.19.35.28-.12-.09-.23-.19-.35-.28Z"/>
    <path class="cls-1" d="m14.99,194.23c.23-.18.2.01.16.2-.05-.06-.1-.13-.16-.2Z"/>
    <path class="cls-1" d="m282.67,208.93c-.05-.19-.1-.38-.14-.57.04.19.09.38.14.57Z"/>
    <path class="cls-1" d="m112.03,211.41c-.16.07-.32.14-.48.22.16-.08.32-.15.48-.22Z"/>
    <path class="cls-1" d="m236.15,281.05c-.3.3-.48.05-.13-.18.04.05.09.11.13.18Z"/>
    <path class="cls-1" d="m260.88,259.49c.07-.06.13-.11.2-.17-.07.06-.13.12-.2.17Z"/>
    <path class="cls-1" d="m51.88,256.37c-.05.06-.11.13-.16.19.05-.06.1-.12.16-.19Z"/>
    <path class="cls-1" d="m234.8,282.05l.21-.18-.21.18Z"/>
    <path class="cls-1" d="m267.82,251.63c-.02-.08.02-.11.09-.12.01.06-.02.11-.09.12Z"/>
    <path class="cls-1" d="m282.26,224.39c.02-.08.04-.15.07-.23-.03.08-.05.15-.07.23Z"/>
    <path class="cls-1" d="m112.29,211.25c-.08.05-.16.1-.24.14.08-.04.16-.09.24-.14Z"/>
    <path class="cls-1" d="m207.59,376.56c.08.09.16.17.23.26-.07-.09-.15-.17-.23-.26Z"/>
    <path class="cls-1" d="m218.1,293.22c.05-.05.1-.08.17-.09-.06.03-.12.06-.17.09Z"/>
    <path class="cls-1" d="m217.9,293.4s.03.05.04.05l-.04-.05Z"/>
    <path class="cls-1" d="m14.3,193.23c.06.16.03.08,0,0,.07.08.2.12,0,0Z"/>
    <path class="cls-1" d="m154.53,310.33c-.09-.09-.17-.17-.26-.26.08.09.17.18.26.26Z"/>
    <path class="cls-1" d="m154.88,310.57c-.12-.08-.24-.17-.36-.25.11.08.24.17.36.25Z"/>
    <path class="cls-1" d="m273.08,244.29l-.21.27c-.16-.06.14-.38.21-.27Z"/>
    <path class="cls-1" d="m146.61,358.47c.02.08.04.16.06.25-.02-.08-.04-.17-.06-.25Z"/>
    <path class="cls-1" d="m171.83,381.92c-.05.28.17.75-.21.74-.03-.35-.31-.83.21-.74Z"/>
    <path class="cls-1" d="m156.81,382.83c.05-.21.12-.24.29-.11-.04.21-.11.23-.29.11Z"/>
    <path class="cls-1" d="m257.38,248.94c-1.69-1.36-2.67-2.3-4.75-1.32.88-2.93-5.62-2.51-3.51.47-1.88-.08-1.7-1.11-2.59-2.2-7.22-3.38-14.31,3.42-21.5.43-3.19-4.05-8.53-3.63-13.38-5.24-7.77-1.53-15.14-4.64-22.3-7.94-4.22-1.26-4.37-5.73-7.08-8.52-5.34-4.57-14.62-11.09-21.1-10.08-19.92,8.18-4.07,3.66,2.88,15.34,18.39,24.26,49.43,27.04,77.43,23.05,8.81.63-2.13-3.59,5.05-4.92,2.95.36,2.09,3.82,1.26,5.5,1.21,1.04,1.03,2.13.26,3.3,3.44.67-.02-2.31,2.69-3.69,1.21,2.93,1.41-1.15,3.4-1.72.7-.4.72-.53.1-1.49-.61.72-1.12,1.72-2.61.89-.15-3.31,4.96-3.8,4.98-.31-.57,6.1,1.31,8.2.77-1.55Zm-6.19,3.37c-.54.06-1.62.28-1.59-.52,1.15-1.51.13-3.24.44-4.81,1.32-1.71,1.24,4.61,1.15,5.33Z"/>
    <path class="cls-1" d="m174.29,256.96c-15.7-2.13-31.63,1.05-47.43.86-2.34-.06-1.66-3.5-2.64-5.03-1.11-1.93-3.18-2.64-3.32-5.21,11.65-1.54,25.08,4.5,35.72-.02-6.13.1-58.46-.5-30.03-7.84,2.32-2.44-3.29-3.95-4.64-5.5.12-5.63,12.74-9.19-5.35-8.83,12.16,2.8-1.41,10.39-6.91,12.37-8.1,2.11-16.2,2.34-2.51,5.6-.7,2.22-2.29,3.31-4.72,3.16,2.34,2.09,4.05,8.91,6.2,8.74-1.51-2.4,4.17-4.49-.17-3.72.24-1.95,1.49-1.65,3-1.54,3.17-3.55,7.08,4.36,7.99,7.11,1.14,1.27,1.69,1.84.25,3.5-.37,2.05.39,4.28.35,6.38-2.58,2.52-.67,2.92,1.99,1.9.18-1.17.82-1.6,2.03-1.55,5.29.71,3.01-5.02,4.59-7.78,16.18-1.33,32.65-3.84,48.76-1.15-1-.68-2.05-1.27-3.16-1.45Zm-58.36-16.82c-4.25-5.47,8.36-5.86,10.33-.93-2.88,1.18-8.12,3.32-10.33.93Z"/>
    <path class="cls-1" d="m156.61,208.97c-6.58-.66-17.59.9-21.39-4.86-3.8,2.13-19.62,10.88-9.95,13.97,2.99-1.93,9.03-1.74,8.54,2.93,3.95,3.86,48.24-15.07,22.8-12.04Zm-7.72,5.14c-3.85,2.39-9.39.24-12.55,4.09-2.39-.62,1.29-2.71-.85-3.41-3.33-3.42-7.17-2.38-10.79-.38-1.88-2.58,3.92-3.64,5.05-5.67,2.46-3.48,6.03-3.94,6.75,1.11,1.26,6.57,10.42-1.48,15.18-.43,5.82-.54-.23,4.38-2.79,4.69Z"/>
    <path class="cls-1" d="m186.16,279.1c2.5,3,10.22,1.49,13.97.3,3.27,1.21,2.69,8.76,4.44,12.11,3.17,6.35-7.38,6.33-11.39,8.86-3.96-3.03-6.56-9.73-10.11-13.92-.92-3.38-1.27-6.91-4.63-8.84-3.42-1.79,4.4-3.54,4.7-.34.58,1.39,1.51,2.05,3.02,1.83Z"/>
    <path class="cls-1" d="m210.89,265.4c-8.06-9.09-33.02-7.1-19.79-1.95.64,4.99-16.97,5.43-18.19,11.53,1.9,4.95,8.48-2.78,10.24,2.29,3.93,5.37,34.83-2.78,27.74-11.87Zm-26.21,5.17c-12.37,1.07,6.83-2.73,7.42-6.05-.78-3.51-8-4.47,2.93-5.15,8.99.29-1.27,2.58-1.18,6.08.06,1.32-2.39,2.73-1.05,4.01-2.3-.65-5.56,1.45-8.12,1.11Zm19,1.16c-3.1,3.26-26.6,6.86-13.28,1.22,3.16-1.03,6.16-2.5,8.19-5.2.51-.29,1.22.69,1.84.07,4.01-2.64,8.18,1.25,3.25,3.91Zm5.79-5.14c-1.4,1.24-2.15-1.28-3.08-2.12,1.45-.63,4.76.27,3.08,2.12Z"/>
    <path class="cls-1" d="m243.95,253.93c-16.65,1.19-34.59,3.54-50.42.38-2.84-1.67-5.35,1.62-5.54-2.28-2.81,7.63,0-4.19-5.02-2.24-1.33,1.21.2,2.76-.93,4.36-1.11,2.1,6.74,1.48,3.16,2.19-5.53-1.15-2.48,12.46,4.64,6.66-2.98-.14-2.35-2.41-3.32-3.71,4.66,1.4,9.74-3.21,17.12,1.95,9.54-5.21,37.98-.87,40.31-7.31Zm-59.23,9.1c-.8.56-.21-3.45-.38-3.58.8-.56.21,3.46.38,3.58Zm1.95-.57c-.29.72.07-.2.04-.56.52.07.16.29-.04.56Zm.07-1.52c-.53.33-.25-.44-.31-.67.11.22.21.45.31.67Zm4.31-4.63c-2.23-.49-1.78,4.26-2.88,2.14-2.28-4.17,6-3.52,2.88-2.14Z"/>
    <path class="cls-1" d="m128.98,284.79c-5.24-2.56-9-8.02-13.14-12.14.1-3.57-11.08-9.5-12.05-16.06-1.95-5.8,1.85,2.62,3.28,3.54.07-2.35-1.79-4.38-1.65-6.74,5.61,6.64-4.31-9.99-6.16-12.79-6.46-2.8,7.67,9.51,2.75,10.66-2.03-.57-3.91,2.59-6.17,1.61-3.2-1.67-6.3-4.27-8.86-7.22-4.28.48,6.83,11.95,8.91,8.67,1.82-.49,2.97,2.19,4.29,3.17-.53,1.66.92,2.07,1.77,2.88,8.26,8.55,17.33,17.31,24.08,26.63-.07-.3,3.45-1.77,2.95-2.21Zm-24.68-33.34l1.08,1.89c-.32-.6-2.01-1.42-1.08-1.89Z"/>
    <path class="cls-1" d="m139.8,287.5c-.73,1.23-5.32,2.31-5.58-.16-.58-2.25-4.13-1.16-5.25-2.54,3.03-2.31,4.85-7.14,9.05-4.88,1.02.34,1.14-.76,1.77-.98v8.56h0Z"/>
    <path class="cls-1" d="m172.91,274.98c.17.33.33.65.5.98-11.87-6.94-26.17-2.96-38.14-5.78,12.33-.56,26.9-2.71,37.64,4.8Z"/>
    <path class="cls-1" d="m150.42,279.97c1.68,1.23,4.76-1.22,4.78,1.97.47,9.37-1.98,8.21-2.36-.08-1.51,10.44-1.91,7.9-3.2.23.38,10.12-3.05,5.72-1.98-1.7,1.16-.67,2.36.88,2.76-.42Z"/>
    <path class="cls-1" d="m147.66,280.39c.69,2.43-1.81,8.7,1.83,8.31,1.18-12.22-1.21.32,2.76-.09.33-2.21-.74-4.95.59-6.74,1.76,1.97-1.58,7.55,2.35,6.76-.65-2.48,1.69-8.03-1.68-8.5.29-.62.61-1.02,1.33-.43,3.28,1.24-2.35,10.88,4.17,8.74-.55,2.02-3.84.41-2.92,2.53-2.44,3.04-6.15-1.15-10.2-2.23,3.39-.88-1.77-8.94,1.77-8.35Z"/>
    <path class="cls-1" d="m156.27,291.67c-1.41-2.95,1.82-1.06,2.75-3.23-4.85,2.93-4.29-10.42-1.33-8.06.12,1.27-.59,7.93,1,5.5-.57-17.5,6.86,9.4-2.42,5.79Z"/>
    <path class="cls-1" d="m97.73,236.72c-.35-3.91,11.79-5.35,11.69-1.04-3.56-.39-10.71,5.79-11.69,1.04Z"/>
    <path class="cls-1" d="m146.83,283.28c.13-8.19-10.19,2.09-1.85-1.28-2.01,2.51-5.71,6.59,0,6.65,3.14.91,1.59-3.59,1.85-5.37Zm-1.89,2.99c-.33.82-.96.57-.95-.24.43-1.38,1.31-1.23.95.24Z"/>
    <path class="cls-1" d="m248.68,251.66c.73-3.25-3.48-5.23-4.75-1.85.27,3.17,2.94.13.03,4.12-1.9,4.58,7.75,3.49,3.84-.4-.19-.46.69-1.42.88-1.87Zm-1.66,2.88c-1.44,1.51-1.08-1.31-.47-2.13.93.06.4,1.46.47,2.13Zm-.59-4.37c.22.32.44.63.81,1.16-1.39.18-1.21-.42-.81-1.16Z"/>
    <path class="cls-1" d="m97.73,229.48c-1-5.69,10.96-8.44,9.76-3.42-3.48.93-6.49,1.64-9.76,3.42Z"/>
    <path class="cls-1" d="m135.57,272.54c-1.72-5.8-21.29-3.56-11.07-1.87-.36.11-.78.24-1.18.36,4.44-.11,9.07-.39,12.55,3.01-.11-.49-.21-1-.3-1.5Zm-8.61-1.84h-1.42c-.01-.11,1.54-.19,1.42,0Z"/>
    <path class="cls-1" d="m125.26,218.07c2.99-1.93,9.03-1.74,8.54,2.93-2-1.57-12.58-1.12-8.54-2.93Z"/>
    <path class="cls-1" d="m139.8,287.5v-8.58c3.71-4.46,2.1,14.49,0,8.58Z"/>
    <path class="cls-1" d="m145.14,219.47c4.17-6.85,5.73,9.56-.05,3.29-.76-2.26,5.01-3.81.05-3.29Z"/>
    <path class="cls-1" d="m132.03,223.43c-4.99-1.85-11.13-.85-15.7-3.03,5.44.01,10.77.5,15.7,3.03Z"/>
    <path class="cls-1" d="m133.38,270.12c-11.7-1.79-4.55-5.04,1.49-.29-.5.09-.99.19-1.49.29Z"/>
    <path class="cls-1" d="m191.11,263.45c1.35,2.21-3.05,3.97-4.17,2.64.35-.99,1.98-1.92,4.17-2.64Z"/>
    <path class="cls-1" d="m141.72,288.22c.11-3.11-.29-6.29.2-9.36.24,1.2.43,1.27,1.6.75.52-.23,1.17-.61,1.41.37-1.76.32-3.11.46-2.84,2.71,1.54,1.02,3.94-2.55,2.12.71-2.6.88-1.81,3.42-2.49,4.82Z"/>
    <path class="cls-1" d="m158.69,280.38c-.23,2.1.62,4.56-.49,6.41-.65-1.42-1.41-6.51.49-6.41Z"/>
    <path class="cls-1" d="m159.66,214.02c1.93-1.09,3.74-2.33,4.86-4.34-.32,5.17-.5,2.95-4.86,4.34Z"/>
    <path class="cls-1" d="m205.39,295.37c1.12-1.23,1.25,3.12,1.6,4.1-.81-1.28-1.42-2.59-1.6-4.1Z"/>
    <path class="cls-1" d="m136.07,275.95c.19-1.43-1.48-3.7.71-3.68-.05,1.34.47,2.64-.71,3.68Z"/>
    <path class="cls-1" d="m98.12,238.35c2.59.89-2.14,2.94-2.31,1.57.77-.52,1.54-1.04,2.31-1.57Z"/>
    <path class="cls-1" d="m141.9,278.27c-.61-.09-2.52.62-1.91-.36.92-.78,1.76-1.36,1.91.36Z"/>
    <path class="cls-1" d="m97.73,236.72c.61,2.93-.93.07-1.2-1.22.41.05.79.89,1.2,1.22Z"/>
    <path class="cls-1" d="m157.2,279.97c-1.14.17-.94-.19-.49-1.03.16.34.33.69.49,1.03Z"/>
    <path class="cls-1" d="m150.42,279.97c-.26.63-.57,1.03-1.08.18l1.08-.18Z"/>
    <path class="cls-1" d="m158.96,279.44c.34.08,1.07-.18,1.17.13-.35-.08-1.07.18-1.17-.13Z"/>
    <path class="cls-1" d="m146.12,280.42c-.26-.15-.52-.3-.79-.46.27.16.53.31.79.46Z"/>
    <path class="cls-1" d="m170.86,276.39c-.03.18-.17.25-.29.11-.01-.18.14-.22.29-.11Z"/>
    <path class="cls-1" d="m159.43,280.12c-.24.02-.48.05-.72.07.24-.02.48-.05.72-.07Z"/>
    <path class="cls-1" d="m134.86,269.83s.07.03.1.05c-.03,0-.06-.05-.1-.05Z"/>
    <path class="cls-1" d="m255.21,224.68c-7.68-8.03-16.58,3.41-25.26,2.56-4.01.79-8.22,4.3-10.62,7.48-1.12,3.42,2.58,5.36,2.84,8.6,4.23,7,13.8,3.09,19.25-.28,3.35-2.74,3.65-7.98,8.15-9.65,3.72-1.06,8.75-4.65,5.64-8.71Zm-15.4,16.42c-1.59,1.97-3.6,1.29-5.62,1.53-1.67-.62-2.43,1.18-3.83,1.38-1.7-.29-3.64-.08-4.71-1.98-1.83-1.24-3.63-2.65-1.03-4.36-6.22-1.94-4.06-4.79.69-7.4,3.46-1.71,7.63-.72,10.98.88-.74,2.64-1.09,5.93-1.4,8.89-.94,4.99,9.7-7.26,4.92,1.06Zm13.92-14.01c-1.59-1.4-3.11-2.74-4.77-4.2,2.73-1,6.15,1.08,4.77,4.2Z"/>
    <path class="cls-1" d="m210.63,193.96c-2.13-1.8,1.43-3.59-.97-5.29-6.57-2.86-14.69.66-21.67,1.52,2.67,2.49-6.85,15.68,2.2,11.16,8.38-2,13.32-3.81,20.44-7.39Zm-9.74-3.83c-3.44.92-6.84,1.89-10.35,2.55,4.01-3.34,10.99-5.45,16.2-4.02-1.97.44-3.91.95-5.85,1.47Zm-15.2.5c-1.23,2.17-23.58,11.4-16.69,5.57-11.49,7.53,20.94,3.23,19-6.01-.77.15-1.54.29-2.31.44Z"/>
    <path class="cls-1" d="m219.33,234.73c5.09,13.24-25.55-1.98-30.65-5.61-2.16-9.77-19.32-13.33-22.21-17.19,7.92-1.16,15.35,7.74,23.49,8.98,6.56,3.7,14.47,7.96,22.21,10.36,3.93.18,2.85,3.23,7.16,3.46Z"/>
    <path class="cls-1" d="m243.94,239.65c3.24-8.28,11.74-8.29,19.21-6.68,2.82,1.08,12.84-.95,10.91,2.72-11.72.22-20.9-4.93-30.12,3.96Z"/>
    <path class="cls-1" d="m220.62,219.64c-2.52.59-1.78-1.8.17-2.01,2.77.21,1.43,4.27,1.73,6.09-3.58,1.1-4.89-2.1-1.9-4.08Z"/>
    <path class="cls-1" d="m273.84,235.71c2.18,2.09-7.62,13.38-10.06,12.29,3.56-2.88,7.58-7.09,10.06-12.29Z"/>
    <path class="cls-1" d="m172.02,195.69c-.33.15-.64.36-.96.56.32-.2.63-.41.96-.56Z"/>
    <path class="cls-1" d="m169.49,195.81c-.16.12-.32.24-.48.37.16-.13.32-.25.48-.37Z"/>
    <path class="cls-1" d="m219.96,233.5c-.13.21-.25.41-.38.62.13-.21.25-.42.38-.62Z"/>
    <path class="cls-1" d="m88.72,314.26c-11.53-16.99-40.72-2.06-52.33-16.93,4.47-2.01,16.77,7.54,25.07,5.88,6.42-.64,33.09,4.77,27.26,11.05Z"/>
    <path class="cls-1" d="m88.72,314.26c8.58-1.39,16.52-7.67,24.99-8.07-12.67,5.53-29.38,13.5-42.3,10.13,2.93-.43,5.72.02,8.77-.57.77-.09,1.76.4,2.12-.81,2.02-.43,4.31-.41,6.42-.68Z"/>
    <path class="cls-1" d="m70.76,316.07c-2.77.42-4.75.07-6.57-1.69-4.66-4.04-11.42-2.41-17.04-3.36-2-3.88,21.1-1.17,23.61,5.05Z"/>
    <path class="cls-1" d="m56.05,316.54c-.18-.14-.37-.29-.55-.43.19.14.37.28.55.43Z"/>
    <path class="cls-1" d="m57.31,316.54c-.1,0-.19.01-.29.01.09,0,.19,0,.29-.01Z"/>
    <path class="cls-1" d="m81.12,257.17c-2.91-5.18-8.82-1.28-13.22-2.01-4.72-4.74-8.62,2.77-10.32,6.6,3.71-1.52,4.75-10.96,7.43-3.15-2.13,3.08-11.55,12.38-7.48,3.35-12.71,9.35.44,19.28,10.87,11.54.22-.87.82-1.05,1.61-.93.43-1.12,1.21-1.36,2.28-1.55.61-2.2,3.95-2.55,4.38-4.43-.12-1.09.95-.72,1.54-1.13.48-2.06,4.47-5.28,2.91-8.29Zm-21.26,8.79c1.94-3.7,5.49-5,7.18-8.73,2.51,4.77-3.34,7.96-7.18,8.73Zm9.9,1.94c-.01,3.11-3.36,2.87-5.95,3.99-6.16,0,6.29-8.13,5.95-3.99Zm5.43-4.93c-1.95,6.1-9.71,4.91-1.04-2.71.39-8.45,2.98-2.06,1.04,2.71Z"/>
    <path class="cls-1" d="m114.17,287.67c-5.55-6.02-32.43-30.09-11.01-13.64-4.31-3.46-12.23-14.24-14.84-14.18,1.6,3.62-2.29.78-3.05-.8-.26,2.95-.82,4.21-2.94,6.86-.98.9-2.52,1.06-3.63,1.38-.33,1.1-2.22.16-1.91.87-2.72,1.81-15.06,8.59-5.86,6.12,5.24-.06,10.18-.09,15.03.75,12.45,7.49,1.26,3.6-5.78,4.69-2.59.03-5.36-.12-7.87.35,2.51,1.53,7.33,1.09,10.61,1.75,6.7-.02,14.05,3.09,17.36-4.07-2.7.45-4.47-1.33-6.51-2.58-1.9-1.55-5.02-.96-6.27-3.32.8-.28,1.8-.35,1.03-1.42-.38-8.6,8.77,1.68,11.19,4.2,3.13,3.67,20.98,21.7,14.45,13.04Zm-23.13-21.08c.13-.17.22.16.33.26-.11-.09-.22-.18-.33-.26Z"/>
    <path class="cls-1" d="m101.54,292.42c-2.66-.39-4.58-2.09-6.68-2.11-.62-.84-1.34-1.46-2.51-1.34-5.1,1.17-9.77-1.48-14.65-1.48-4.61,1.68-.43-6.16-4.38-5.88-2.94.26-1.45,3.57-2.43,5.09-3.81.26-8.02-1.8-11.75-1.6-1.37.1-2.8.78-3.71-1.19-.22,2.38-3.2.63-3.56,2.36,16.92,8.16,36.66,7.11,54.75,6.42-1.68-.08-3.39-.1-5.08-.27Zm-3.48-.06c-.14-.02-.05-.07.02-.13.07.06.06.09-.02.13Zm.83.28s-.12-.07-.24-.14c.26-.03.47-.09.24.14Z"/>
    <path class="cls-1" d="m88.87,250.72c.02.18.19.42-.01.54,1.4,1.13,6.83,4.02,3.58,5.76,6,3.88,10.07,10.16,15.38,14.94,1.25,1.07,17.31,17.43,12.81,15.05h0c-8.08-3.1-14.28-12.92-21.55-18.84-4-4.31-9.82-6.15-8.1-11.77-6.61-8.72-16.8-13.77-22.71-23.11,6.76,3.13,12.92,10.18,17.71,14.93l.03.02c1.41.5,1.7,2.33,2.86,2.48Z"/>
    <path class="cls-1" d="m103.26,278.47c-3.16,3.05-7.23,5.93-7.47,10.73-3.14-4.24,2.37-8.4,4.48-11.44-2.7.45-4.47-1.33-6.51-2.58-3.24-2.2-7.07-.9-5.23-4.73.52-9.83,11.71,5.3,14.73,8.02Z"/>
    <path class="cls-1" d="m92.9,256.81c.55-1.22,1.77-2.2,3.05-2.34,1.23-1.15,3.09,2.21,4.21,3.01,2.25,5.53,9.61,9.16,13.01,14.62,1.12,2.93,17.16,15.23,11.26,15.63-.93-5.54-10.14-10.45-14.01-15.51-6.06-4.31-10.76-13.4-17.52-15.41Z"/>
    <path class="cls-1" d="m116.95,290.72c-6.38-8.17-17.89-15.62-22.53-23.45,8.18,5.77,14.33,13.51,22,19.32-.12,1.14.37,1.67,1.52,1.66.24.25.48.5.73.74,1.67,1.02-.86,1.15-1.72,1.73Z"/>
    <path class="cls-1" d="m115.73,291.19c-6.31,3.96-6.81-5.94-9.86-9.77,3.46,2.64,7.07,6.32,9.86,9.77Z"/>
    <path class="cls-1" d="m112.47,282.87c-3.38-1.92-6.42-5.68-9.06-8.59,3.33,2.63,6.9,4.83,9.06,8.59Z"/>
    <path class="cls-1" d="m116.39,286.56c-1.51-.92-3.43-1.85-3.9-3.67,1.88.16,2.66,2.43,3.9,3.67Z"/>
    <path class="cls-1" d="m117.92,288.23c-1.15.04-1.62-.54-1.51-1.65,1.04.07,1.2.93,1.51,1.65Z"/>
    <path class="cls-1" d="m118.66,288.98c-.24-.24-.48-.49-.72-.73.24.24.48.48.72.73Z"/>
    <path class="cls-1" d="m119.42,289.68c-.25-.23-.5-.46-.76-.7.26.24.51.47.76.7Z"/>
    <path class="cls-1" d="m120.63,287.01c-.08.49-.39.33-.48-.01.16.01.32.01.48.01h0Z"/>
    <path class="cls-1" d="m144.99,288.65c.15.02.29.04.44.06-.15-.02-.29-.04-.44-.06Z"/>
    <path class="cls-1" d="m95.91,289.86c.07.09.14.18.21.27-.06-.09-.14-.18-.21-.27Z"/>
    <path class="cls-1" d="m224.48,199.74c4.13-5.7,46.46-10.82,31.02,2.12-5.01,2.54-10.97,2.24-15.66,5.36-4.18,3.08-9.76,7.34-15.35,6.37h.01c-2.91-1.51-3.28-3.53-1.94-6.37,2.33-2.18-1.56-5.3,1.92-7.48Z"/>
    <path class="cls-1" d="m257.92,187.61c-5.17.94,1.42-4.7,1.22.09,2.12,7.22-7.36,3.59-1.22-.09Z"/>
    <path class="cls-1" d="m239.18,208.09c2.43-3.12,6.96-3.24,10.58-4.11-2.95,2.44-6.72,4.16-10.58,4.11Z"/>
    <path class="cls-1" d="m258.91,198.87c-.39-1.37.57-3.98.91-1.3-.04.63.17,1.41-.91,1.3Z"/>
    <path class="cls-1" d="m172.33,393.2c-6.46-17.07-14.61-30.65-23.44-43.81-3.61,5.09,5.34,14.35,7.72,22.08,1.42.42,2.96,5.66,4.6,8.02.1-.35.16-.57.25-.9,2.88,4.54,13.77,29.35,10.87,14.61Zm-17.46-32.94c0-.06.02-.11.02-.17.05.07.05.12-.02.17Z"/>
    <path class="cls-1" d="m148.89,349.39c.66,3.93-6.11,1.56-2.61-1.5-.36-.31-1.08-.82-1.03-.92,1.84-3.64,4.07-.29,3.64,2.42Z"/>
    <path class="cls-1" d="m153.53,357.48c-.34-2.68,1.52.47,1.06,1.11-.36-.37-.73-.76-1.06-1.11Z"/>
    <path class="cls-1" d="m137.72,326.85c-.18.11-.25.08-.29-.13.19-.11.25-.07.29.13Z"/>
    <path class="cls-1" d="m143.46,331.5c-.13.28-.27.38-.42.11.03-.28.19-.31.42-.11Z"/>
    <path class="cls-1" d="m222.55,207.22c-1.34,2.84-.97,4.86,1.94,6.38-33.33-6.98-34.31-22.55-1.94-6.38Z"/>
    <path class="cls-1" d="m222.72,201.95c.08.77.16,1.55.24,2.32-4.67-2.58-12.17-2.71-17.35-6.02,5.06-2.62,11.24,3.84,17.11,3.7Z"/>
    <path class="cls-1" d="m269.77,244.25c.6-1.36,2.55-1.26,3.25-.01-.84.55-2.21-.08-3.25.01Z"/>
    <path class="cls-1" d="m281.95,225.16c-.22-.27-.69-.52-.18-.67.07.23.1.47.18.67Z"/>
    <path class="cls-1" d="m68.27,233.29c4.35,6.62,11.17,12.08,17.16,16.78,10.64,10.2,3.6,11.76-3.55,1.81-12.27-16.11-36.57-30.75-44.04-47.6,9.21,10.07,20.01,20.1,30.43,29.01Z"/>
    <path class="cls-1" d="m76.55,246.58c6.76,6.63,1.78,5.63-2.85.93-8.82-9.6-20.91-21.42-30.9-32.18h-.01c-20.38-25.14,25.81,24.11,33.76,31.25Z"/>
    <path class="cls-1" d="m54.59,220.47c-5.7-5.39-12.09-10.17-16.48-16.45,7.71,4.6,17.54,14.45,24.64,22.15-1.61-.71-2.55-2.37-4.31-2.22-.82-.99-1.29-2.33-2.89-2.5-.32-.33-.64-.66-.96-.98Z"/>
    <path class="cls-1" d="m38.11,204.02c.54,1.86,2.92,2.48,3.21,4.18-1.17-.15-4.11-2.85-3.21-4.18Z"/>
    <path class="cls-1" d="m18.96,182.47c.2.13.67.12.5.41-.21-.12-.69-.1-.5-.41Z"/>
    <path class="cls-1" d="m31.01,192.74c.28.11.82.06.51.43-.18-.14-.33-.31-.51-.43Z"/>
    <path class="cls-1" d="m13.49,181.27c-.11-.02-.09-.06-.05-.14.1.01.08.06.05.14Z"/>
    <path class="cls-1" d="m31.99,192.49c.1.03.21.06.31.08-.1-.02-.2-.06-.31-.08Z"/>
    <path class="cls-1" d="m26.6,201.82c.11.06.41.04.26.19-.08-.07-.19-.12-.26-.19Z"/>
    <path class="cls-1" d="m25.27,185.69c-.11-.02-.09-.06-.05-.14.11.01.09.06.05.14Z"/>
    <path class="cls-1" d="m28.8,200.35l.1.1c-.07,0-.07-.09-.1-.1Z"/>
    <path class="cls-1" d="m32,192.49s-.07-.04-.1-.06c.03.02.06.06.1.06Z"/>
    <path class="cls-1" d="m79.23,215.31c-.05-.06-.09-.12-.13-.19.05.07.08.13.13.19Z"/>
    <path class="cls-1" d="m79.58,215.78s-.09-.1-.12-.16c.04.06.08.11.12.16Z"/>
    <path class="cls-1" d="m80.31,216.65s-.05-.05-.07-.08c.03.03.05.06.07.08Z"/>
    <path class="cls-1" d="m97.08,252.43c-7.63-9.39-12.62-23.4-18.64-34.12,2.24-4.51,5.59,6.76,7.48,9.66,4.61,8.46,9.93,15.12,11.16,24.46Z"/>
    <path class="cls-1" d="m98.12,238.36c-1,.45-1.93,1.97-3.04,1.27-.2-.44.51-1.37-.69-1.26-1.96-6.2-10.97-16.91-9.41-20.87,5.32,3.67,8.83,17.11,13.14,20.86Z"/>
    <path class="cls-1" d="m101.15,250.74c-2.33,2.86-2.01-1.46-3.09-2.97-.66-2.35-4.1-4.92-3.09-7.01-5.88-6.7-8.1-15.68-12.79-23.24,8.51,8.28,11.99,23.18,18.97,33.22Z"/>
    <path class="cls-1" d="m88.73,243.57c-2.71.64-2.33-5.8-4.51-7.38-1.32-.4-.01-2.2-1.41-2.96-2.54-6.22-6.64-12.28-9.31-19.06,2.91,2.87,6.06,3.79,5.75,8.45,2.62,7.19,6.24,14.02,9.48,20.95Z"/>
    <path class="cls-1" d="m58.77,164.75s-.01.01-.01,0c0-.01,0,0,.01,0Z"/>
    <path class="cls-1" d="m46,163.02c-.11-.22-.18-.47-.28-.71.41-.19.2.43.28.71Z"/>
    <path class="cls-1" d="m55.9,161c-.03.11-.06.21-.09.31.02-.1.07-.21.09-.31Z"/>
    <path class="cls-1" d="m46.49,161.55c-.07-.07-.12-.17-.19-.26.06.1.12.18.19.26Z"/>
    <path class="cls-1" d="m60.42,178.26c-.09.03-.17.04-.11-.07.05-.05.09.01.11.07Z"/>
    <path class="cls-1" d="m244.41,270.08c-6.2,4.3-12.13,9.17-18.75,12.79,1.18-5.57-6.67-8.93-10.69-11.05,1.86-3.42.85-6.41,1.45-9.93,9.93-6.01,26.98-2.54,39.33-4.01-2.91,1.24-5.44,6.93-7.98,6.2-6.16-1.3-20.47.93-8.35,6.9,7.86-2.66.1-2.99-3.44-5.56,3.92-1.49,7.53-1.12,11.15.06-1.3,1.5-3.26,2.23-2.72,4.6Z"/>
    <path class="cls-1" d="m219.12,287.28c-17.06,11.65-11.73,6.91-16.81-8.55,5.48-1.07,10.08-8.14,14.75-2.34,6.51,5.18,1.79,3.81,2.43,7.63.04,1.08-1.25,2.14-.37,3.26Z"/>
    <path class="cls-1" d="m267.88,245.45c-1.96.96-2.18,3.57-4.54,2.58-1.27,1.53-2.55-.79-4.16.37-3.62-.61-.71,8.74-2.45,7.95.92-17.73-9.62-1.12-2.47-6.42,1.27,1.93-2.62,2.44-2.63,4.63-1.06-2.79-3.06.39-1.59,2.3,4.4.44,9.93-1.7,2.67,3.54-21.28,20.07,12.69-6.28,15.17-14.95Zm-13.21,9.02c-.24.6-.91.22-.92-.2.54-2.24,1.51-2.07.92.2Zm4.95-.51c-.93-1.34-.04-2.64-.12-3.91.92.99.94,2.84.12,3.91Z"/>
    <path class="cls-1" d="m219.12,287.28c-.88-1.12.41-2.18.36-3.27-.68-1.67-.33-2.3,1.54-2.61,4.02,3.4-.48,4.02-.5,5.83-.46.02-.93.04-1.4.05Z"/>
    <path class="cls-1" d="m199.72,276.97c1.22-.75,1.45-.14,1.76,1.04-.71.71-1.18-.64-1.76-1.04Z"/>
    <path class="cls-1" d="m222.48,283.36c-.15-.34-.3-.68-.45-1.02.15.34.3.68.45,1.02Z"/>
    <path class="cls-1" d="m205.08,369.5h0,0Zm-.09-.26c.85-4.51-65.12-72.36-57.88-52.97.27.87,9.43,9.38,7.18,5.84-12.14-15.33,19.64,14.11,22.42,16.11.77,2.7,15.07,14.05,12.23,16.1-8.08-5.05-14.32-14.08-22.43-19.4,11.81,12.6,24.88,24.55,38.57,34.57-.03-.08-.06-.17-.09-.25Zm-58.22-55.62c-.06-.07-.06-.13.02-.18.05.06.05.12-.02.18Zm39.67,39.33l-.17-.22c.21-.19.44.1.17.22Z"/>
    <path class="cls-1" d="m205.08,369.51c-11.5-20.14-33.59-34.56-48.62-52.54h0c14.06,10.53,36.09,33.71,49.93,50.42,1.02-1.73,3.08,4,4.5,4.91,1.35,1.04,1.78,2.41,1.96,4.08-4.04.14-16.27-14.19-7.77-6.87Z"/>
    <path class="cls-1" d="m152.66,313.78c-2.94-2.99-7.29-3.13-10.15-6.45-2.57.17-2.27,1.06-.48,3,2.2.84,2.29,4.99,5.08,5.94-.11-.29-.09-.66-.31-.88.02.01.05.01.06.02-4.2-8.71,12.31,5.61,5.8-1.63Zm-7.42-.85c-.13-.16-.26-.33-.4-.48.08.12.58.34.4.48Z"/>
    <path class="cls-1" d="m148.6,317.97c.26.31.52.62.77.93-.26-.31-.52-.62-.77-.93Z"/>
    <path class="cls-1" d="m147.84,317.26c.59-.12.84.12.75.71-.25-.24-.5-.48-.75-.71Z"/>
    <path class="cls-1" d="m149.38,318.91c.24.25.48.49.72.74-.24-.24-.48-.49-.72-.74Z"/>
    <path class="cls-1" d="m141.01,303.71s.07.08.1.12c-.07,0-.11-.07-.1-.12Z"/>
    <path class="cls-1" d="m84.98,261.04c.55.95.47,1.22-.66,1-.56,1.37-.62,3.06-2,3.87-3.91,2.06-8.16,3.55-3.14-1.72,1.4-2.61,2.79-5.72,5.8-3.15Z"/>
    <path class="cls-1" d="m88.03,259.01c2.7,6.99-5.32-2.27-6.03-4.31.4-2.6,4.78,3.32,6.03,4.31Z"/>
    <path class="cls-1" d="m83.96,257.35c-6-6.5,3.97.25-2.09-5.46-4.96-.68.79,6.25,3.2,7.09-.37-.55-.67-1.15-1.11-1.63Zm-2.44-3.86c-.36-.11-.81-.22-.49-.63.37.15.93.25.49.63Z"/>
    <path class="cls-1" d="m74.45,248.27c2.07.29,3.12,3.01,4.92,4.11-1.45,1.23-3.89-2.95-4.92-4.11Z"/>
    <path class="cls-1" d="m84.26,260.52c-1.12-.1-2.56-1.36-3.15.43-.06-4.16,1.19-3.26,3.15-.43Z"/>
    <path class="cls-1" d="m67.11,241.12c1.58.26,2.92,1.55,3.24,3.11-1.11-1.01-2.27-1.96-3.24-3.11Z"/>
    <path class="cls-1" d="m70.53,244.31c.66.79,2.72,1.26,2.22,2.41-1.15-.18-2.03-1.14-2.22-2.41Z"/>
    <path class="cls-1" d="m72.78,246.75c.55-.04,1.06-.03.92.76-.51-.01-1.03,0-.92-.76Z"/>
    <path class="cls-1" d="m185.56,190.79c-5.79,2.03-1.78-1.96-3.24-3.75,2.73-3.33,3.78,1.56,3.24,3.75Z"/>
    <path class="cls-1" d="m197.72,367.3c-.17-.16-.32-.34-.5-.49.18.16.33.34.5.49Z"/>
    <path class="cls-1" d="m197.72,367.3s.07.07.11.1c-.08.01-.08-.07-.11-.1Z"/>
    <path class="cls-1" d="m52.13,175.06c-.25-.39-.5-.82-.74-1.23.61.14.6.71.74,1.23Z"/>
    <path class="cls-1" d="m50.43,164c-.43.3-.42-.47-.63-.78.41-.26.42.5.63.78Z"/>
    <path class="cls-1" d="m47.34,169.29c-.38.11-.23-.4-.33-.67.45-.09.29.35.33.67Z"/>
    <path class="cls-1" d="m58.77,164.75s-.01.01-.01,0c0-.01,0,0,.01,0Z"/>
    <path class="cls-1" d="m60.93,170.56c-.14.25-.29.26-.4.02.04-.32.2-.23.4-.02Z"/>
    <path class="cls-1" d="m47.84,169.84c-.03.17-.16.24-.27.1,0-.17.13-.21.27-.1Z"/>
    <path class="cls-1" d="m52.87,164.01c-.08,0-.17-.01-.25.01-.13-.82.21-.78.25-.01Z"/>
    <path class="cls-1" d="m46.92,157.59c0,.06-.03.14-.1.11-.09-.09.03-.1.1-.11Z"/>
    <path class="cls-1" d="m52.81,159.62c-.14.15-.13-.15-.19-.27.07.06.13.18.19.27Z"/>
    <path class="cls-1" d="m47.96,167.44c-.07-.03-.12-.18-.18-.25.13-.15.13.15.18.25Z"/>
    <path class="cls-1" d="m48.14,170.65c-.05.08-.1.09-.11-.02.03-.1.08-.07.11.02Z"/>
    <path class="cls-1" d="m60.71,174.55c-.06-.12-.27-.24-.08-.31.03.1.05.21.08.31Z"/>
    <path class="cls-1" d="m60.72,174.56s-.01-.01-.01-.02c.01,0,.01.02.01.02Z"/>
    <path class="cls-1" d="m52.3,175.32c-.05-.09-.13-.17-.17-.26.06.09.12.17.17.26Z"/>
    <path class="cls-1" d="m189.33,352.66c-1.31-4.15-49.2-48.86-35.05-30.55.67,3.01,4.71,2.6,4.4,5.17.97-.49.67.3.74.73,1.39.41,2.95,1.96,2.94,2.96,2.71.77,2.96,3.89,5.54,4.44,2.61,1.98,22.49,23.28,21.43,17.25Zm-36.44-33.9c-.06-.15-.07-.32-.2-.43.08.06.39.37.2.43Zm.69.54c-.19.02-.23-.13-.11-.28.18.03.24.16.11.28Z"/>
    <path class="cls-1" d="m155.26,324.08c1.21.65,3.96,1.54,3.43,3.2-1.42-.37-2.27-2.25-3.43-3.2Z"/>
    <path class="cls-1" d="m162.36,330.96c1.34.69,3.34,1.83,3.43,3.44-1.54-.75-2.68-1.89-3.43-3.44Z"/>
    <path class="cls-1" d="m159.43,328.01c1.39.41,2.94,1.96,2.93,2.95-1.19-.76-2.51-1.41-2.93-2.95Z"/>
    <path class="cls-1" d="m158.68,327.28c.96-.49.67.3.74.73-.78.46-.79.04-.74-.73Z"/>
    <path class="cls-1" d="m160.57,332.28c.1-.07.1.02.11.1-.06,0-.11-.02-.11-.1Z"/>
    <path class="cls-1" d="m131.44,205.99c-1.74,1.63-4.26-.5-6.67-.7,2.04-1.09,4.53.08,6.67.7Z"/>
    <path class="cls-1" d="m26.9,195.58c4.87,2.24-9.01-11.39-5.41-4.98-1.31-.36-1.79-1.9-3.1-1.9-.19,0-.4.03-.63.11-.45,1.42-1.46-1.59-2.08.28.34.79,2.84,2.67,1.18,2.58-.69.58,1.35.74.16,1.31.32,1.28,2.63,3.11,2.45,3.69,3.6,4.33,3.67,1.02,6.36,2.82,1.32-1.39,1.66-2.94-.34-4.91.5.29.9.74,1.41,1Zm-4.66-5.13c-.14.11-.13-.21.01-.08,0,.02,0,.07-.01.08Zm2.71,3.9c-.18-.52-1.42-.59-.79-1.09.14.42.83.82.79,1.09Z"/>
    <path class="cls-1" d="m16.04,191.83c.15.21.57.4.24.59-.15-.21-.57-.4-.24-.59Z"/>
    <path class="cls-1" d="m27.14,188.05c-.15-.05-.29-.11-.44-.17-.04-.32.66-.09.44.17Z"/>
    <path class="cls-1" d="m24.14,185.86c-.1.23-.19.5-.39.18.13-.06.27-.11.39-.18Z"/>
    <path class="cls-1" d="m17.01,192.99c-.1-.03-.21-.06-.31-.1.1.04.23.04.31.1Z"/>
    <path class="cls-1" d="m30.93,195.35c.08.11-.02.12-.11.13,0-.08.02-.13.11-.13Z"/>
    <path class="cls-1" d="m29.79,200.35c.08-.07.17-.14.01-.01.23-.04.05-.03-.01.01Z"/>
    <path class="cls-1" d="m19.47,196.67c-.05-.1-.15-.18,0-.25-.01.08,0,.17,0,.25Z"/>
    <path class="cls-1" d="m15.3,193.23l.1.1c-.08,0-.07-.08-.1-.1Z"/>
    <path class="cls-1" d="m17.75,188.81s-.06-.04-.1-.06c.04.02.09.03.1.06Z"/>
    <path class="cls-1" d="m88.14,315.68c1.6-.47,3.2-.94,4.8-1.4-1.6.53-3.07,1.65-4.8,1.4Z"/>
    <path class="cls-1" d="m62.75,226.17c-4.72-7.61-16.45-12.8-19.3-20.45,13.6,11.59,25.95,23.83,39.31,35.44,11.02,16.11-16.71-13.07-20.01-14.99Z"/>
    <path class="cls-1" d="m220.52,287.24c-.99-.94,1.33-1.29,1.87-1.76.22,1.76.02,2.59-1.87,1.76Z"/>
    <path class="cls-1" d="m58.51,259.79c-1.11,3.03-3.85,4.94-5.82,7.43.78-2.8,3.62-5.48,5.82-7.43Z"/>
    <path class="cls-1" d="m49.32,263.08c-.01-.32-.26-.77.21-.73-.01.31.24.78-.21.73Z"/>
    <path class="cls-1" d="m74.19,317.63c2.75-.83,6.07-1.08,8.88-1.03-2.24,1.31-6.22,1.34-8.88,1.03Z"/>
    <path class="cls-1" d="m83.93,316.62c.68-.16,1.35-.32,2.03-.49-.45,1.11-1.33.43-2.03.49Z"/>
    <path class="cls-1" d="m166.3,392.35s-.08.07-.12.1c.04-.03.08-.14.12-.1Z"/>
    <path class="cls-1" d="m88.2,238.05c-2.27-3.27-8.21-19.74-8.97-15.42,1.11,5.49,13.94,29.45,8.97,15.42Zm-8.26-15.06v-.39c.17-.09.17.49,0,.39Zm9.75,20.56s-.01.01-.01.02c.01,0,.03-.02.01-.02Z"/>
    <path class="cls-1" d="m93.87,251.39c-2.6-.78-4.93-3.73-6.9-5.74,2.19-1.88,5.89,3.83,6.9,5.74Z"/>
    <path class="cls-1" d="m93.89,250.66c-1.64-1.88-5.4-4.86-4.21-7.09,2.89.25,3.02,5.04,4.68,7.1-.15,0-.31-.01-.47-.01Z"/>
    <path class="cls-1" d="m89.1,244.26c.36.95,1.45,1.57,1.28,2.77-.47-.91-2.79-2.11-1.28-2.77Z"/>
    <path class="cls-1" d="m82.8,233.24c1.01.67.74,1.71.79,2.66-.44-.93-2.13-1.8-.79-2.66Z"/>
    <path class="cls-1" d="m81.37,230.54c.92.27.91,1.71,1.41,2.48-1.77-.09-1.03-1.6-1.41-2.48Z"/>
    <path class="cls-1" d="m80.46,228.78c.95.13.88.84.85,1.52-.92-.09-1.06-.72-.85-1.52Z"/>
    <path class="cls-1" d="m236.01,280.87c-.9.51-.96-.86.17-1.13-.08.55-.13.84-.17,1.13Z"/>
    <path class="cls-1" d="m30.85,188s.07,0,.08.01c.11.14-.19.12-.08-.01Z"/>
    <path class="cls-1" d="m42.33,215.07c.16.09.31.17.47.26-.16-.09-.32-.18-.47-.26Z"/>
    <path class="cls-1" d="m262,253.85c.26-.5.52-1.01.78-1.51.07.99.15,1.98.22,2.97-.13-.28-.26-.56-.48-1.06-.18.74-.31,1.27-.44,1.81-.04-.73-.06-1.47-.08-2.21Z"/>
    <path class="cls-1" d="m173.41,194c-.24.06-.49.12-.73.17.24-.05.49-.11.73-.17Z"/>
    <path class="cls-1" d="m262,253.85c.15,1.73.34,3.41-1.82,2.98-.49-1.56.88-2.03,1.82-2.98Z"/>
    <path class="cls-1" d="m80.46,228.78c-.03.33-.07.66-.11.99-.15-.64-.3-1.28-.46-1.92.19.32.38.63.57.93Z"/>
    <path class="cls-1" d="m263.78,248c-1.68.03-3.45.28-5.04-.39-2.26,1.31-1.12,1.55-3.91-.54-1.67.55-2.52.84-2.46-1.34-1.57.11-5-.32-3.25,2.38-1.08-.34-2-.2-2.07-1.5-1.57-3.09-12.23.5-5.62-3.55,5.96-6.93,10.37-10.52,20.01-8.11,17.34-1.1,10.71,5.65,2.34,13.05Z"/>
    <path class="cls-1" d="m250.83,249.07c.69,1.53.78,4.89-1.23,2.71,1.16-1.51.13-3.24.45-4.81,1.02-1.42,1.29,1.8.78,2.1Z"/>
    <path class="cls-1" d="m111.49,249.99c4.68-3.96,6.57,6.64,9.52,8.65-3.21,2.52.63,6.96-1.8,9.43-4.82,6.72-8.04-8.67-11.33-12.25,4.5-.35,4.43-1.17,3.61-5.83Z"/>
    <path class="cls-1" d="m105.41,253.38v.02s0-.02,0-.02Z"/>
    <path class="cls-1" d="m124.49,270.67c-10.43,4.93-18.01-7.79-21.61-16.32,4.09,4.58,4.77,8.61,2.52-.96,4.09,4.2,6.75,10.56,10.06,16.38,1.47.59,3.42-.82,5.13-.4.76,2.04,2.5.55,3.9,1.3Z"/>
    <path class="cls-1" d="m126.26,239.21c-4.22,1.9-9.76,3.67-11.97-1.32,3.87-3.36,8.97-2.9,11.97,1.32Z"/>
    <path class="cls-1" d="m102.46,246.51c-.38-2.15-2.16-3.57-2.78-5.63,2,2.35,5.04.59,7.5,2.47-.7,2.22-2.29,3.31-4.72,3.16Z"/>
    <path class="cls-1" d="m111.49,249.99c3.21,7.52-6.82,6.8-1.04,1.39-3.31.59-1.49-2.19,1.04-1.39Z"/>
    <path class="cls-1" d="m134.64,206.26c2.82,6.8,4.23,7.39,11.44,4.08,6.71-2.56,12,.37,2.8,3.78-3.12,2.09-6.8.55-10.01,2.43-7.78,3.98,2.18-1.97-7.86-3.96-2.59-1.21-3.87,1.49-6.33,1.83-2.79-2.61,8.6-5.93,9.96-8.16Z"/>
    <path class="cls-1" d="m134.64,206.26c-1.43.6-3.64,4.3-4.85,2.4.08-.09.19-.16.23-.28,1.22-.89,2.89-3.54,4.62-2.12Z"/>
    <path class="cls-1" d="m129.92,208.52s-.09.09-.13.13c0-.08.04-.13.13-.13Z"/>
    <path class="cls-1" d="m130.11,208.24c0,.08-.02.13-.1.14,0-.07.03-.12.1-.14Z"/>
    <path class="cls-1" d="m206.14,268.26c.41,7.12-30.06,10.44-15.73,4.68,2.66-1.01,5.05-1.83,7.13-3.96.6-.56.79-1.91,2.11-.98,1.97-.7,5-1.95,6.49.26Z"/>
    <path class="cls-1" d="m195.03,259.37c1.46-.23,2.86-.3,3.92,1.32-2,1.21-4.65,2.07-5.09,4.76.32,1.12-2.21,2.33-1.27,3.63-6.12,1.95-18.42,3.08-5.94-1.4,4.18-.36,8.07-3.25,3-6.13,2.03.09,9.43,1.8,5.38-2.18Z"/>
    <path class="cls-1" d="m195.03,259.37c4.05,3.98-3.34,2.27-5.4,2.18-2.02-1.94,3.98-2.49,5.4-2.18Z"/>
    <path class="cls-1" d="m208.39,267.03c-.67-.85-1.34-1.7-2.01-2.56,2.24-1.11,5.45,1.67,2.01,2.56Z"/>
    <path class="cls-1" d="m192.58,269.08c.51.24.21.53-.02.02,0,0,.02-.02.02-.02Z"/>
    <path class="cls-1" d="m192.1,255.81c-2.24.76-2.8,1.09-3.44,3.42-2.39-2.94,1.32-5.19,3.44-3.42Z"/>
    <path class="cls-1" d="m184.34,263.04c.26-1-.55-3.3.38-3.59-.26,1,.55,3.3-.38,3.59Z"/>
    <path class="cls-1" d="m186.43,260.01c-.09-1.21.86-.39,1.07.25-.36-.09-.72-.17-1.07-.25-.01,0,0,0,0,0Z"/>
    <path class="cls-1" d="m186.42,260.26c.11.33.54.75,0,.76,0-.26.01-.52,0-.76Z"/>
    <path class="cls-1" d="m186.67,262.46c.02-.34-.04-.68.37-.45-.13.15-.24.31-.37.45Z"/>
    <path class="cls-1" d="m186.67,262.46c-.06.11-.04.42-.19.26.07-.08.12-.17.19-.26Z"/>
    <path class="cls-1" d="m186.43,260.25c0-.08,0-.17,0-.25,0,.09-.01.17,0,.25Z"/>
    <path class="cls-1" d="m90.85,235.25c1.71,2.4,13.54,19.38,4.98,17.63,4.05-2.44-4.42-12.75-4.98-17.63Z"/>
    <path class="cls-1" d="m101.14,251.11c-.54-3-6.58-8.78-3.6-11.02-.26,3.17,9.86,10.94,3.6,11.02Z"/>
    <path class="cls-1" d="m128.98,284.53c-4.7-1.25-9.02-8.1-13.04-11.72,4.76,2.53,8.63,8.12,13.04,11.72Z"/>
    <path class="cls-1" d="m95.91,252.15c-2.42,3.08-1.95-8.15-6.22-8.59,2.03-3.72,4.72,6.45,6.22,8.59Z"/>
    <path class="cls-1" d="m105.41,253.38c-.32-.61-2.04-1.44-1.11-1.92.37.63.73,1.3,1.11,1.92Z"/>
    <path class="cls-1" d="m87.26,249.17c-.45-.48-1.69-.75-.87-1.39.29.45.58.92.87,1.39Z"/>
    <path class="cls-1" d="m88.87,250.72c-.52-.02-1.04-.04-.84-.81.28.27.56.54.84.81Z"/>
    <path class="cls-1" d="m88.01,249.89c-.24-.24-.49-.48-.73-.71.24.24.48.47.73.71Z"/>
    <path class="cls-1" d="m93.39,255.06c-.19-.21-.38-.42-.58-.63.2.22.39.42.58.63Z"/>
    <path class="cls-1" d="m116.95,272.28c-.1.04-.2.07-.3.1-.05-.19.18-.08.3-.1Z"/>
    <path class="cls-1" d="m115.94,272.8s-.06-.1-.1-.15c.05.05.21.08.1.15Z"/>
    <path class="cls-1" d="m144.97,284.99c.06.78.13,1.48-.64,1.94-.59-.65-.19-2.01.64-1.94Z"/>
    <path class="cls-1" d="m247.05,252.54c-.09.92.4,2.05-.63,2.56-.94-.5-.27-2.89.63-2.56Z"/>
    <path class="cls-1" d="m247.23,251.32c-1.38.19-1.2-.41-.81-1.15.23.31.45.63.81,1.15Z"/>
    <path class="cls-1" d="m125.65,270.6c1.62-.04,1.32.15-.11.09.04-.02.07-.05.11-.09Z"/>
    <path class="cls-1" d="m123.33,270.32c.09-.06.17-.12.26-.18-.09.06-.18.12-.26.18Z"/>
    <path class="cls-1" d="m96.59,240.38c0,.33-.03.67-.04,1-1.11.1-.89-1.29.04-1Z"/>
    <path class="cls-1" d="m227.42,229.56c11.41-.19,8.29,1.55,7.46,10.49-.92,4.94,9.74-7.17,4.94,1.05-2.22,2.96-5.93.11-8.26,2.36-2.45,1.67-5.12-.54-7.05-2.19-3.18-1.99,1.34-3.08-1.02-4.51,1.66-.93,3.34-1.46,2.75-3.61-.88-1.82,1.71-1.78,1.18-3.59Z"/>
    <path class="cls-1" d="m227.42,229.56c.53,1.81-2.06,1.77-1.18,3.59-1.9,8.6-11.95.23,1.18-3.59Z"/>
    <path class="cls-1" d="m253.72,227.09c-1.59-1.4-3.11-2.75-4.76-4.21,2.73-.99,6.16,1.09,4.76,4.21Z"/>
    <path class="cls-1" d="m190.54,192.69c4.02-3.34,10.99-5.45,16.19-4.03-5.4,1.2-10.62,2.97-16.19,4.03Z"/>
    <path class="cls-1" d="m182.93,198.55c.47-.11.94-.2,1.41-.28-.47.08-.94.17-1.41.28Z"/>
    <path class="cls-1" d="m90.47,313.8c-.51.15-1.01.31-1.52.46.5-.15,1.01-.31,1.52-.46Z"/>
    <path class="cls-1" d="m57.53,261.96c3.47-1.74,4.93-11.05,7.48-3.35-2.13,3.07-11.54,12.38-7.48,3.35Z"/>
    <path class="cls-1" d="m76.22,256.25c-.88,3.77-.06,10.63-5.26,10.38-3.57-1.32,2.64-4.43,3.19-6.38.29-1.72-.97-4.34,2.07-4Z"/>
    <path class="cls-1" d="m61.8,271.34c.68-1.94,7.44-6.92,7.96-3.44.01,3.04-5.22,4.39-7.96,3.44Z"/>
    <path class="cls-1" d="m59.85,265.96c1.94-3.7,5.49-5,7.18-8.73,2.52,4.77-3.33,7.96-7.18,8.73Z"/>
    <path class="cls-1" d="m76.64,267.18c.02.23.03.46.05.69h-.01c-1.46,1.06-2.68,2.52-4.39,3.16.83-1.9,2.83-2.65,4.35-3.85Z"/>
    <path class="cls-1" d="m81.11,260.32c-.03,1.44-1.35,2.58-1.93,3.88.65-1.3,1.29-2.59,1.93-3.88Z"/>
    <path class="cls-1" d="m72.22,271.07c-.7.48-1.39.96-2.09,1.44.23-1.16,1.17-1.28,2.09-1.44Z"/>
    <path class="cls-1" d="m78.11,265.67c-.46.47-.93.94-1.39,1.41-.23-1.16.31-1.55,1.39-1.41Z"/>
    <path class="cls-1" d="m70.01,272.57c-.54.31-1.08.62-1.62.93.22-.86.83-1.05,1.62-.93Z"/>
    <path class="cls-1" d="m79.14,264.23c-.31.42-.62.83-.93,1.25-.09-.72-.22-1.46.93-1.25Z"/>
    <path class="cls-1" d="m107.82,276.72c-6.16-5.69-12.42-12.85-18.85-17.43,5.24,5.1,13.91,16.73,18.85,17.43Zm-5.6-4.75c-.05-.07-.09-.15.03-.12.06.04.04.1-.03.12Z"/>
    <path class="cls-1" d="m88.03,259.01c-.07-.23-.17-.6.02-.78.24.41.71.85-.02.78Z"/>
    <path class="cls-1" d="m91.42,266.88c-.09-.12-.47-.23-.3-.37.1.11.18.27.3.37Z"/>
    <path class="cls-1" d="m76.38,268.1c.16-.11.33-.36.3,0-.1,0-.2,0-.3,0Z"/>
    <path class="cls-1" d="m76.68,268.11s.06.04.1.06c-.03-.03-.07-.04-.1-.06Z"/>
    <path class="cls-1" d="m98.64,292.5c.16-.02.27-.03.37-.04-.1.22-.13.21-.37.04Z"/>
    <path class="cls-1" d="m98.06,292.36c.05-.04.03-.02,0,0-.17,0,.02-.21,0,0Z"/>
    <path class="cls-1" d="m62.9,226.69c3.97,1.52,7.17,6.12,10.11,9.27-3.26-1.28-8.97-6.02-10.11-9.27Z"/>
    <path class="cls-1" d="m120.63,287.02c-.2-.26-.1-.13,0,0-.38.04-.56-.04,0,0Z"/>
    <path class="cls-1" d="m88.98,251.15s-.08.07-.11.1c.03-.02.06-.08.11-.1Z"/>
    <path class="cls-1" d="m95.88,254.32s.05.1.07.16c-.09-.05-.21-.07-.07-.16Z"/>
    <path class="cls-1" d="m154.89,360.09c.05.07.05.12-.02.18.01-.06.01-.12.02-.18Z"/>
    <path class="cls-1" d="m76.55,246.58c-4.21-3.86-8.72-7.74-12.12-12.29,4.21,3.73,9.17,7.55,12.12,12.29Z"/>
    <path class="cls-1" d="m62.9,226.69c-.17,2.35,4.34,3.94,5.21,6.55-3.97-1.37-14.95-14.64-5.21-6.55Z"/>
    <path class="cls-1" d="m84.26,255.09c-.3-1.42,3.5,2.35,1.54,1.74-.52-.58-1.03-1.16-1.54-1.74Z"/>
    <path class="cls-1" d="m55.58,221.47c1.45.21,2.15,1.24,2.71,2.44-1.37-.3-2-1.41-2.71-2.44Z"/>
    <path class="cls-1" d="m87.3,258.27c-.07-.39-.52-.5-.78-.77-.63-1.89,2.63,1.41.78.77Z"/>
    <path class="cls-1" d="m54.59,220.47c.32.33.64.66.97.99-.33-.34-.65-.67-.97-.99Z"/>
    <path class="cls-1" d="m64.38,234.16c-.43-.15-.48-1.03,0-.66v.66Z"/>
    <path class="cls-1" d="m81.87,251.88c-.18-.14-.35-.28-.53-.42.18.15.35.28.53.42Z"/>
    <path class="cls-1" d="m82.06,252.15c-.07-.09-.14-.18-.21-.27.07.09.14.18.21.27Z"/>
    <path class="cls-1" d="m43.06,206.98c1.45,1.01,2.72,2.17,3.68,3.66-1.83-.41-2.95-2.15-3.68-3.66Z"/>
    <path class="cls-1" d="m79.23,215.31c-.05-.06-.09-.12-.13-.19.05.07.08.13.13.19Z"/>
    <path class="cls-1" d="m79.58,215.78s-.09-.1-.12-.16c.04.06.08.11.12.16Z"/>
    <path class="cls-1" d="m80.27,216.61s.03.03.04.05c-.03-.03-.05-.05-.07-.08l.03.03Z"/>
    <path class="cls-1" d="m90.16,234.27c-4.66-4.47-6.3-11.23-9.12-16.73,4.6,2.96,6.57,11.39,9.12,16.73Z"/>
    <path class="cls-1" d="m79.59,220.65c-.78.19-1.49-1.72-1.16-2.34.61.67,1.41,1.25,1.16,2.34Z"/>
    <path class="cls-1" d="m80.52,222.64c-.28-.61-.56-1.22-.84-1.83.82.36.94,1.04.84,1.83Z"/>
    <path class="cls-1" d="m82.3,226.14c-.08-.17-.16-.34-.24-.51.08.17.16.34.24.51Z"/>
    <path class="cls-1" d="m95.08,239.63c-.11-.48-1.27-.4-.69-1.26,1.21-.12.5.82.69,1.26Z"/>
    <path class="cls-1" d="m100.99,250.18c.05.18.1.37.16.56-.06-.19-.11-.37-.16-.56Z"/>
    <path class="cls-1" d="m248.55,264.69c-3.8,1.5-8.13-1.73-12.57.74,3.55,2.57,11.29,2.9,3.43,5.56-12.65-5.83,3.72-9.15,9.14-6.3Z"/>
    <path class="cls-1" d="m259.5,250.05c.92.99.94,2.85.12,3.91-.93-1.34-.04-2.64-.12-3.91Z"/>
    <path class="cls-1" d="m254.91,252.53c-.2.7.15,2.08-.73,2.28-.84-.34,0-2.61.73-2.28Z"/>
    <path class="cls-1" d="m257.86,248.22c-.06-1.42,1.54-.25,2.29-.19-.73.47-1.48.39-2.29.19Z"/>
    <path class="cls-1" d="m261.23,248.05c.7-.01,1.41-.01,2.11-.01-.7.61-1.4,1.06-2.11.01Z"/>
    <path class="cls-1" d="m186.59,352.83c-.14.18-.23.05-.32-.09.16-.11.22-.1.32.09Z"/>
    <path class="cls-1" d="m146.83,313.54c-.05.08-.1.09-.11-.01.03-.11.08-.08.11.01Z"/>
    <path class="cls-1" d="m156.46,316.97c0,.09,0,.18,0,.27,0-.09,0-.18,0-.27Z"/>
    <path class="cls-1" d="m176.61,338.33l.1-.1c0,.07-.06.08-.1.1Z"/>
    <path class="cls-1" d="m205.08,369.51c.16.12.53.21.24.39-.08-.13-.15-.27-.24-.39Z"/>
    <path class="cls-1" d="m144.94,312.55c.09.13.48.24.3.38-.1-.13-.22-.25-.3-.38Z"/>
    <path class="cls-1" d="m144.93,312.55s-.06-.07-.1-.11c.07,0,.1.06.1.11Z"/>
    <path class="cls-1" d="m146.9,315.49l-.1-.1c.07,0,.08.06.1.1Z"/>
    <path class="cls-1" d="m86.49,256.83c.01.22.02.44.04.67-.24-.22-.49-.44-.73-.66.23-.01.46-.01.69-.01Z"/>
    <path class="cls-1" d="m87.3,258.27c.43-.01.78-.01.65.51-.22-.18-.43-.35-.65-.51Z"/>
    <path class="cls-1" d="m86.56,257.53c.22.17.45.33.67.5-.23-.17-.45-.33-.67-.5Z"/>
    <path class="cls-1" d="m81.02,252.86c.38.14.94.26.49.63-.35-.11-.8-.22-.49-.63Z"/>
    <path class="cls-1" d="m53.02,164.86c-.51.19-.29-.5-.4-.85.43-.09.27.55.4.85Z"/>
    <path class="cls-1" d="m54.11,168.91c-.18,0-.3-.36-.47-.51.4-.33.34.22.47.51Z"/>
    <path class="cls-1" d="m51.88,174.08c-.44-.17-.56-.28-.18-.63.06.2.12.42.18.63Z"/>
    <path class="cls-1" d="m49.64,167.54c-.13.44-.6-.02-.2-.32.09.14.19.23.2.32Z"/>
    <path class="cls-1" d="m50.62,165.5c-.26.16-.23-.36-.2-.51.07.17.14.34.2.51Z"/>
    <path class="cls-1" d="m56.07,174.31c-.05.07-.08-.06-.12-.1.04.03.08.06.12.1Z"/>
    <path class="cls-1" d="m54.21,169.04s-.09-.06-.13-.1c.05-.08.08.05.13.1Z"/>
    <path class="cls-1" d="m153.67,319.11c-.03.19-.16.26-.28.11,0-.18.13-.22.28-.11Z"/>
    <path class="cls-1" d="m152.79,318.44c.05.11.27.25.1.32-.03-.11-.08-.21-.1-.32Z"/>
    <path class="cls-1" d="m152.79,318.44s-.07-.07-.1-.11c.06,0,.09.06.1.11Z"/>
    <path class="cls-1" d="m24.62,193.97c-.35-.22-.95-.33-.46-.71.15.25.37.46.46.71Z"/>
    <path class="cls-1" d="m24.64,193.96c.1.13.5.25.31.39-.09-.13-.26-.25-.31-.39Z"/>
    <path class="cls-1" d="m22.25,190.36s.01.07-.01.08c-.14.11-.13-.19.01-.08Z"/>
    <path class="cls-1" d="m19.48,196.66c-.09-.34.13-.18.31-.08-.11.03-.21.06-.31.08Z"/>
    <path class="cls-1" d="m25.58,194.73s-.06-.1-.09-.15c.06.05.21.07.09.15Z"/>
    <path class="cls-1" d="m79.95,222.99c.03-.13-.09-.42.11-.39-.04.14.08.43-.11.39Z"/>
    <path class="cls-1" d="m94.35,250.68c.15.13.57.24.25.4-.09-.12-.14-.31-.25-.4Z"/>
    <path class="cls-1" d="m102.3,271.92c-.07.08-.1.01-.13-.06.06-.02.1-.02.13.06Z"/>
  </g>
  <path class="cls-1" d="m85.54,177.34c-1.13.61-2.29,1.29-3.33,2.01.63-.59,3.45-3.49,3.33-2.01Z"/>
  <path class="cls-1" d="m44.27,155.89s-.07-.06-.1-.08c.05.15.17.24.27.36-.07-.09-.12-.19-.17-.28Zm11.54,5.42c.05-.09.05-.2.09-.31-.03.1-.06.21-.09.31Zm4.57,16.86c-.08,0-.09.05-.09.11.08,0,.16,0,.09-.11Zm18.78,37.04s-.04-.05-.06-.08c.04.06.08.12.13.19-.03-.04-.05-.08-.07-.11Zm-18.78-37.04c-.08,0-.09.05-.09.11.08,0,.16,0,.09-.11Zm-4.57-16.86c.05-.09.05-.2.09-.31-.03.1-.06.21-.09.31Zm-9.49-2.98s-.09-.08-.13-.12c.05.06.1.11.14.16,0-.01,0-.03-.01-.04Zm-2.05-2.44s-.07-.06-.1-.08c.05.15.17.24.27.36-.07-.09-.12-.19-.17-.28Zm0,0s-.07-.06-.1-.08c.05.15.17.24.27.36-.07-.09-.12-.19-.17-.28Zm1.68,6.36c-.44.04,0,.49.04.78,0-.26-.03-.52-.04-.78Zm.35-.95c.06.09.11.18.19.26-.07-.09-.13-.17-.19-.26Zm.48-3.68c.01.07.04.11.12.07.06-.13-.03-.09-.12-.07Zm.53,11.01c-.46-.24-.31.81.03.65,0-.22-.02-.43-.03-.65Zm-.99-10.3s-.09-.08-.13-.12c.05.06.1.11.14.16,0-.01,0-.03-.01-.04Zm1.33,11.42c-.11.16-.08.24.11.28.1-.16.07-.23-.11-.28Zm.21-2.62c-.18.08.05.21.09.32,0-.1-.06-.21-.09-.32Zm.23,3.42c-.08.06-.07.11-.02.18.07-.06.07-.11.02-.18Zm1.35-3.34c-.24.27-.21.36.04.56.24-.21.16-.3-.04-.56Zm.6-4.09c-.48.12.08.64.13,1,.51-.13-.06-.64-.13-1Zm.38,1.87c-.03.15-.06.67.2.51-.06-.17-.13-.34-.2-.51Zm1.71,10.07c-.42-2.28-1.07-1.16.17.26-.05-.09-.11-.17-.17-.26Zm.49-15.72c.01.11.07.22.1.34.19-.08-.05-.22-.1-.34Zm.24,4.67c-.28-1.51-.31.27-.14.89.53.03.14-.53.14-.89Zm1.25,4.9c-.23-1.12-.68-.34.09.13-.02-.05-.06-.09-.09-.13Zm1.7-7.6c.05-.09.05-.2.09-.31-.03.1-.06.21-.09.31Zm.14,12.9s.07.17.12.1c-.04-.04-.08-.07-.12-.1Zm2.81-9.47s0,.01.01.01c0,0-.01-.01-.01-.01Zm1.62,13.43c-.08,0-.09.05-.09.11.08,0,.16,0,.09-.11Zm.25-3.93c-.19.07.02.19.08.31-.03-.1-.05-.21-.08-.31Zm.08.31s0,.02.01.02t-.01-.02Zm-.06-4.23c-.17.2-.13.33.08.47.26-.19.14-.33-.08-.47Zm18.51,44.89s-.04-.05-.06-.08c.04.06.08.12.13.19-.03-.04-.05-.08-.07-.11Zm-18.51-44.89c-.17.2-.13.33.08.47.26-.19.14-.33-.08-.47Zm.06,4.23s0,.02.01.02t-.01-.02Zm-.08-.31c-.19.07.02.19.08.31-.03-.1-.05-.21-.08-.31Zm-.25,3.93c-.08,0-.09.05-.09.11.08,0,.16,0,.09-.11Zm-1.62-13.43s0,.01.01.01c0,0-.01-.01-.01-.01Zm-2.81,9.47s.07.17.12.1c-.04-.04-.08-.07-.12-.1Zm-.14-12.9c.05-.09.05-.2.09-.31-.03.1-.06.21-.09.31Zm-1.7,7.6c-.23-1.12-.68-.34.09.13-.02-.05-.06-.09-.09-.13Zm-1.25-4.9c-.28-1.51-.31.27-.14.89.53.03.14-.53.14-.89Zm-.24-4.67c.01.11.07.22.1.34.19-.08-.05-.22-.1-.34Zm-.49,15.72c-.42-2.28-1.07-1.16.17.26-.05-.09-.11-.17-.17-.26Zm-1.71-10.07c-.03.15-.06.67.2.51-.06-.17-.13-.34-.2-.51Zm-.38-1.87c-.48.12.08.64.13,1,.51-.13-.06-.64-.13-1Zm-.6,4.09c-.24.27-.21.36.04.56.24-.21.16-.3-.04-.56Zm-1.35,3.34c-.08.06-.07.11-.02.18.07-.06.07-.11.02-.18Zm-.23-3.42c-.18.08.05.21.09.32,0-.1-.06-.21-.09-.32Zm-.21,2.62c-.11.16-.08.24.11.28.1-.16.07-.23-.11-.28Zm-.34-1.12c-.46-.24-.31.81.03.65,0-.22-.02-.43-.03-.65Zm-.53-11.01c.01.07.04.11.12.07.06-.13-.03-.09-.12-.07Zm-.48,3.68c.06.09.11.18.19.26-.07-.09-.13-.17-.19-.26Zm.02-2.97s-.09-.08-.13-.12c.05.06.1.11.14.16,0-.01,0-.03-.01-.04Zm-.37,3.92c-.44.04,0,.49.04.78,0-.26-.03-.52-.04-.78Zm-1.68-6.36s-.07-.06-.1-.08c.05.15.17.24.27.36-.07-.09-.12-.19-.17-.28Zm0,0s-.07-.06-.1-.08c.05.15.17.24.27.36-.07-.09-.12-.19-.17-.28Zm1.68,6.36c-.44.04,0,.49.04.78,0-.26-.03-.52-.04-.78Zm.35-.95c.06.09.11.18.19.26-.07-.09-.13-.17-.19-.26Zm.48-3.68c.01.07.04.11.12.07.06-.13-.03-.09-.12-.07Zm.53,11.01c-.46-.24-.31.81.03.65,0-.22-.02-.43-.03-.65Zm-.99-10.3s-.09-.08-.13-.12c.05.06.1.11.14.16,0-.01,0-.03-.01-.04Zm1.33,11.42c-.11.16-.08.24.11.28.1-.16.07-.23-.11-.28Zm.21-2.62c-.18.08.05.21.09.32,0-.1-.06-.21-.09-.32Zm.23,3.42c-.08.06-.07.11-.02.18.07-.06.07-.11.02-.18Zm1.35-3.34c-.24.27-.21.36.04.56.24-.21.16-.3-.04-.56Zm.6-4.09c-.48.12.08.64.13,1,.51-.13-.06-.64-.13-1Zm.38,1.87c-.03.15-.06.67.2.51-.06-.17-.13-.34-.2-.51Zm1.71,10.07c-.42-2.28-1.07-1.16.17.26-.05-.09-.11-.17-.17-.26Zm.49-15.72c.01.11.07.22.1.34.19-.08-.05-.22-.1-.34Zm.24,4.67c-.28-1.51-.31.27-.14.89.53.03.14-.53.14-.89Zm1.25,4.9c-.23-1.12-.68-.34.09.13-.02-.05-.06-.09-.09-.13Zm1.7-7.6c.05-.09.05-.2.09-.31-.03.1-.06.21-.09.31Zm.14,12.9s.07.17.12.1c-.04-.04-.08-.07-.12-.1Zm2.81-9.47s0,.01.01.01c0,0-.01-.01-.01-.01Zm1.62,13.43c-.08,0-.09.05-.09.11.08,0,.16,0,.09-.11Zm.25-3.93c-.19.07.02.19.08.31-.03-.1-.05-.21-.08-.31Zm.08.31s0,.02.01.02t-.01-.02Zm-.06-4.23c-.17.2-.13.33.08.47.26-.19.14-.33-.08-.47Zm18.51,44.89s-.04-.05-.06-.08c.04.06.08.12.13.19-.03-.04-.05-.08-.07-.11Zm.3.42c.04.06.08.11.12.16-.04-.06-.08-.11-.12-.16Zm15.2,5.81c-5.1,5.14-6.61-3.54-9.29-7.16,2.21,4.16-1.5,3.11-4.54,3.26-7.57.71-9.15-7.87-12.8-12.58,6.82,12.37,5.5,23.91,23.1,18.94,1.77-.65,4.91.63,3.53-2.46Zm-50.39-65.55s-.07-.06-.1-.08c.05.15.17.24.27.36-.07-.09-.12-.19-.17-.28Zm1.68,6.36c-.44.04,0,.49.04.78,0-.26-.03-.52-.04-.78Zm.35-.95c.06.09.11.18.19.26-.07-.09-.13-.17-.19-.26Zm.48-3.68c.01.07.04.11.12.07.06-.13-.03-.09-.12-.07Zm.53,11.01c-.46-.24-.31.81.03.65,0-.22-.02-.43-.03-.65Zm-.99-10.3s-.09-.08-.13-.12c.05.06.1.11.14.16,0-.01,0-.03-.01-.04Zm1.33,11.42c-.11.16-.08.24.11.28.1-.16.07-.23-.11-.28Zm.21-2.62c-.18.08.05.21.09.32,0-.1-.06-.21-.09-.32Zm.23,3.42c-.08.06-.07.11-.02.18.07-.06.07-.11.02-.18Zm1.35-3.34c-.24.27-.21.36.04.56.24-.21.16-.3-.04-.56Zm.6-4.09c-.48.12.08.64.13,1,.51-.13-.06-.64-.13-1Zm.38,1.87c-.03.15-.06.67.2.51-.06-.17-.13-.34-.2-.51Zm1.71,10.07c-.42-2.28-1.07-1.16.17.26-.05-.09-.11-.17-.17-.26Zm.49-15.72c.01.11.07.22.1.34.19-.08-.05-.22-.1-.34Zm.24,4.67c-.28-1.51-.31.27-.14.89.53.03.14-.53.14-.89Zm1.25,4.9c-.23-1.12-.68-.34.09.13-.02-.05-.06-.09-.09-.13Zm1.7-7.6c.05-.09.05-.2.09-.31-.03.1-.06.21-.09.31Zm.14,12.9s.07.17.12.1c-.04-.04-.08-.07-.12-.1Zm2.81-9.47s0,.01.01.01c0,0-.01-.01-.01-.01Zm1.62,13.43c-.08,0-.09.05-.09.11.08,0,.16,0,.09-.11Zm.25-3.93c-.19.07.02.19.08.31-.03-.1-.05-.21-.08-.31Zm.08.31s0,.02.01.02t-.01-.02Zm-.06-4.23c-.17.2-.13.33.08.47.26-.19.14-.33-.08-.47Zm18.51,44.89s-.04-.05-.06-.08c.04.06.08.12.13.19-.03-.04-.05-.08-.07-.11Zm.3.42c.04.06.08.11.12.16-.04-.06-.08-.11-.12-.16Zm10.13,8.23c-1.67-1.8-2.11-6.71-4.6-6.37-1.73.55-7.87-1.09-6.55.82,4.01,6.88,1.98,7.74,11.15,5.55Zm159.56-111.68c-11.66-11.96,2.05-20.23-5.36-30.21-12.96-6.78-3.49-19.67-12.21-26.97-15.34-3.37-8.21-20.79-21.32-23.8-11.75.64-11.56-12.52-19.95-16.41-20.86,2.92-16.95-11.78-31.01-10.71-9.86,5.79-16.73-1.89-25.76-4.08-21.82,13.86-21.8-2.57-34.26,7.03-5.73,12.24-20.61,2.47-26.79,12.33-2.32,13.53-19.17,8.13-22.83,19.1.96,14.1-16.3,12.74-17.2,24.32,1.38,8.09-1.55,14.5-8.13,19.25-7.17,9.45,6.04,19.09-5.1,29.67-4.15,11.43,10.76,16.52,2.7,30.46-2.03,9.54,12.91,12.11,10.63,22.17-4.1,13.47,12.64,13.18,15.61,23.12.06,13.89,11.51,11.72,19.85,17.54-3.61-5.14-4.5-14.62-7.98-17.91-3.52-6.99-12.24-9.71-13.83-18.02-1.83-8.93-13.95-43.05.42-23.7,12.07,10.32,19.07,22.2,20.76,37.85,6.64,9.96,12.23,20.59,17.98,31.09-45.2-117.99,115.35-140.61,104.68-33.42-.37,3.07-.82,6.12-1.38,9.16-2.44-3.57-7.32-8.4-7.18-.78-4.72,11.91,3.37,9.7,6.37,1.47,2.13,17.26-11.6,10.42-13.35,24.78-.57,2.07-1.84,6.69-2.42,8.8,39.57,4.36,19.76-12.58,42.64-17.35,10.76-1.74,9.19-14.62,14.47-20.44,11.7-5.36,9.74-7.51-2.22-6.94,16.06-6.31,1.76-20.67,17.83-30.82,5.32-6.84-4.92-15.39.47-22.42,2.52-4.3,6.78-9.05,3.87-14.16Zm-161.66,107.93c-.94-4.75-6.08-1.59-9.57-2.86.45,1.37,1.9,1.97,1.75,3.56,1.42,3.73,3.29,4.7,7.58,3.63,4,.15,1.24-2.12.24-4.33Zm-8.03-4.48c.04.06.08.11.12.16-.04-.06-.08-.11-.12-.16Zm-.36-.5c.04.06.08.12.13.19-.05-.07-.08-.13-.13-.19Zm-18.17-44.57c-.2-.21-.37-.29-.4.02.11.23.26.22.4-.02Zm-.21,4.01s-.01-.01-.01-.02c.01,0,.01.02.01.02Zm-.19-.27c.06.08.12.16.18.25-.06-.12-.02-.4-.18-.25Zm-.24,3.99c.09-.01.16-.01.09-.11-.08-.01-.09.04-.09.11Zm-1.53-13.54s0-.01-.01-.01h.01Zm-2.69,9.56s-.08-.07-.12-.1c.04.03.07.17.12.1Zm-.17-13.31c-.03.1-.07.21-.09.31.04-.1.06-.2.09-.31Zm-2.25,7.39c.19.22.32.49.56.65-.26-.24-.1-1.02-.56-.65Zm-1.03-4.38c.12.33-.11,1.04.4.85-.05-.6-.45-2.34-.4-.85Zm0-4.67c.01.11.07.22.1.34.19-.08-.05-.22-.1-.34Zm-.92,14.1c-.65.54.35,1.28.61,1.88-.37-.55-.37-1.26-.61-1.88Zm-1.08-7.94c-.09-.15-.11-.44-.23-.49.06.19-.05.64.23.49Zm-.58-2.38c-.48.12.08.64.13,1,.51-.13-.06-.64-.13-1Zm-.57,4.65c.24-.21.17-.3-.04-.56-.24.28-.2.36.04.56Zm-1.4,2.96c.07-.06.07-.11.02-.18-.08.06-.07.11-.02.18Zm-.11-3.29c-.05-.1-.05-.4-.18-.25.06.07.11.22.18.25Zm-.38,2.5c.11.14.24.07.27-.1-.15-.11-.28-.07-.27.1Zm-.46-.63c.38.04.15-.41.19-.67-.49-.14-.19.35-.19.67Zm-.22-11.62c.1-.17-.2-.09-.08.01.02,0,.06-.01.08-.01Zm-.41,3.86c-.06-.09-.12-.17-.19-.26.06.09.12.19.19.26Zm-.3-3.35c.05.06.1.11.14.16-.01-.06-.09-.1-.14-.16Zm-.2,4.83c.02-.26-.03-.52-.04-.78-.44.04,0,.49.04.78Zm-1.82-7.22c.05.15.17.24.27.36-.1-.13-.14-.28-.27-.36Zm45.42,68.05c-1.67-1.8-2.11-6.71-4.6-6.37-1.73.55-7.87-1.09-6.55.82,4.01,6.88,1.98,7.74,11.15,5.55Zm-10.13-8.23c.04.06.08.11.12.16-.04-.06-.08-.11-.12-.16Zm-.3-.42s-.04-.05-.06-.08c.04.06.08.12.13.19-.03-.04-.05-.08-.07-.11Zm-18.51-44.89c-.17.2-.13.33.08.47.26-.19.14-.33-.08-.47Zm.06,4.23s0,.02.01.02t-.01-.02Zm-.08-.31c-.19.07.02.19.08.31-.03-.1-.05-.21-.08-.31Zm-.25,3.93c-.08,0-.09.05-.09.11.08,0,.16,0,.09-.11Zm-1.62-13.43s0,.01.01.01c0,0-.01-.01-.01-.01Zm-2.81,9.47s.07.17.12.1c-.04-.04-.08-.07-.12-.1Zm-.14-12.9c.05-.09.05-.2.09-.31-.03.1-.06.21-.09.31Zm-1.7,7.6c-.23-1.12-.68-.34.09.13-.02-.05-.06-.09-.09-.13Zm-1.25-4.9c-.28-1.51-.31.27-.14.89.53.03.14-.53.14-.89Zm-.24-4.67c.01.11.07.22.1.34.19-.08-.05-.22-.1-.34Zm-.49,15.72c-.42-2.28-1.07-1.16.17.26-.05-.09-.11-.17-.17-.26Zm-1.71-10.07c-.03.15-.06.67.2.51-.06-.17-.13-.34-.2-.51Zm-.38-1.87c-.48.12.08.64.13,1,.51-.13-.06-.64-.13-1Zm-.6,4.09c-.24.27-.21.36.04.56.24-.21.16-.3-.04-.56Zm-1.35,3.34c-.08.06-.07.11-.02.18.07-.06.07-.11.02-.18Zm-.23-3.42c-.18.08.05.21.09.32,0-.1-.06-.21-.09-.32Zm-.21,2.62c-.11.16-.08.24.11.28.1-.16.07-.23-.11-.28Zm-1.33-11.42s-.09-.08-.13-.12c.05.06.1.11.14.16,0-.01,0-.03-.01-.04Zm.99,10.3c-.46-.24-.31.81.03.65,0-.22-.02-.43-.03-.65Zm-.53-11.01c.01.07.04.11.12.07.06-.13-.03-.09-.12-.07Zm-.48,3.68c.06.09.11.18.19.26-.07-.09-.13-.17-.19-.26Zm-.35.95c-.44.04,0,.49.04.78,0-.26-.03-.52-.04-.78Zm-1.68-6.36s-.07-.06-.1-.08c.05.15.17.24.27.36-.07-.09-.12-.19-.17-.28Zm0,0s-.07-.06-.1-.08c.05.15.17.24.27.36-.07-.09-.12-.19-.17-.28Zm1.68,6.36c-.44.04,0,.49.04.78,0-.26-.03-.52-.04-.78Zm.37-3.92s-.09-.08-.13-.12c.05.06.1.11.14.16,0-.01,0-.03-.01-.04Zm-.02,2.97c.06.09.11.18.19.26-.07-.09-.13-.17-.19-.26Zm.48-3.68c.01.07.04.11.12.07.06-.13-.03-.09-.12-.07Zm.53,11.01c-.46-.24-.31.81.03.65,0-.22-.02-.43-.03-.65Zm.34,1.12c-.11.16-.08.24.11.28.1-.16.07-.23-.11-.28Zm.21-2.62c-.18.08.05.21.09.32,0-.1-.06-.21-.09-.32Zm.23,3.42c-.08.06-.07.11-.02.18.07-.06.07-.11.02-.18Zm1.35-3.34c-.24.27-.21.36.04.56.24-.21.16-.3-.04-.56Zm.6-4.09c-.48.12.08.64.13,1,.51-.13-.06-.64-.13-1Zm.38,1.87c-.03.15-.06.67.2.51-.06-.17-.13-.34-.2-.51Zm1.71,10.07c-.42-2.28-1.07-1.16.17.26-.05-.09-.11-.17-.17-.26Zm.49-15.72c.01.11.07.22.1.34.19-.08-.05-.22-.1-.34Zm.24,4.67c-.28-1.51-.31.27-.14.89.53.03.14-.53.14-.89Zm1.25,4.9c-.23-1.12-.68-.34.09.13-.02-.05-.06-.09-.09-.13Zm1.7-7.6c.05-.09.05-.2.09-.31-.03.1-.06.21-.09.31Zm.14,12.9s.07.17.12.1c-.04-.04-.08-.07-.12-.1Zm2.81-9.47s0,.01.01.01c0,0-.01-.01-.01-.01Zm1.62,13.43c-.08,0-.09.05-.09.11.08,0,.16,0,.09-.11Zm.25-3.93c-.19.07.02.19.08.31-.03-.1-.05-.21-.08-.31Zm.08.31s0,.02.01.02t-.01-.02Zm-.06-4.23c-.17.2-.13.33.08.47.26-.19.14-.33-.08-.47Zm18.51,44.89s-.04-.05-.06-.08c.04.06.08.12.13.19-.03-.04-.05-.08-.07-.11Zm-18.51-44.89c-.17.2-.13.33.08.47.26-.19.14-.33-.08-.47Zm.06,4.23s0,.02.01.02t-.01-.02Zm-.08-.31c-.19.07.02.19.08.31-.03-.1-.05-.21-.08-.31Zm-.25,3.93c-.08,0-.09.05-.09.11.08,0,.16,0,.09-.11Zm-1.62-13.43s0,.01.01.01c0,0-.01-.01-.01-.01Zm-2.81,9.47s.07.17.12.1c-.04-.04-.08-.07-.12-.1Zm-.14-12.9c.05-.09.05-.2.09-.31-.03.1-.06.21-.09.31Zm-1.7,7.6c-.23-1.12-.68-.34.09.13-.02-.05-.06-.09-.09-.13Zm-1.25-4.9c-.28-1.51-.31.27-.14.89.53.03.14-.53.14-.89Zm-.24-4.67c.01.11.07.22.1.34.19-.08-.05-.22-.1-.34Zm-.49,15.72c-.42-2.28-1.07-1.16.17.26-.05-.09-.11-.17-.17-.26Zm-1.71-10.07c-.03.15-.06.67.2.51-.06-.17-.13-.34-.2-.51Zm-.38-1.87c-.48.12.08.64.13,1,.51-.13-.06-.64-.13-1Zm-.6,4.09c-.24.27-.21.36.04.56.24-.21.16-.3-.04-.56Zm-1.35,3.34c-.08.06-.07.11-.02.18.07-.06.07-.11.02-.18Zm-.23-3.42c-.18.08.05.21.09.32,0-.1-.06-.21-.09-.32Zm-.21,2.62c-.11.16-.08.24.11.28.1-.16.07-.23-.11-.28Zm-1.33-11.42s-.09-.08-.13-.12c.05.06.1.11.14.16,0-.01,0-.03-.01-.04Zm.99,10.3c-.46-.24-.31.81.03.65,0-.22-.02-.43-.03-.65Zm-.53-11.01c.01.07.04.11.12.07.06-.13-.03-.09-.12-.07Zm-.48,3.68c.06.09.11.18.19.26-.07-.09-.13-.17-.19-.26Zm-.35.95c-.44.04,0,.49.04.78,0-.26-.03-.52-.04-.78Zm-1.68-6.36s-.07-.06-.1-.08c.05.15.17.24.27.36-.07-.09-.12-.19-.17-.28Zm0,0s-.07-.06-.1-.08c.05.15.17.24.27.36-.07-.09-.12-.19-.17-.28Zm1.68,6.36c-.44.04,0,.49.04.78,0-.26-.03-.52-.04-.78Zm.37-3.92s-.09-.08-.13-.12c.05.06.1.11.14.16,0-.01,0-.03-.01-.04Zm-.02,2.97c.06.09.11.18.19.26-.07-.09-.13-.17-.19-.26Zm.48-3.68c.01.07.04.11.12.07.06-.13-.03-.09-.12-.07Zm.53,11.01c-.46-.24-.31.81.03.65,0-.22-.02-.43-.03-.65Zm.34,1.12c-.11.16-.08.24.11.28.1-.16.07-.23-.11-.28Zm.21-2.62c-.18.08.05.21.09.32,0-.1-.06-.21-.09-.32Zm.23,3.42c-.08.06-.07.11-.02.18.07-.06.07-.11.02-.18Zm1.35-3.34c-.24.27-.21.36.04.56.24-.21.16-.3-.04-.56Zm.6-4.09c-.48.12.08.64.13,1,.51-.13-.06-.64-.13-1Zm.38,1.87c-.03.15-.06.67.2.51-.06-.17-.13-.34-.2-.51Zm1.71,10.07c-.42-2.28-1.07-1.16.17.26-.05-.09-.11-.17-.17-.26Zm.49-15.72c.01.11.07.22.1.34.19-.08-.05-.22-.1-.34Zm.24,4.67c-.28-1.51-.31.27-.14.89.53.03.14-.53.14-.89Zm1.25,4.9c-.23-1.12-.68-.34.09.13-.02-.05-.06-.09-.09-.13Zm1.7-7.6c.05-.09.05-.2.09-.31-.03.1-.06.21-.09.31Zm.14,12.9s.07.17.12.1c-.04-.04-.08-.07-.12-.1Zm2.81-9.47s0,.01.01.01c0,0-.01-.01-.01-.01Zm1.62,13.43c-.08,0-.09.05-.09.11.08,0,.16,0,.09-.11Zm.25-3.93c-.19.07.02.19.08.31-.03-.1-.05-.21-.08-.31Zm.08.31s0,.02.01.02t-.01-.02Zm-.06-4.23c-.17.2-.13.33.08.47.26-.19.14-.33-.08-.47Zm18.51,44.89s-.04-.05-.06-.08c.04.06.08.12.13.19-.03-.04-.05-.08-.07-.11Zm-18.51-44.89c-.17.2-.13.33.08.47.26-.19.14-.33-.08-.47Zm.06,4.23s0,.02.01.02t-.01-.02Zm-.08-.31c-.19.07.02.19.08.31-.03-.1-.05-.21-.08-.31Zm-.25,3.93c-.08,0-.09.05-.09.11.08,0,.16,0,.09-.11Zm-1.62-13.43s0,.01.01.01c0,0-.01-.01-.01-.01Zm-10.9,2.39c-.18.08.05.21.09.32,0-.1-.06-.21-.09-.32Zm1.58.08c-.24.27-.21.36.04.56.24-.21.16-.3-.04-.56Zm.98-2.22c-.03.15-.06.67.2.51-.06-.17-.13-.34-.2-.51Zm1.71,10.07c-.42-2.28-1.07-1.16.17.26-.05-.09-.11-.17-.17-.26Zm.73-11.05c-.28-1.51-.31.27-.14.89.53.03.14-.53.14-.89Zm1.25,4.9c-.23-1.12-.68-.34.09.13-.02-.05-.06-.09-.09-.13Zm1.84,5.3s.07.17.12.1c-.04-.04-.08-.07-.12-.1Zm-.14-12.9c.05-.09.05-.2.09-.31-.03.1-.06.21-.09.31Zm-3.19-1.97c.01.11.07.22.1.34.19-.08-.05-.22-.1-.34Zm-2.58,3.78c-.48.12.08.64.13,1,.51-.13-.06-.64-.13-1Zm-1.95,7.43c-.08.06-.07.11-.02.18.07-.06.07-.11.02-.18Zm-.44-.8c-.11.16-.08.24.11.28.1-.16.07-.23-.11-.28Zm-1.33-11.42s-.09-.08-.13-.12c.05.06.1.11.14.16,0-.01,0-.03-.01-.04Zm.99,10.3c-.46-.24-.31.81.03.65,0-.22-.02-.43-.03-.65Zm-.53-11.01c.01.07.04.11.12.07.06-.13-.03-.09-.12-.07Zm-.48,3.68c.06.09.11.18.19.26-.07-.09-.13-.17-.19-.26Zm-.35.95c-.44.04,0,.49.04.78,0-.26-.03-.52-.04-.78Zm-1.68-6.36s-.07-.06-.1-.08c.05.15.17.24.27.36-.07-.09-.12-.19-.17-.28Z"/>
  <path class="cls-1" d="m135.21,204.11c-.07.09-.12.24-.2.09.07-.04.13-.07.2-.09Z"/>
  <path class="cls-1" d="m150.43,168.68c-4.68,0-8.68.63-12.39,2.36,4.92-.27,10.38-2.17,15.58-2.29-1.06-.05-2.12-.07-3.19-.07Zm32.39,7.82c-3.07-1.62-6.24-2.99-9.51-4.11,2.46.16,10.65,6.88,9.51,4.11Zm12.39,12.32c.32-2.8-5.57-11.2-5.49-5.43-.99,3.05.22,9.57-2.98,3.99-13.33-9.75-30.39-14.09-46.47-9.18-1.2,6.47-.12,13.53.03,20.21,5.65,6.99,45.98,4.08,47.56-7.7,1.99-.42-1.86,9.63-2.19,12.63,6.87-2.76,9.96-8.74,9.54-14.52Zm-16.33,5.68c-3.97,1.2-7.76,3.24-11.77,4.06.71-2.25,4.15-4.03,6.54-4.63-8.23-13.33,12.79-3.05,5.23.57Zm-35.66-6.97c-.38-5.65,5.51-5.99,9.74-5.19.73,2.13-4.34,7.97-1.32,11.87,5.47,7.07-11.45,5.57-8.42-6.68Z"/>
  <path class="cls-1" d="m131.24,197.88c-1.23-6.56,1.76-16.74-2.19-21.56-15.58-2.83-34.14,1.35-45.62,12.33-.5,13.52,42.22,16.24,47.81,9.23Zm-32.47-1.39c-13.73-.61-7.95-7.96,1.33-11.13-3.5,4.43,4.47,12.78-1.33,11.13Zm5.61-4.87c-1.48-.14-.99-1.25-.13-2.07.97.71,1.57,1.72.13,2.07Zm1.96-2.78c-2.14.16-1.95-3.25-.05-3.26,2.08-.02,2.31,3.27.05,3.26Zm21.16,5.97c-1.05,3.36-4.78,2.64-7.54,2.66-3.64-.27,4.9-9.7-2.18-15.5,9.46-3.16,12.93,4.95,9.72,12.84Z"/>
  <path class="cls-1" d="m79.95,191.51l-1.86.52c-.11-.32-2.57-6.53-2.58-6.67-1.25-5.26-1.09-8.84,2.62-12.14.19,6.14.82,12.24,1.82,18.29Z"/>
  <path class="cls-1" d="m132.24,165.94c-.35,5.79,1.36,6.91-3.73,3.81-15.4-3.03-32.34.77-46.3,9.6,11.94-11.54,35.41-22.11,50.03-13.41Z"/>
  <path class="cls-1" d="m188.05,189.67c-6.05-2.9-10.82-8.22-17.21-10.52,5.65,2.57,14.3,4.75,17.21,10.52Z"/>
  <path class="cls-1" d="m196.41,179.57c.47,4.15-3.2,8.43-5.26,11.86-4.12-1.18-1.41-4.87-1.42-8.04-.19-11.06,3.56-19.4,6.68-3.82Z"/>
  <path class="cls-1" d="m137.35,167.28c.35,5.79-1.36,6.91,3.73,3.81,15.4-3.03,32.34.77,46.3,9.6-11.93-11.54-35.41-22.11-50.03-13.41Z"/>
</svg>